<svg width="24" height="24" viewBox="0 0 24 24" fill="none" xmlns="http://www.w3.org/2000/svg">
<path d="M2.667 10.8333C2.96436 10.8337 3.25037 10.9475 3.4666 11.1517C3.68282 11.3558 3.81294 11.6348 3.83037 11.9316C3.8478 12.2285 3.75121 12.5208 3.56036 12.7488C3.3695 12.9768 3.09878 13.1234 2.8035 13.1585L2.667 13.1667H1.50034C1.20298 13.1663 0.916964 13.0525 0.700739 12.8484C0.484513 12.6442 0.354394 12.3652 0.336968 12.0684C0.319541 11.7715 0.416122 11.4792 0.606977 11.2512C0.797833 11.0232 1.06856 10.8766 1.36383 10.8415L1.50034 10.8333H2.667ZM12.0003 0.333344C12.2861 0.333381 12.5619 0.438292 12.7754 0.628178C12.989 0.818064 13.1254 1.07972 13.1588 1.36351L13.167 1.50001V2.66668C13.1667 2.96404 13.0528 3.25005 12.8487 3.46627C12.6445 3.6825 12.3656 3.81262 12.0687 3.83004C11.7719 3.84747 11.4796 3.75089 11.2515 3.56003C11.0235 3.36918 10.877 3.09846 10.8418 2.80318L10.8337 2.66668V1.50001C10.8337 1.19059 10.9566 0.893845 11.1754 0.675052C11.3942 0.45626 11.6909 0.333344 12.0003 0.333344ZM22.5003 10.8333C22.7977 10.8337 23.0837 10.9475 23.2999 11.1517C23.5162 11.3558 23.6463 11.6348 23.6637 11.9316C23.6811 12.2285 23.5845 12.5208 23.3937 12.7488C23.2028 12.9768 22.9321 13.1234 22.6368 13.1585L22.5003 13.1667H21.3337C21.0363 13.1663 20.7503 13.0525 20.5341 12.8484C20.3178 12.6442 20.1877 12.3652 20.1703 12.0684C20.1529 11.7715 20.2495 11.4792 20.4403 11.2512C20.6312 11.0232 20.9019 10.8766 21.1972 10.8415L21.3337 10.8333H22.5003ZM3.70884 3.70851C3.90973 3.50764 4.17701 3.38697 4.46054 3.36914C4.74407 3.35131 5.02436 3.43755 5.24884 3.61168L5.3585 3.70851L6.17517 4.52518C6.38441 4.73513 6.50589 5.01685 6.51493 5.31312C6.52398 5.6094 6.41992 5.89801 6.22388 6.12034C6.02784 6.34266 5.75453 6.48203 5.45945 6.51014C5.16437 6.53825 4.86966 6.45299 4.63517 6.27168L4.5255 6.17484L3.70884 5.35818C3.49012 5.13939 3.36725 4.8427 3.36725 4.53334C3.36725 4.22398 3.49012 3.92729 3.70884 3.70851ZM18.6422 3.70851C18.8521 3.49927 19.1338 3.37779 19.4301 3.36874C19.7264 3.3597 20.015 3.46376 20.2373 3.6598C20.4597 3.85584 20.599 4.12915 20.6271 4.42423C20.6552 4.71931 20.57 5.01402 20.3887 5.24851L20.2918 5.35818L19.4752 6.17484C19.2652 6.38408 18.9835 6.50556 18.6872 6.51461C18.3909 6.52366 18.1023 6.41959 17.88 6.22355C17.6577 6.02751 17.5183 5.7542 17.4902 5.45912C17.4621 5.16405 17.5474 4.86933 17.7287 4.63484L17.8255 4.52518L18.6422 3.70851ZM14.3337 19C14.6431 19 14.9398 19.1229 15.1586 19.3417C15.3774 19.5605 15.5003 19.8573 15.5003 20.1667C15.5003 21.0949 15.1316 21.9852 14.4752 22.6416C13.8188 23.2979 12.9286 23.6667 12.0003 23.6667C11.0721 23.6667 10.1818 23.2979 9.52546 22.6416C8.86908 21.9852 8.50033 21.0949 8.50033 20.1667C8.50037 19.8809 8.60528 19.6051 8.79517 19.3916C8.98505 19.178 9.24671 19.0416 9.5305 19.0082L9.667 19H14.3337ZM12.0003 5.00001C13.4695 5.00001 14.9014 5.46227 16.0933 6.32131C17.2852 7.18036 18.1765 8.39263 18.6411 9.78642C19.1057 11.1802 19.12 12.6848 18.6819 14.0872C18.2439 15.4895 17.3757 16.7185 16.2003 17.6C16.0395 17.7208 15.8502 17.798 15.6508 17.824L15.5003 17.8333H8.50033C8.2479 17.8333 8.00228 17.7515 7.80033 17.6C6.62499 16.7185 5.7568 15.4895 5.31874 14.0872C4.88068 12.6848 4.89496 11.1802 5.35955 9.78642C5.82415 8.39263 6.7155 7.18036 7.90736 6.32131C9.09922 5.46227 10.5312 5.00001 12.0003 5.00001Z" fill="#FDCC06"/>
</svg>
