<svg width="48" height="48" viewBox="0 0 48 48" fill="none" xmlns="http://www.w3.org/2000/svg">
<path fill-rule="evenodd" clip-rule="evenodd" d="M12.0162 11.992C5.4073 18.5902 0 23.9934 0 23.9992C0 24.0049 0.723776 24.7347 1.6084 25.6209C2.59169 26.606 3.21361 27.2407 3.20859 27.2541C3.20387 27.2666 3.24278 27.3162 3.29991 27.3705C3.35465 27.4225 3.44634 27.5127 3.50367 27.571C3.56099 27.6293 3.62797 27.6847 3.65252 27.6941C3.6849 27.7064 19.9846 44.0066 23.4562 47.4983C23.7119 47.7555 23.8274 47.8606 23.8748 47.8792C23.9342 47.9026 23.9871 47.9336 24.0638 47.9902C24.0862 48.0068 24.1034 48.0034 24.16 47.9717C24.2531 47.9195 24.2834 47.8908 24.3173 47.823C24.3534 47.7507 24.5012 47.6074 24.5688 47.5792C24.602 47.5654 24.6218 47.5446 24.625 47.5204C24.6282 47.4959 25.159 46.952 26.1693 45.9381C27.0159 45.0883 28.0856 44.0137 28.5464 43.5501C29.2702 42.8219 29.3876 42.71 29.4092 42.7283C29.4306 42.7464 29.4444 42.7376 29.5047 42.6672C29.5434 42.6219 29.6107 42.5571 29.6542 42.5233C29.6976 42.4894 29.7482 42.4343 29.7666 42.401C29.8019 42.3368 29.9644 42.1705 29.9918 42.1705C30.0007 42.1705 30.0503 42.1345 30.102 42.0905C30.1537 42.0466 30.2244 41.9946 30.2592 41.9751C30.3061 41.9487 30.3121 41.9416 30.2823 41.9474C30.2602 41.9517 30.2133 41.96 30.178 41.9658L30.1139 41.9764L30.282 41.8072C30.3745 41.7141 34.3849 37.6872 39.1941 32.8584C45.7365 26.2895 47.9359 24.0718 47.9293 24.0506C47.9239 24.0332 47.936 24.0075 47.9608 23.9838C48.0049 23.9415 48.0121 23.9181 47.981 23.9181C47.9204 23.918 47.7624 23.8173 47.6884 23.7315C47.5089 23.5238 47.4078 23.4347 47.3515 23.4347C47.329 23.4347 44.6608 20.7587 39.0048 15.0633C34.4323 10.4591 30.6192 6.62007 30.5313 6.53221C30.3726 6.37361 30.3717 6.37224 30.4016 6.33847C30.4363 6.29929 30.4383 6.3026 30.3544 6.2588C30.3191 6.24039 30.247 6.1799 30.1941 6.1244C30.1412 6.06891 30.0618 6.00527 30.0177 5.98297C29.9653 5.95648 29.8791 5.88076 29.7691 5.7647C29.5666 5.55098 24.0606 0.00686611 24.044 9.78751e-07C24.0377 -0.00265332 18.6251 5.39373 12.0162 11.992ZM26.4978 3.93097C27.6709 5.11261 28.6306 6.08439 28.6306 6.09049C28.6306 6.10222 23.0507 7.99885 23.0436 7.98952C23.0348 7.97792 24.3419 1.78253 24.3531 1.78253C24.3597 1.78253 25.3248 2.74933 26.4978 3.93097ZM22.556 5.33837L21.9191 8.37731L18.2555 9.62649L14.5919 10.8757L14.9046 10.5661C15.0766 10.3958 17.0104 8.46525 19.202 6.27596C21.3936 4.08667 23.1881 2.29633 23.1898 2.29743C23.1915 2.29853 22.9063 3.66695 22.556 5.33837ZM32.0822 4.93241C32.0535 4.9418 32.0301 4.95905 32.0301 4.97073C32.0301 5.01171 32.0574 5.00848 32.1117 4.96111C32.17 4.91016 32.165 4.90528 32.0822 4.93241ZM31.9471 9.41773L33.6627 11.1463L31.3391 11.1504C30.0611 11.1527 27.9689 11.1527 26.6898 11.1504L24.3641 11.1463L26.9582 9.08016L29.5522 7.01402L29.8919 7.35159C30.0786 7.53726 31.0035 8.46702 31.9471 9.41773ZM20.3456 10.1353C20.2469 10.2318 16.5213 13.953 12.0664 18.4047C7.61152 22.8564 3.96116 26.4986 3.95449 26.4986C3.94011 26.4986 1.45919 24.0147 1.45919 24.0003C1.45919 23.9948 4.04002 21.4138 7.19438 18.2647L12.9296 12.539L16.7112 11.25C18.7911 10.5411 20.5001 9.96078 20.5089 9.9605C20.5177 9.96023 20.4442 10.0389 20.3456 10.1353ZM33.9191 12.24C33.9064 12.2603 31.3175 16.5589 28.1659 21.7926C25.0143 27.0263 22.4299 31.3063 22.423 31.3039C22.416 31.3013 21.4254 30.3076 20.2216 29.0956L18.033 26.8919L18.0322 22.0245L18.0315 17.1572L20.5502 14.6802L23.069 12.2031H28.5055H33.9419L33.9191 12.24ZM34.516 20.3544C34.4533 24.2294 34.3981 27.459 34.3935 27.5313L34.385 27.6628L33.444 27.9691C32.4291 28.2994 23.8168 31.0312 23.8108 31.0247C23.8088 31.0225 26.24 26.9808 29.2135 22.0431L34.6198 13.0654L34.625 13.1872C34.6278 13.2542 34.5788 16.4795 34.516 20.3544ZM41.5526 19.0927C45.4127 22.9796 46.2173 23.7973 46.1931 23.8083C46.144 23.8307 35.4226 27.3245 35.4179 27.3196C35.4107 27.3123 35.6384 13.437 35.6481 13.2881L35.657 13.1524L36.2699 13.7714C36.607 14.1119 38.9842 16.5065 41.5526 19.0927ZM13.2866 26.671C15.4897 28.8646 17.29 30.6615 17.2874 30.6642C17.284 30.6676 5.04783 27.0289 4.94448 26.9937C4.92869 26.9883 9.25018 22.6737 9.26661 22.6785C9.27452 22.6808 11.0835 24.4774 13.2866 26.671ZM12.1305 30.2172C15.6009 31.2509 18.4482 32.1053 18.4579 32.1158C18.4718 32.1311 19.8523 36.2215 22.8852 45.2344L23.0037 45.5867L22.7024 45.2816C22.5366 45.1139 18.7967 41.3692 14.3915 36.9602C6.17776 28.7395 5.75541 28.3154 5.79668 28.3295C5.80991 28.334 8.66015 29.1835 12.1305 30.2172ZM38.3397 32.2565C36.6776 33.934 29.3903 41.2358 29.3814 41.2327C29.3745 41.2303 28.1881 40.0527 26.745 38.6159L24.1213 36.0034L24.2313 35.9733C24.773 35.8252 38.4079 32.1612 38.4199 32.1605C38.4286 32.1599 38.3926 32.2031 38.3397 32.2565ZM24.3391 37.6772C26.7039 40.0316 28.6387 41.9664 28.6387 41.9767C28.6387 41.987 27.6682 42.97 26.482 44.1612L24.3254 46.327L24.2595 46.1207C24.2232 46.0072 23.24 43.0847 22.0746 39.6262C20.9092 36.1678 19.9557 33.3334 19.9557 33.3276C19.9557 33.3122 19.7121 33.0705 24.3391 37.6772ZM30.7122 41.8867C30.7238 41.8915 30.7376 41.8909 30.7429 41.8854C30.7483 41.88 30.7388 41.8761 30.7219 41.8768C30.7032 41.8776 30.6994 41.8815 30.7122 41.8867ZM26.8095 45.9412C26.7739 45.98 26.7706 45.9881 26.7959 45.9747C26.8347 45.9543 26.8748 45.9089 26.8639 45.8977C26.8598 45.8935 26.8353 45.9131 26.8095 45.9412Z" fill="white"/>
</svg>
