<svg width="565" height="29" viewBox="0 0 565 29" fill="none" xmlns="http://www.w3.org/2000/svg">
<path d="M12.5 4.53906C10.5299 4.53906 8.60407 5.12326 6.966 6.21778C5.32794 7.3123 4.05122 8.86799 3.2973 10.6881C2.54338 12.5082 2.34612 14.5111 2.73046 16.4433C3.11481 18.3755 4.0635 20.1504 5.45656 21.5434C6.84962 22.9365 8.62449 23.8852 10.5567 24.2695C12.489 24.6539 14.4918 24.4566 16.3119 23.7027C18.132 22.9488 19.6877 21.6721 20.7822 20.034C21.8767 18.3959 22.4609 16.4701 22.4609 14.5C22.4578 11.8591 21.4074 9.32735 19.54 7.45998C17.6727 5.59261 15.1409 4.54216 12.5 4.53906ZM12.5 23.2891C10.7617 23.2891 9.06242 22.7736 7.61706 21.8078C6.17171 20.8421 5.04519 19.4694 4.37997 17.8634C3.71475 16.2574 3.54069 14.4903 3.87982 12.7853C4.21895 11.0804 5.05603 9.51437 6.2852 8.28519C7.51437 7.05602 9.08043 6.21894 10.7853 5.87982C12.4903 5.54069 14.2574 5.71474 15.8634 6.37996C17.4694 7.04519 18.8421 8.1717 19.8078 9.61706C20.7736 11.0624 21.2891 12.7617 21.2891 14.5C21.2865 16.8302 20.3597 19.0642 18.712 20.712C17.0642 22.3597 14.8302 23.2865 12.5 23.2891ZM9.17969 14.5C9.17969 15.1969 9.39896 15.8761 9.80643 16.4414C10.2139 17.0068 10.7889 17.4296 11.45 17.6499C12.1111 17.8703 12.8248 17.8771 13.49 17.6693C14.1552 17.4615 14.7381 17.0497 15.1563 16.4922C15.2496 16.3679 15.3886 16.2857 15.5425 16.2638C15.6964 16.242 15.8527 16.2821 15.9771 16.3755C16.1014 16.4689 16.1835 16.6078 16.2054 16.7617C16.2273 16.9156 16.1871 17.072 16.0938 17.1963C15.5279 17.9503 14.7392 18.5072 13.8393 18.7881C12.9394 19.069 11.9739 19.0597 11.0796 18.7615C10.1853 18.4632 9.40748 17.8912 8.85631 17.1264C8.30514 16.3616 8.00855 15.4427 8.00855 14.5C8.00855 13.5573 8.30514 12.6384 8.85631 11.8736C9.40748 11.1088 10.1853 10.5368 11.0796 10.2385C11.9739 9.94029 12.9394 9.93097 13.8393 10.2119C14.7392 10.4928 15.5279 11.0497 16.0938 11.8037C16.1871 11.928 16.2273 12.0844 16.2054 12.2383C16.1835 12.3922 16.1014 12.5311 15.9771 12.6245C15.8527 12.7179 15.6964 12.758 15.5425 12.7362C15.3886 12.7143 15.2496 12.6321 15.1563 12.5078C14.7381 11.9503 14.1552 11.5385 13.49 11.3307C12.8248 11.1229 12.1111 11.1297 11.45 11.3501C10.7889 11.5704 10.2139 11.9932 9.80643 12.5586C9.39896 13.1239 9.17969 13.8031 9.17969 14.5Z" fill="white"/>
<path d="M41.888 23V21.368L48.728 14.768C49.336 14.192 49.784 13.688 50.072 13.256C50.376 12.808 50.576 12.4 50.672 12.032C50.784 11.648 50.84 11.28 50.84 10.928C50.84 10.064 50.536 9.384 49.928 8.888C49.32 8.392 48.432 8.144 47.264 8.144C46.368 8.144 45.56 8.296 44.84 8.6C44.12 8.888 43.496 9.344 42.968 9.968L41.336 8.552C41.976 7.736 42.832 7.112 43.904 6.68C44.992 6.232 46.184 6.008 47.48 6.008C48.648 6.008 49.664 6.2 50.528 6.584C51.392 6.952 52.056 7.488 52.52 8.192C53 8.896 53.24 9.728 53.24 10.688C53.24 11.232 53.168 11.768 53.024 12.296C52.88 12.824 52.608 13.384 52.208 13.976C51.808 14.568 51.232 15.232 50.48 15.968L44.384 21.848L43.808 20.912H53.96V23H41.888ZM70.2138 23.192C68.9018 23.192 67.7258 22.856 66.6858 22.184C65.6618 21.512 64.8458 20.536 64.2378 19.256C63.6458 17.976 63.3498 16.424 63.3498 14.6C63.3498 12.776 63.6458 11.224 64.2378 9.944C64.8458 8.664 65.6618 7.688 66.6858 7.016C67.7258 6.344 68.9018 6.008 70.2138 6.008C71.5098 6.008 72.6778 6.344 73.7178 7.016C74.7578 7.688 75.5738 8.664 76.1658 9.944C76.7578 11.224 77.0538 12.776 77.0538 14.6C77.0538 16.424 76.7578 17.976 76.1658 19.256C75.5738 20.536 74.7578 21.512 73.7178 22.184C72.6778 22.856 71.5098 23.192 70.2138 23.192ZM70.2138 21.056C71.0938 21.056 71.8618 20.816 72.5178 20.336C73.1898 19.856 73.7098 19.136 74.0778 18.176C74.4618 17.216 74.6538 16.024 74.6538 14.6C74.6538 13.176 74.4618 11.984 74.0778 11.024C73.7098 10.064 73.1898 9.344 72.5178 8.864C71.8618 8.384 71.0938 8.144 70.2138 8.144C69.3338 8.144 68.5578 8.384 67.8858 8.864C67.2138 9.344 66.6858 10.064 66.3018 11.024C65.9338 11.984 65.7498 13.176 65.7498 14.6C65.7498 16.024 65.9338 17.216 66.3018 18.176C66.6858 19.136 67.2138 19.856 67.8858 20.336C68.5578 20.816 69.3338 21.056 70.2138 21.056ZM89.6296 23V7.16L90.6616 8.288H85.8376V6.2H92.0056V23H89.6296ZM108.256 23.192C107.072 23.192 105.92 23.008 104.8 22.64C103.696 22.272 102.792 21.776 102.088 21.152L103.192 19.256C103.752 19.784 104.48 20.216 105.376 20.552C106.272 20.888 107.232 21.056 108.256 21.056C109.504 21.056 110.472 20.792 111.16 20.264C111.864 19.72 112.216 18.992 112.216 18.08C112.216 17.2 111.88 16.496 111.208 15.968C110.552 15.424 109.504 15.152 108.064 15.152H106.72V13.472L111.712 7.328L112.048 8.288H102.856V6.2H113.944V7.832L108.976 13.952L107.728 13.208H108.52C110.552 13.208 112.072 13.664 113.08 14.576C114.104 15.488 114.616 16.648 114.616 18.056C114.616 19 114.384 19.864 113.92 20.648C113.456 21.432 112.752 22.056 111.808 22.52C110.88 22.968 109.696 23.192 108.256 23.192ZM124.511 17.408V15.416H130.967V17.408H124.511ZM140.354 23V21.368L147.194 14.768C147.802 14.192 148.25 13.688 148.538 13.256C148.842 12.808 149.042 12.4 149.138 12.032C149.25 11.648 149.306 11.28 149.306 10.928C149.306 10.064 149.002 9.384 148.394 8.888C147.786 8.392 146.898 8.144 145.73 8.144C144.834 8.144 144.026 8.296 143.306 8.6C142.586 8.888 141.962 9.344 141.434 9.968L139.802 8.552C140.442 7.736 141.298 7.112 142.37 6.68C143.458 6.232 144.65 6.008 145.946 6.008C147.114 6.008 148.13 6.2 148.994 6.584C149.858 6.952 150.522 7.488 150.986 8.192C151.466 8.896 151.706 9.728 151.706 10.688C151.706 11.232 151.634 11.768 151.49 12.296C151.346 12.824 151.074 13.384 150.674 13.976C150.274 14.568 149.698 15.232 148.946 15.968L142.85 21.848L142.274 20.912H152.426V23H140.354ZM168.679 23.192C167.367 23.192 166.191 22.856 165.151 22.184C164.127 21.512 163.311 20.536 162.703 19.256C162.111 17.976 161.815 16.424 161.815 14.6C161.815 12.776 162.111 11.224 162.703 9.944C163.311 8.664 164.127 7.688 165.151 7.016C166.191 6.344 167.367 6.008 168.679 6.008C169.975 6.008 171.143 6.344 172.183 7.016C173.223 7.688 174.039 8.664 174.631 9.944C175.223 11.224 175.519 12.776 175.519 14.6C175.519 16.424 175.223 17.976 174.631 19.256C174.039 20.536 173.223 21.512 172.183 22.184C171.143 22.856 169.975 23.192 168.679 23.192ZM168.679 21.056C169.559 21.056 170.327 20.816 170.983 20.336C171.655 19.856 172.175 19.136 172.543 18.176C172.927 17.216 173.119 16.024 173.119 14.6C173.119 13.176 172.927 11.984 172.543 11.024C172.175 10.064 171.655 9.344 170.983 8.864C170.327 8.384 169.559 8.144 168.679 8.144C167.799 8.144 167.023 8.384 166.351 8.864C165.679 9.344 165.151 10.064 164.767 11.024C164.399 11.984 164.215 13.176 164.215 14.6C164.215 16.024 164.399 17.216 164.767 18.176C165.151 19.136 165.679 19.856 166.351 20.336C167.023 20.816 167.799 21.056 168.679 21.056ZM184.999 23V21.368L191.839 14.768C192.447 14.192 192.895 13.688 193.183 13.256C193.487 12.808 193.687 12.4 193.783 12.032C193.895 11.648 193.951 11.28 193.951 10.928C193.951 10.064 193.647 9.384 193.039 8.888C192.431 8.392 191.543 8.144 190.375 8.144C189.479 8.144 188.671 8.296 187.951 8.6C187.231 8.888 186.607 9.344 186.079 9.968L184.447 8.552C185.087 7.736 185.943 7.112 187.015 6.68C188.103 6.232 189.295 6.008 190.591 6.008C191.759 6.008 192.775 6.2 193.639 6.584C194.503 6.952 195.167 7.488 195.631 8.192C196.111 8.896 196.351 9.728 196.351 10.688C196.351 11.232 196.279 11.768 196.135 12.296C195.991 12.824 195.719 13.384 195.319 13.976C194.919 14.568 194.343 15.232 193.591 15.968L187.495 21.848L186.919 20.912H197.071V23H184.999ZM211.621 23.192C210.437 23.192 209.285 23.008 208.165 22.64C207.061 22.272 206.157 21.776 205.453 21.152L206.557 19.256C207.117 19.784 207.845 20.216 208.741 20.552C209.637 20.888 210.597 21.056 211.621 21.056C212.869 21.056 213.837 20.792 214.525 20.264C215.229 19.72 215.581 18.992 215.581 18.08C215.581 17.2 215.245 16.496 214.573 15.968C213.917 15.424 212.869 15.152 211.429 15.152H210.085V13.472L215.077 7.328L215.413 8.288H206.221V6.2H217.309V7.832L212.341 13.952L211.093 13.208H211.885C213.917 13.208 215.437 13.664 216.445 14.576C217.469 15.488 217.981 16.648 217.981 18.056C217.981 19 217.749 19.864 217.285 20.648C216.821 21.432 216.117 22.056 215.173 22.52C214.245 22.968 213.061 23.192 211.621 23.192ZM250.424 23.192C249.144 23.192 247.96 22.984 246.872 22.568C245.8 22.136 244.864 21.536 244.064 20.768C243.28 19.984 242.664 19.072 242.216 18.032C241.768 16.992 241.544 15.848 241.544 14.6C241.544 13.352 241.768 12.208 242.216 11.168C242.664 10.128 243.288 9.224 244.088 8.456C244.888 7.672 245.824 7.072 246.896 6.656C247.984 6.224 249.168 6.008 250.448 6.008C251.744 6.008 252.936 6.232 254.024 6.68C255.128 7.112 256.064 7.76 256.832 8.624L255.272 10.136C254.632 9.464 253.912 8.968 253.112 8.648C252.312 8.312 251.456 8.144 250.544 8.144C249.6 8.144 248.72 8.304 247.904 8.624C247.104 8.944 246.408 9.392 245.816 9.968C245.224 10.544 244.76 11.232 244.424 12.032C244.104 12.816 243.944 13.672 243.944 14.6C243.944 15.528 244.104 16.392 244.424 17.192C244.76 17.976 245.224 18.656 245.816 19.232C246.408 19.808 247.104 20.256 247.904 20.576C248.72 20.896 249.6 21.056 250.544 21.056C251.456 21.056 252.312 20.896 253.112 20.576C253.912 20.24 254.632 19.728 255.272 19.04L256.832 20.552C256.064 21.416 255.128 22.072 254.024 22.52C252.936 22.968 251.736 23.192 250.424 23.192ZM269.88 13.448H278.52V15.488H269.88V13.448ZM270.096 20.912H279.888V23H267.696V6.2H279.552V8.288H270.096V20.912ZM291.214 23V6.2H293.614V20.912H302.71V23H291.214ZM315.088 13.448H323.728V15.488H315.088V13.448ZM315.304 20.912H325.096V23H312.904V6.2H324.76V8.288H315.304V20.912ZM341.318 23.192C340.038 23.192 338.814 23 337.646 22.616C336.478 22.216 335.558 21.704 334.886 21.08L335.774 19.208C336.414 19.768 337.23 20.232 338.222 20.6C339.214 20.968 340.246 21.152 341.318 21.152C342.294 21.152 343.086 21.04 343.694 20.816C344.302 20.592 344.75 20.288 345.038 19.904C345.326 19.504 345.47 19.056 345.47 18.56C345.47 17.984 345.278 17.52 344.894 17.168C344.526 16.816 344.038 16.536 343.43 16.328C342.838 16.104 342.182 15.912 341.462 15.752C340.742 15.592 340.014 15.408 339.278 15.2C338.558 14.976 337.894 14.696 337.286 14.36C336.694 14.024 336.214 13.576 335.846 13.016C335.478 12.44 335.294 11.704 335.294 10.808C335.294 9.944 335.518 9.152 335.966 8.432C336.43 7.696 337.134 7.112 338.078 6.68C339.038 6.232 340.254 6.008 341.726 6.008C342.702 6.008 343.67 6.136 344.63 6.392C345.59 6.648 346.422 7.016 347.126 7.496L346.334 9.416C345.614 8.936 344.854 8.592 344.054 8.384C343.254 8.16 342.478 8.048 341.726 8.048C340.782 8.048 340.006 8.168 339.398 8.408C338.79 8.648 338.342 8.968 338.054 9.368C337.782 9.768 337.646 10.216 337.646 10.712C337.646 11.304 337.83 11.776 338.198 12.128C338.582 12.48 339.07 12.76 339.662 12.968C340.27 13.176 340.934 13.368 341.654 13.544C342.374 13.704 343.094 13.888 343.814 14.096C344.55 14.304 345.214 14.576 345.806 14.912C346.414 15.248 346.902 15.696 347.27 16.256C347.638 16.816 347.822 17.536 347.822 18.416C347.822 19.264 347.59 20.056 347.126 20.792C346.662 21.512 345.942 22.096 344.966 22.544C344.006 22.976 342.79 23.192 341.318 23.192ZM361.87 23V8.288H356.11V6.2H370.006V8.288H364.246V23H361.87ZM376.672 23L384.28 6.2H386.656L394.288 23H391.768L384.976 7.544H385.936L379.144 23H376.672ZM379.912 18.8L380.56 16.88H390.016L390.712 18.8H379.912ZM414.928 25.4L422.848 2.792H424.936L417.016 25.4H414.928ZM447.882 23V6.2H449.85L460.962 20H459.93V6.2H462.33V23H460.362L449.25 9.2H450.282V23H447.882ZM476.959 23.192C475.967 23.192 475.039 22.984 474.175 22.568C473.311 22.152 472.607 21.552 472.063 20.768L473.455 19.136C473.919 19.776 474.439 20.272 475.015 20.624C475.607 20.96 476.255 21.128 476.959 21.128C478.879 21.128 479.839 19.992 479.839 17.72V8.288H473.767V6.2H482.215V17.6C482.215 19.472 481.767 20.872 480.871 21.8C479.991 22.728 478.687 23.192 476.959 23.192ZM491.648 23L499.256 6.2H501.632L509.264 23H506.744L499.952 7.544H500.912L494.12 23H491.648ZM494.888 18.8L495.536 16.88H504.992L505.688 18.8H494.888ZM521.703 23V8.288H515.943V6.2H529.839V8.288H524.079V23H521.703ZM551.94 6.2H554.34V23H551.94V6.2ZM542.292 23H539.892V6.2H542.292V23ZM552.156 15.512H542.052V13.424H552.156V15.512Z" fill="white"/>
</svg>
