<svg width="516" height="24" viewBox="0 0 516 24" fill="none" xmlns="http://www.w3.org/2000/svg">
<path d="M1.30032 2.6875L7.74564 2.95703L7.18314 22.5859L0.0346985 22.1641L1.30032 2.6875ZM10.9022 22.5391L10.7733 4.04688L22.3749 10.75L21.8124 2.64062L29.5819 2.21875L30.2381 22.3164L18.1092 16.7266L18.3319 22.5156L10.9022 22.5391ZM41.9142 1.50391C42.9064 1.57422 43.9494 1.79688 45.0431 2.17188L43.4963 6.66016C41.8869 6.11328 40.84 6.1875 40.3556 6.88281C39.715 7.78125 40.258 8.83984 41.9845 10.0586C42.547 10.4648 43.3361 10.9492 44.3517 11.5117L44.6447 11.6758L44.9025 11.8164C45.1213 11.9336 45.2892 12.0234 45.4064 12.0859C45.7502 12.2812 45.9963 12.4336 46.1447 12.543C47.2541 13.3242 47.9689 14.3242 48.2892 15.543C48.5939 16.7227 48.4845 17.9102 47.9611 19.1055C47.4142 20.332 46.6799 21.2852 45.758 21.9648C44.7189 22.7227 43.383 23.1797 41.7502 23.3359C40.8595 23.4219 39.7814 23.3164 38.5158 23.0195C37.508 22.793 36.4103 22.4531 35.2228 22L37.7424 17.5469C38.6174 18.1094 39.3752 18.3555 40.0158 18.2852C40.6877 18.2227 40.9533 17.8281 40.8127 17.1016C40.7189 16.6406 40.4689 16.2148 40.0627 15.8242C39.7189 15.4961 39.1447 15.1211 38.34 14.6992L37.8009 14.4297L37.2619 14.1484C36.8244 13.9297 36.4572 13.7305 36.1603 13.5508C34.3166 12.4727 33.1916 11.1133 32.7853 9.47266C32.4338 8.03516 32.5939 6.66406 33.2658 5.35938C33.9142 4.11719 34.9064 3.17188 36.2424 2.52344C37.9689 1.6875 39.8595 1.34766 41.9142 1.50391ZM64.7583 16.7734L64.9224 22.2578L51.1763 22.4219L51.2231 1.99609L65.1919 1.58594L65.4028 7.29297L57.6099 7.14062L57.7036 9.44922L61.7349 9.46094L61.9575 14.6523L57.7974 14.3359L57.8559 16.7969L64.7583 16.7734ZM85.118 19.1289L79.8328 23.4883L74.2664 15.6953L74.5594 22.1992L67.9852 22.3164L67.8094 2.80469C70.2781 2.09375 72.7899 1.82031 75.3445 1.98438C77.5789 2.13281 79.3758 2.68359 80.7352 3.63672C82.4383 4.82422 83.407 6.61719 83.6414 9.01562C83.7586 9.6875 83.7313 10.4336 83.5594 11.2539C83.4031 11.9727 83.1375 12.6094 82.7625 13.1641C82.2938 13.8594 81.6649 14.4102 80.8758 14.8164L85.118 19.1289ZM75.45 11.0547C76.3875 10.6797 76.8484 9.97656 76.8328 8.94531C76.825 8.38281 76.6649 7.91406 76.3524 7.53906C76.0867 7.23438 75.7352 7 75.2977 6.83594C74.782 6.64062 74.2703 6.55078 73.7625 6.56641L74.032 11.2891C74.5008 11.3203 74.9734 11.2422 75.45 11.0547ZM86.048 8.125L85.8253 2.38281L102.501 1.55078L102.712 7.10547L97.0285 7.45703L97.4269 21.8945L90.712 22.1523L90.6417 7.84375L86.048 8.125ZM122.654 15.3438L125.385 15.4609L123.756 12.3555L122.654 15.3438ZM121.002 19.7617L119.818 22.9375L112.904 20.6406L123.064 0.683594L134.619 19.7383L129.404 23.1133L127.74 19.9258L121.002 19.7617ZM159.541 15.5078L161.838 19.7266C160.752 20.5703 159.541 21.1836 158.205 21.5664C156.823 21.9727 155.401 22.0977 153.94 21.9414C152.502 21.7852 151.151 21.375 149.885 20.7109C148.666 20.0547 147.62 19.2148 146.745 18.1914C145.854 17.1523 145.205 16 144.799 14.7344C144.377 13.4297 144.241 12.0898 144.389 10.7148C144.538 9.34766 144.952 8.07031 145.631 6.88281C146.303 5.73438 147.178 4.74609 148.256 3.91797C150.545 2.16797 153.159 1.44922 156.096 1.76172C158.604 2.02734 160.752 3.01562 162.541 4.72656L159.858 8.82812C159.108 8.24219 158.248 7.89844 157.28 7.79688C155.983 7.65625 154.838 7.94922 153.846 8.67578C152.846 9.39453 152.284 10.3359 152.159 11.5C152.034 12.6641 152.381 13.7031 153.202 14.6172C154.03 15.5391 155.088 16.0703 156.377 16.2109C157.534 16.3359 158.588 16.1016 159.541 15.5078ZM171.663 9.32031C170.71 10.0391 170.139 10.9609 169.952 12.0859C169.772 13.2031 170.03 14.1914 170.725 15.0508C171.436 15.9023 172.378 16.3789 173.55 16.4805C174.729 16.5742 175.8 16.2578 176.76 15.5312C177.721 14.8125 178.296 13.8906 178.483 12.7656C178.663 11.6484 178.397 10.6602 177.686 9.80078C176.991 8.94141 176.053 8.46484 174.874 8.37109C173.702 8.27734 172.632 8.59375 171.663 9.32031ZM180.51 20.1719C178.096 21.9922 175.409 22.7852 172.448 22.5508C170.995 22.4336 169.647 22.0508 168.405 21.4023C167.218 20.7852 166.206 19.9688 165.37 18.9531C164.534 17.9297 163.94 16.7852 163.589 15.5195C163.229 14.207 163.163 12.8633 163.389 11.4883C163.616 10.0977 164.116 8.79688 164.889 7.58594C165.632 6.40625 166.573 5.38281 167.714 4.51562C170.128 2.69531 172.815 1.90234 175.776 2.13672C177.229 2.25391 178.577 2.63672 179.819 3.28516C181.022 3.90234 182.038 4.71875 182.866 5.73438C183.702 6.75781 184.292 7.90234 184.635 9.16797C184.995 10.4727 185.061 11.8164 184.835 13.1992C184.608 14.5898 184.112 15.8906 183.346 17.1016C182.596 18.2812 181.651 19.3047 180.51 20.1719ZM195.327 9.32031C194.374 10.0391 193.804 10.9609 193.616 12.0859C193.437 13.2031 193.694 14.1914 194.39 15.0508C195.101 15.9023 196.042 16.3789 197.214 16.4805C198.394 16.5742 199.464 16.2578 200.425 15.5312C201.386 14.8125 201.96 13.8906 202.148 12.7656C202.327 11.6484 202.062 10.6602 201.351 9.80078C200.655 8.94141 199.718 8.46484 198.538 8.37109C197.366 8.27734 196.296 8.59375 195.327 9.32031ZM204.175 20.1719C201.761 21.9922 199.073 22.7852 196.112 22.5508C194.659 22.4336 193.312 22.0508 192.069 21.4023C190.882 20.7852 189.87 19.9688 189.034 18.9531C188.198 17.9297 187.605 16.7852 187.253 15.5195C186.894 14.207 186.827 12.8633 187.054 11.4883C187.28 10.0977 187.78 8.79688 188.554 7.58594C189.296 6.40625 190.237 5.38281 191.378 4.51562C193.792 2.69531 196.48 1.90234 199.44 2.13672C200.894 2.25391 202.241 2.63672 203.483 3.28516C204.687 3.90234 205.702 4.71875 206.53 5.73438C207.366 6.75781 207.956 7.90234 208.3 9.16797C208.659 10.4727 208.726 11.8164 208.499 13.1992C208.273 14.5898 207.776 15.8906 207.011 17.1016C206.261 18.2812 205.315 19.3047 204.175 20.1719ZM210.39 1.96094L217.972 1.76172L217.281 15.4961L224.429 15.0977L224.57 21.332L210.988 21.6484L210.39 1.96094ZM234.961 2.74609L242.309 2.83984L241.758 16.2227L248.238 16.4219L248.133 22.6562L234.527 22.7852L234.961 2.74609ZM259.446 9.32031C258.493 10.0391 257.922 10.9609 257.735 12.0859C257.555 13.2031 257.813 14.1914 258.508 15.0508C259.219 15.9023 260.16 16.3789 261.332 16.4805C262.512 16.5742 263.582 16.2578 264.543 15.5312C265.504 14.8125 266.078 13.8906 266.266 12.7656C266.446 11.6484 266.18 10.6602 265.469 9.80078C264.774 8.94141 263.836 8.46484 262.657 8.37109C261.485 8.27734 260.414 8.59375 259.446 9.32031ZM268.293 20.1719C265.879 21.9922 263.192 22.7852 260.231 22.5508C258.778 22.4336 257.43 22.0508 256.188 21.4023C255 20.7852 253.989 19.9688 253.153 18.9531C252.317 17.9297 251.723 16.7852 251.371 15.5195C251.012 14.207 250.946 12.8633 251.172 11.4883C251.399 10.0977 251.899 8.79688 252.672 7.58594C253.414 6.40625 254.356 5.38281 255.496 4.51562C257.91 2.69531 260.598 1.90234 263.559 2.13672C265.012 2.25391 266.36 2.63672 267.602 3.28516C268.805 3.90234 269.821 4.71875 270.649 5.73438C271.485 6.75781 272.075 7.90234 272.418 9.16797C272.778 10.4727 272.844 11.8164 272.618 13.1992C272.391 14.5898 271.895 15.8906 271.129 17.1016C270.379 18.2812 269.434 19.3047 268.293 20.1719ZM282.524 15.3438L285.255 15.4609L283.626 12.3555L282.524 15.3438ZM280.872 19.7617L279.688 22.9375L272.774 20.6406L282.934 0.683594L294.489 19.7383L289.274 23.1133L287.61 19.9258L280.872 19.7617ZM307.466 14.5117C308.083 13.9883 308.47 13.2383 308.626 12.2617C308.728 11.6758 308.696 11.0781 308.532 10.4688C308.384 9.9375 308.13 9.5 307.77 9.15625C307.333 8.75 306.739 8.50781 305.989 8.42969C305.106 8.33594 304.286 8.38672 303.528 8.58203L303.118 15.1094C303.915 15.3438 304.747 15.4023 305.614 15.2852C306.364 15.1836 306.981 14.9258 307.466 14.5117ZM315.118 10.7734C315.188 11.4062 315.204 11.9336 315.165 12.3555C315.134 15.3711 314.165 17.6836 312.259 19.293C310.728 20.5742 308.638 21.375 305.989 21.6953C304.091 21.9297 302.005 21.9102 299.731 21.6367C298.591 21.5039 297.645 21.3438 296.895 21.1562L297.024 2.44141C299.579 1.77734 302.368 1.53125 305.392 1.70312C309.782 1.91406 312.728 3.75391 314.228 7.22266C314.485 7.81641 314.692 8.44922 314.849 9.12109C314.974 9.65234 315.063 10.2031 315.118 10.7734ZM324.638 21.8945L318.193 21.8711L317.982 2.24219L325.142 2.38281L324.638 21.8945ZM328.556 22.5391L328.427 4.04688L340.029 10.75L339.466 2.64062L347.236 2.21875L347.892 22.3164L335.763 16.7266L335.986 22.5156L328.556 22.5391ZM370.432 9.625L370.771 19.3281C368.928 21.2266 366.654 22.3789 363.951 22.7852C362.404 23.0273 360.877 22.9805 359.369 22.6445C357.916 22.3242 356.584 21.7578 355.373 20.9453C354.162 20.1328 353.166 19.1445 352.385 17.9805C351.572 16.7617 351.049 15.4375 350.814 14.0078C350.588 12.5781 350.666 11.168 351.049 9.77734C351.424 8.42578 352.06 7.18359 352.959 6.05078C354.85 3.66016 357.373 2.22266 360.529 1.73828C362.1 1.48828 363.643 1.53516 365.158 1.87891C366.627 2.21484 367.971 2.79688 369.189 3.625L366.928 8.17188C365.865 7.61719 364.717 7.43359 363.482 7.62109C362.092 7.83203 360.975 8.44141 360.131 9.44922C359.295 10.457 358.975 11.5664 359.17 12.7773C359.365 13.9883 360.025 14.9453 361.15 15.6484C362.268 16.3516 363.521 16.6016 364.912 16.3984L364.924 16.3867L365.228 14.0547L362.088 14.0195L362.498 9.57812L370.432 9.625ZM395.565 15.5898L397.545 19.9727C396.397 20.7305 395.143 21.25 393.784 21.5312C392.37 21.8281 390.94 21.8438 389.495 21.5781C388.073 21.3125 386.756 20.8008 385.545 20.043C384.381 19.3008 383.401 18.3828 382.604 17.2891C381.799 16.1875 381.241 14.9922 380.928 13.7031C380.608 12.3672 380.573 11.0195 380.823 9.66016C381.073 8.30859 381.585 7.06641 382.358 5.93359C383.116 4.83984 384.061 3.92188 385.194 3.17969C387.608 1.60938 390.268 1.08984 393.174 1.62109C395.659 2.07422 397.729 3.22266 399.385 5.06641L396.397 8.95703C395.694 8.31641 394.862 7.90625 393.901 7.72656C392.62 7.49219 391.456 7.69922 390.409 8.34766C389.354 8.98828 388.721 9.88281 388.51 11.0312C388.299 12.1797 388.569 13.2422 389.319 14.2188C390.077 15.2031 391.092 15.8125 392.366 16.0469C393.506 16.2578 394.573 16.1055 395.565 15.5898ZM409.737 15.3438L412.468 15.4609L410.839 12.3555L409.737 15.3438ZM408.085 19.7617L406.901 22.9375L399.987 20.6406L410.147 0.683594L421.702 19.7383L416.487 23.1133L414.823 19.9258L408.085 19.7617ZM432.546 12.168C433.57 11.8398 434.12 11.0781 434.198 9.88281C434.238 9.21875 434.109 8.64453 433.812 8.16016C433.57 7.77734 433.222 7.46484 432.769 7.22266C432.253 6.94141 431.738 6.78125 431.222 6.74219L431.046 12.2852C431.538 12.3633 432.038 12.3242 432.546 12.168ZM423.98 22.3516L424.73 2.46484C427.378 2.14453 430.027 2.1875 432.675 2.59375C434.98 2.9375 436.788 3.57031 438.101 4.49219C439.734 5.64062 440.538 7.20703 440.515 9.19141C440.452 12.7852 439.046 15.2461 436.296 16.5742C435.304 17.0508 434.234 17.332 433.085 17.418C432.124 17.4883 431.382 17.4219 430.859 17.2188L430.73 22.2578L423.98 22.3516ZM442.359 8.125L442.136 2.38281L458.812 1.55078L459.023 7.10547L453.339 7.45703L453.738 21.8945L447.023 22.1523L446.953 7.84375L442.359 8.125ZM468.484 21.8945L462.039 21.8711L461.828 2.24219L468.988 2.38281L468.484 21.8945ZM480.184 9.32031C479.231 10.0391 478.66 10.9609 478.473 12.0859C478.293 13.2031 478.551 14.1914 479.246 15.0508C479.957 15.9023 480.899 16.3789 482.07 16.4805C483.25 16.5742 484.32 16.2578 485.281 15.5312C486.242 14.8125 486.817 13.8906 487.004 12.7656C487.184 11.6484 486.918 10.6602 486.207 9.80078C485.512 8.94141 484.574 8.46484 483.395 8.37109C482.223 8.27734 481.152 8.59375 480.184 9.32031ZM489.031 20.1719C486.617 21.9922 483.93 22.7852 480.969 22.5508C479.516 22.4336 478.168 22.0508 476.926 21.4023C475.738 20.7852 474.727 19.9688 473.891 18.9531C473.055 17.9297 472.461 16.7852 472.11 15.5195C471.75 14.207 471.684 12.8633 471.91 11.4883C472.137 10.0977 472.637 8.79688 473.41 7.58594C474.152 6.40625 475.094 5.38281 476.235 4.51562C478.649 2.69531 481.336 1.90234 484.297 2.13672C485.75 2.25391 487.098 2.63672 488.34 3.28516C489.543 3.90234 490.559 4.71875 491.387 5.73438C492.223 6.75781 492.813 7.90234 493.156 9.16797C493.516 10.4727 493.582 11.8164 493.356 13.1992C493.129 14.5898 492.633 15.8906 491.867 17.1016C491.117 18.2812 490.172 19.3047 489.031 20.1719ZM495.715 22.5391L495.586 4.04688L507.188 10.75L506.625 2.64062L514.395 2.21875L515.051 22.3164L502.922 16.7266L503.145 22.5156L495.715 22.5391Z" fill="white"/>
</svg>
