<svg width="32" height="32" viewBox="0 0 32 32" fill="none" xmlns="http://www.w3.org/2000/svg">
<path fill-rule="evenodd" clip-rule="evenodd" d="M9.74085 10.344L10.1982 14.4614L9.27285 14.5347C8.64558 14.5849 8.05323 14.8438 7.5904 15.2702C7.12756 15.6965 6.82095 16.2657 6.71951 16.8867C6.23738 19.8315 6.23738 22.8352 6.71951 25.78C6.82067 26.4013 7.12717 26.9708 7.59003 27.3974C8.05289 27.824 8.64539 28.0831 9.27285 28.1334L11.2675 28.2934C14.4168 28.544 17.5822 28.544 20.7315 28.2934L22.7262 28.1334C23.3534 28.0832 23.9458 27.8242 24.4086 27.3979C24.8715 26.9715 25.1781 26.4024 25.2795 25.7814C25.7617 22.8365 25.7617 19.8329 25.2795 16.888C25.1781 16.267 24.8715 15.6978 24.4086 15.2715C23.9458 14.8452 23.3534 14.5862 22.7262 14.536L21.8008 14.4627L22.2582 10.3454C22.3115 9.86016 22.3115 9.37057 22.2582 8.88536L22.2275 8.61203C22.0565 7.07987 21.3267 5.66451 20.1777 4.63662C19.0288 3.60872 17.5412 3.04044 15.9995 3.04044C14.4578 3.04044 12.9703 3.60872 11.8213 4.63662C10.6723 5.66451 9.94251 7.07987 9.77151 8.61203L9.74085 8.88536C9.68696 9.37054 9.68696 9.86019 9.74085 10.3454V10.344ZM16.4982 5.0667C15.9395 5.00101 15.3734 5.04645 14.8323 5.20039C14.2913 5.35433 13.786 5.61374 13.3456 5.96368C12.9052 6.31363 12.5384 6.74721 12.2662 7.23947C11.9939 7.73174 11.8218 8.27297 11.7595 8.83203L11.7288 9.10536C11.6912 9.44388 11.6912 9.78551 11.7288 10.124L12.1942 14.3094C14.7275 14.1467 17.2702 14.1467 19.8048 14.3094L20.2702 10.1227C20.3077 9.78462 20.3077 9.44344 20.2702 9.10536L20.2395 8.83203C20.1332 7.87384 19.7054 6.97992 19.026 6.29592C18.3466 5.61193 17.4556 5.17951 16.4982 5.0667ZM15.9995 19.3334C15.4691 19.3334 14.9604 19.5441 14.5853 19.9191C14.2102 20.2942 13.9995 20.8029 13.9995 21.3334C13.9995 21.8638 14.2102 22.3725 14.5853 22.7476C14.9604 23.1226 15.4691 23.3334 15.9995 23.3334C16.5299 23.3334 17.0387 23.1226 17.4137 22.7476C17.7888 22.3725 17.9995 21.8638 17.9995 21.3334C17.9995 20.8029 17.7888 20.2942 17.4137 19.9191C17.0387 19.5441 16.5299 19.3334 15.9995 19.3334Z" fill="white" fill-opacity="0.55"/>
</svg>
