<svg width="1238" height="62" viewBox="0 0 1238 62" fill="none" xmlns="http://www.w3.org/2000/svg">
<path opacity="0.89" d="M0.411235 19V2.2H2.37924L13.4912 16H12.4592V2.2H14.8592V19H12.8912L1.77924 5.2H2.81124V19H0.411235ZM22.8878 19.192C21.8958 19.192 20.9678 18.984 20.1038 18.568C19.2398 18.152 18.5358 17.552 17.9918 16.768L19.3838 15.136C19.8478 15.776 20.3678 16.272 20.9438 16.624C21.5358 16.96 22.1838 17.128 22.8878 17.128C24.8078 17.128 25.7678 15.992 25.7678 13.72V4.288H19.6958V2.2H28.1438V13.6C28.1438 15.472 27.6958 16.872 26.7998 17.8C25.9198 18.728 24.6158 19.192 22.8878 19.192ZM30.9769 19L38.5849 2.2H40.9609L48.5929 19H46.0729L39.2809 3.544H40.2409L33.4489 19H30.9769ZM34.2169 14.8L34.8649 12.88H44.3209L45.0169 14.8H34.2169ZM54.4313 19V4.288H48.6713V2.2H62.5673V4.288H56.8073V19H54.4313ZM78.0692 2.2H80.4692V19H78.0692V2.2ZM68.4212 19H66.0212V2.2H68.4212V19ZM78.2852 11.512H68.1812V9.424H78.2852V11.512ZM88.9538 23.656C88.0418 22.2 87.3378 20.52 86.8418 18.616C86.3458 16.696 86.0978 14.632 86.0978 12.424C86.0978 10.216 86.3458 8.152 86.8418 6.232C87.3378 4.296 88.0418 2.616 88.9538 1.192H91.1378C90.1778 2.888 89.4738 4.664 89.0258 6.52C88.5778 8.36 88.3538 10.328 88.3538 12.424C88.3538 14.52 88.5778 16.496 89.0258 18.352C89.4738 20.192 90.1778 21.96 91.1378 23.656H88.9538ZM95.2637 19V2.2H97.2317L108.344 16H107.312V2.2H109.712V19H107.744L96.6317 5.2H97.6637V19H95.2637ZM120.692 19.144C119.412 19.144 118.276 18.864 117.284 18.304C116.292 17.744 115.508 16.976 114.932 16C114.356 15.008 114.068 13.888 114.068 12.64C114.068 11.376 114.356 10.256 114.932 9.28C115.508 8.304 116.292 7.544 117.284 7C118.276 6.44 119.412 6.16 120.692 6.16C121.956 6.16 123.084 6.44 124.076 7C125.084 7.544 125.868 8.304 126.428 9.28C127.004 10.24 127.292 11.36 127.292 12.64C127.292 13.904 127.004 15.024 126.428 16C125.868 16.976 125.084 17.744 124.076 18.304C123.084 18.864 121.956 19.144 120.692 19.144ZM120.692 17.128C121.508 17.128 122.236 16.944 122.876 16.576C123.532 16.208 124.044 15.688 124.412 15.016C124.78 14.328 124.964 13.536 124.964 12.64C124.964 11.728 124.78 10.944 124.412 10.288C124.044 9.616 123.532 9.096 122.876 8.728C122.236 8.36 121.508 8.176 120.692 8.176C119.876 8.176 119.148 8.36 118.508 8.728C117.868 9.096 117.356 9.616 116.972 10.288C116.588 10.944 116.396 11.728 116.396 12.64C116.396 13.536 116.588 14.328 116.972 15.016C117.356 15.688 117.868 16.208 118.508 16.576C119.148 16.944 119.876 17.128 120.692 17.128ZM135.687 19.144C134.407 19.144 133.415 18.8 132.711 18.112C132.007 17.424 131.655 16.44 131.655 15.16V3.496H133.959V15.064C133.959 15.752 134.127 16.28 134.463 16.648C134.815 17.016 135.311 17.2 135.951 17.2C136.671 17.2 137.271 17 137.751 16.6L138.471 18.256C138.119 18.56 137.695 18.784 137.199 18.928C136.719 19.072 136.215 19.144 135.687 19.144ZM129.495 8.176V6.28H137.607V8.176H129.495ZM151.877 19.192C150.885 19.192 149.957 18.984 149.093 18.568C148.229 18.152 147.525 17.552 146.981 16.768L148.373 15.136C148.837 15.776 149.357 16.272 149.933 16.624C150.525 16.96 151.173 17.128 151.877 17.128C153.797 17.128 154.757 15.992 154.757 13.72V4.288H148.685V2.2H157.133V13.6C157.133 15.472 156.685 16.872 155.789 17.8C154.909 18.728 153.605 19.192 151.877 19.192ZM167.878 19.144C166.79 19.144 165.83 18.944 164.998 18.544C164.182 18.144 163.542 17.536 163.078 16.72C162.63 15.888 162.406 14.848 162.406 13.6V6.28H164.71V13.336C164.71 14.584 165.006 15.52 165.598 16.144C166.206 16.768 167.054 17.08 168.142 17.08C168.942 17.08 169.638 16.92 170.23 16.6C170.822 16.264 171.278 15.784 171.598 15.16C171.918 14.52 172.078 13.752 172.078 12.856V6.28H174.382V19H172.198V15.568L172.558 16.48C172.142 17.328 171.518 17.984 170.686 18.448C169.854 18.912 168.918 19.144 167.878 19.144ZM183.256 19.144C182.2 19.144 181.192 19 180.232 18.712C179.288 18.424 178.544 18.072 178 17.656L178.96 15.832C179.504 16.2 180.176 16.512 180.976 16.768C181.776 17.024 182.592 17.152 183.424 17.152C184.496 17.152 185.264 17 185.728 16.696C186.208 16.392 186.448 15.968 186.448 15.424C186.448 15.024 186.304 14.712 186.016 14.488C185.728 14.264 185.344 14.096 184.864 13.984C184.4 13.872 183.88 13.776 183.304 13.696C182.728 13.6 182.152 13.488 181.576 13.36C181 13.216 180.472 13.024 179.992 12.784C179.512 12.528 179.128 12.184 178.84 11.752C178.552 11.304 178.408 10.712 178.408 9.976C178.408 9.208 178.624 8.536 179.056 7.96C179.488 7.384 180.096 6.944 180.88 6.64C181.68 6.32 182.624 6.16 183.712 6.16C184.544 6.16 185.384 6.264 186.232 6.472C187.096 6.664 187.8 6.944 188.344 7.312L187.36 9.136C186.784 8.752 186.184 8.488 185.56 8.344C184.936 8.2 184.312 8.128 183.688 8.128C182.68 8.128 181.928 8.296 181.432 8.632C180.936 8.952 180.688 9.368 180.688 9.88C180.688 10.312 180.832 10.648 181.12 10.888C181.424 11.112 181.808 11.288 182.272 11.416C182.752 11.544 183.28 11.656 183.856 11.752C184.432 11.832 185.008 11.944 185.584 12.088C186.16 12.216 186.68 12.4 187.144 12.64C187.624 12.88 188.008 13.216 188.296 13.648C188.6 14.08 188.752 14.656 188.752 15.376C188.752 16.144 188.528 16.808 188.08 17.368C187.632 17.928 187 18.368 186.184 18.688C185.368 18.992 184.392 19.144 183.256 19.144ZM196.84 19.144C195.56 19.144 194.568 18.8 193.864 18.112C193.16 17.424 192.808 16.44 192.808 15.16V3.496H195.112V15.064C195.112 15.752 195.28 16.28 195.616 16.648C195.968 17.016 196.464 17.2 197.104 17.2C197.824 17.2 198.424 17 198.904 16.6L199.624 18.256C199.272 18.56 198.848 18.784 198.352 18.928C197.872 19.072 197.368 19.144 196.84 19.144ZM190.648 8.176V6.28H198.76V8.176H190.648ZM208.327 19L215.935 2.2H218.311L225.943 19H223.423L216.631 3.544H217.591L210.799 19H208.327ZM211.567 14.8L212.215 12.88H221.671L222.367 14.8H211.567ZM235.745 6.16C236.785 6.16 237.697 6.36 238.481 6.76C239.281 7.16 239.905 7.768 240.353 8.584C240.801 9.4 241.025 10.432 241.025 11.68V19H238.721V11.944C238.721 10.712 238.417 9.784 237.809 9.16C237.217 8.536 236.377 8.224 235.289 8.224C234.473 8.224 233.761 8.384 233.153 8.704C232.545 9.024 232.073 9.496 231.737 10.12C231.417 10.744 231.257 11.52 231.257 12.448V19H228.953V6.28H231.161V9.712L230.801 8.8C231.217 7.968 231.857 7.32 232.721 6.856C233.585 6.392 234.593 6.16 235.745 6.16ZM251.577 19.144C250.297 19.144 249.161 18.864 248.169 18.304C247.177 17.744 246.393 16.976 245.817 16C245.241 15.008 244.953 13.888 244.953 12.64C244.953 11.376 245.241 10.256 245.817 9.28C246.393 8.304 247.177 7.544 248.169 7C249.161 6.44 250.297 6.16 251.577 6.16C252.841 6.16 253.969 6.44 254.961 7C255.969 7.544 256.753 8.304 257.313 9.28C257.889 10.24 258.177 11.36 258.177 12.64C258.177 13.904 257.889 15.024 257.313 16C256.753 16.976 255.969 17.744 254.961 18.304C253.969 18.864 252.841 19.144 251.577 19.144ZM251.577 17.128C252.393 17.128 253.121 16.944 253.761 16.576C254.417 16.208 254.929 15.688 255.297 15.016C255.665 14.328 255.849 13.536 255.849 12.64C255.849 11.728 255.665 10.944 255.297 10.288C254.929 9.616 254.417 9.096 253.761 8.728C253.121 8.36 252.393 8.176 251.577 8.176C250.761 8.176 250.033 8.36 249.393 8.728C248.753 9.096 248.241 9.616 247.857 10.288C247.473 10.944 247.281 11.728 247.281 12.64C247.281 13.536 247.473 14.328 247.857 15.016C248.241 15.688 248.753 16.208 249.393 16.576C250.033 16.944 250.761 17.128 251.577 17.128ZM266.571 19.144C265.291 19.144 264.299 18.8 263.595 18.112C262.891 17.424 262.539 16.44 262.539 15.16V3.496H264.843V15.064C264.843 15.752 265.011 16.28 265.347 16.648C265.699 17.016 266.195 17.2 266.835 17.2C267.555 17.2 268.155 17 268.635 16.6L269.355 18.256C269.003 18.56 268.579 18.784 268.083 18.928C267.603 19.072 267.099 19.144 266.571 19.144ZM260.379 8.176V6.28H268.491V8.176H260.379ZM279.773 6.16C280.813 6.16 281.725 6.36 282.509 6.76C283.309 7.16 283.933 7.768 284.381 8.584C284.829 9.4 285.053 10.432 285.053 11.68V19H282.749V11.944C282.749 10.712 282.445 9.784 281.837 9.16C281.245 8.536 280.405 8.224 279.317 8.224C278.501 8.224 277.789 8.384 277.181 8.704C276.573 9.024 276.101 9.496 275.765 10.12C275.445 10.744 275.285 11.52 275.285 12.448V19H272.981V1.192H275.285V9.712L274.829 8.8C275.245 7.968 275.885 7.32 276.749 6.856C277.613 6.392 278.621 6.16 279.773 6.16ZM295.82 19.144C294.46 19.144 293.26 18.864 292.22 18.304C291.196 17.744 290.396 16.976 289.82 16C289.26 15.024 288.98 13.904 288.98 12.64C288.98 11.376 289.252 10.256 289.796 9.28C290.356 8.304 291.116 7.544 292.076 7C293.052 6.44 294.148 6.16 295.364 6.16C296.596 6.16 297.684 6.432 298.628 6.976C299.572 7.52 300.308 8.288 300.836 9.28C301.38 10.256 301.652 11.4 301.652 12.712C301.652 12.808 301.644 12.92 301.628 13.048C301.628 13.176 301.62 13.296 301.604 13.408H290.78V11.752H300.404L299.468 12.328C299.484 11.512 299.316 10.784 298.964 10.144C298.612 9.504 298.124 9.008 297.5 8.656C296.892 8.288 296.18 8.104 295.364 8.104C294.564 8.104 293.852 8.288 293.228 8.656C292.604 9.008 292.116 9.512 291.764 10.168C291.412 10.808 291.236 11.544 291.236 12.376V12.76C291.236 13.608 291.428 14.368 291.812 15.04C292.212 15.696 292.764 16.208 293.468 16.576C294.172 16.944 294.98 17.128 295.892 17.128C296.644 17.128 297.324 17 297.932 16.744C298.556 16.488 299.1 16.104 299.564 15.592L300.836 17.08C300.26 17.752 299.54 18.264 298.676 18.616C297.828 18.968 296.876 19.144 295.82 19.144ZM305.692 19V6.28H307.9V9.736L307.684 8.872C308.036 7.992 308.628 7.32 309.46 6.856C310.292 6.392 311.316 6.16 312.532 6.16V8.392C312.436 8.376 312.34 8.368 312.244 8.368C312.164 8.368 312.084 8.368 312.004 8.368C310.772 8.368 309.796 8.736 309.076 9.472C308.356 10.208 307.996 11.272 307.996 12.664V19H305.692ZM327.333 19V4.288H321.573V2.2H335.469V4.288H329.709V19H327.333ZM338.282 19V6.28H340.49V9.736L340.274 8.872C340.626 7.992 341.218 7.32 342.05 6.856C342.882 6.392 343.906 6.16 345.122 6.16V8.392C345.026 8.376 344.93 8.368 344.834 8.368C344.754 8.368 344.674 8.368 344.594 8.368C343.362 8.368 342.386 8.736 341.666 9.472C340.946 10.208 340.586 11.272 340.586 12.664V19H338.282ZM354.349 19.144C352.989 19.144 351.789 18.864 350.749 18.304C349.725 17.744 348.925 16.976 348.349 16C347.789 15.024 347.509 13.904 347.509 12.64C347.509 11.376 347.781 10.256 348.325 9.28C348.885 8.304 349.645 7.544 350.605 7C351.581 6.44 352.677 6.16 353.893 6.16C355.125 6.16 356.213 6.432 357.157 6.976C358.101 7.52 358.837 8.288 359.365 9.28C359.909 10.256 360.181 11.4 360.181 12.712C360.181 12.808 360.173 12.92 360.157 13.048C360.157 13.176 360.149 13.296 360.133 13.408H349.309V11.752H358.933L357.997 12.328C358.013 11.512 357.845 10.784 357.493 10.144C357.141 9.504 356.653 9.008 356.029 8.656C355.421 8.288 354.709 8.104 353.893 8.104C353.093 8.104 352.381 8.288 351.757 8.656C351.133 9.008 350.645 9.512 350.293 10.168C349.941 10.808 349.765 11.544 349.765 12.376V12.76C349.765 13.608 349.957 14.368 350.341 15.04C350.741 15.696 351.293 16.208 351.997 16.576C352.701 16.944 353.509 17.128 354.421 17.128C355.173 17.128 355.853 17 356.461 16.744C357.085 16.488 357.629 16.104 358.093 15.592L359.365 17.08C358.789 17.752 358.069 18.264 357.205 18.616C356.357 18.968 355.405 19.144 354.349 19.144ZM371.764 19V16.312L371.644 15.808V11.224C371.644 10.248 371.356 9.496 370.78 8.968C370.22 8.424 369.372 8.152 368.236 8.152C367.484 8.152 366.748 8.28 366.028 8.536C365.308 8.776 364.7 9.104 364.204 9.52L363.244 7.792C363.9 7.264 364.684 6.864 365.596 6.592C366.524 6.304 367.492 6.16 368.5 6.16C370.244 6.16 371.588 6.584 372.532 7.432C373.476 8.28 373.948 9.576 373.948 11.32V19H371.764ZM367.588 19.144C366.644 19.144 365.812 18.984 365.092 18.664C364.388 18.344 363.844 17.904 363.46 17.344C363.076 16.768 362.884 16.12 362.884 15.4C362.884 14.712 363.044 14.088 363.364 13.528C363.7 12.968 364.236 12.52 364.972 12.184C365.724 11.848 366.732 11.68 367.996 11.68H372.028V13.336H368.092C366.94 13.336 366.164 13.528 365.764 13.912C365.364 14.296 365.164 14.76 365.164 15.304C365.164 15.928 365.412 16.432 365.908 16.816C366.404 17.184 367.092 17.368 367.972 17.368C368.836 17.368 369.588 17.176 370.228 16.792C370.884 16.408 371.356 15.848 371.644 15.112L372.1 16.696C371.796 17.448 371.26 18.048 370.492 18.496C369.724 18.928 368.756 19.144 367.588 19.144ZM382.7 19.144C381.644 19.144 380.636 19 379.676 18.712C378.732 18.424 377.988 18.072 377.444 17.656L378.404 15.832C378.948 16.2 379.62 16.512 380.42 16.768C381.22 17.024 382.036 17.152 382.868 17.152C383.94 17.152 384.708 17 385.172 16.696C385.652 16.392 385.892 15.968 385.892 15.424C385.892 15.024 385.748 14.712 385.46 14.488C385.172 14.264 384.788 14.096 384.308 13.984C383.844 13.872 383.324 13.776 382.748 13.696C382.172 13.6 381.596 13.488 381.02 13.36C380.444 13.216 379.916 13.024 379.436 12.784C378.956 12.528 378.572 12.184 378.284 11.752C377.996 11.304 377.852 10.712 377.852 9.976C377.852 9.208 378.068 8.536 378.5 7.96C378.932 7.384 379.54 6.944 380.324 6.64C381.124 6.32 382.068 6.16 383.156 6.16C383.988 6.16 384.828 6.264 385.676 6.472C386.54 6.664 387.244 6.944 387.788 7.312L386.804 9.136C386.228 8.752 385.628 8.488 385.004 8.344C384.38 8.2 383.756 8.128 383.132 8.128C382.124 8.128 381.372 8.296 380.876 8.632C380.38 8.952 380.132 9.368 380.132 9.88C380.132 10.312 380.276 10.648 380.564 10.888C380.868 11.112 381.252 11.288 381.716 11.416C382.196 11.544 382.724 11.656 383.3 11.752C383.876 11.832 384.452 11.944 385.028 12.088C385.604 12.216 386.124 12.4 386.588 12.64C387.068 12.88 387.452 13.216 387.74 13.648C388.044 14.08 388.196 14.656 388.196 15.376C388.196 16.144 387.972 16.808 387.524 17.368C387.076 17.928 386.444 18.368 385.628 18.688C384.812 18.992 383.836 19.144 382.7 19.144ZM397.268 19.144C396.18 19.144 395.22 18.944 394.388 18.544C393.572 18.144 392.932 17.536 392.468 16.72C392.02 15.888 391.796 14.848 391.796 13.6V6.28H394.1V13.336C394.1 14.584 394.396 15.52 394.988 16.144C395.596 16.768 396.444 17.08 397.532 17.08C398.332 17.08 399.028 16.92 399.62 16.6C400.212 16.264 400.668 15.784 400.988 15.16C401.308 14.52 401.468 13.752 401.468 12.856V6.28H403.772V19H401.588V15.568L401.948 16.48C401.532 17.328 400.908 17.984 400.076 18.448C399.244 18.912 398.308 19.144 397.268 19.144ZM408.998 19V6.28H411.206V9.736L410.99 8.872C411.342 7.992 411.934 7.32 412.766 6.856C413.598 6.392 414.622 6.16 415.838 6.16V8.392C415.742 8.376 415.646 8.368 415.55 8.368C415.47 8.368 415.39 8.368 415.31 8.368C414.078 8.368 413.102 8.736 412.382 9.472C411.662 10.208 411.302 11.272 411.302 12.664V19H408.998ZM425.064 19.144C423.704 19.144 422.504 18.864 421.464 18.304C420.44 17.744 419.64 16.976 419.064 16C418.504 15.024 418.224 13.904 418.224 12.64C418.224 11.376 418.496 10.256 419.04 9.28C419.6 8.304 420.36 7.544 421.32 7C422.296 6.44 423.392 6.16 424.608 6.16C425.84 6.16 426.928 6.432 427.872 6.976C428.816 7.52 429.552 8.288 430.08 9.28C430.624 10.256 430.896 11.4 430.896 12.712C430.896 12.808 430.888 12.92 430.872 13.048C430.872 13.176 430.864 13.296 430.848 13.408H420.024V11.752H429.648L428.712 12.328C428.728 11.512 428.56 10.784 428.208 10.144C427.856 9.504 427.368 9.008 426.744 8.656C426.136 8.288 425.424 8.104 424.608 8.104C423.808 8.104 423.096 8.288 422.472 8.656C421.848 9.008 421.36 9.512 421.008 10.168C420.656 10.808 420.48 11.544 420.48 12.376V12.76C420.48 13.608 420.672 14.368 421.056 15.04C421.456 15.696 422.008 16.208 422.712 16.576C423.416 16.944 424.224 17.128 425.136 17.128C425.888 17.128 426.568 17 427.176 16.744C427.8 16.488 428.344 16.104 428.808 15.592L430.08 17.08C429.504 17.752 428.784 18.264 427.92 18.616C427.072 18.968 426.12 19.144 425.064 19.144ZM454.605 2.2H457.005V19H454.605V2.2ZM444.957 19H442.557V2.2H444.957V19ZM454.821 11.512H444.717V9.424H454.821V11.512ZM467.889 19.144C466.801 19.144 465.841 18.944 465.009 18.544C464.193 18.144 463.553 17.536 463.089 16.72C462.641 15.888 462.417 14.848 462.417 13.6V6.28H464.721V13.336C464.721 14.584 465.017 15.52 465.609 16.144C466.217 16.768 467.065 17.08 468.153 17.08C468.953 17.08 469.649 16.92 470.241 16.6C470.833 16.264 471.289 15.784 471.609 15.16C471.929 14.52 472.089 13.752 472.089 12.856V6.28H474.393V19H472.209V15.568L472.569 16.48C472.153 17.328 471.529 17.984 470.697 18.448C469.865 18.912 468.929 19.144 467.889 19.144ZM486.412 6.16C487.452 6.16 488.364 6.36 489.148 6.76C489.948 7.16 490.572 7.768 491.02 8.584C491.468 9.4 491.692 10.432 491.692 11.68V19H489.388V11.944C489.388 10.712 489.084 9.784 488.476 9.16C487.884 8.536 487.044 8.224 485.956 8.224C485.14 8.224 484.428 8.384 483.82 8.704C483.212 9.024 482.74 9.496 482.404 10.12C482.084 10.744 481.924 11.52 481.924 12.448V19H479.62V6.28H481.828V9.712L481.468 8.8C481.884 7.968 482.524 7.32 483.388 6.856C484.252 6.392 485.26 6.16 486.412 6.16ZM501.164 19.144C499.884 19.144 498.892 18.8 498.188 18.112C497.484 17.424 497.132 16.44 497.132 15.16V3.496H499.436V15.064C499.436 15.752 499.604 16.28 499.94 16.648C500.292 17.016 500.788 17.2 501.428 17.2C502.148 17.2 502.748 17 503.228 16.6L503.948 18.256C503.596 18.56 503.172 18.784 502.676 18.928C502.196 19.072 501.692 19.144 501.164 19.144ZM494.972 8.176V6.28H503.084V8.176H494.972ZM508.341 23.656H506.157C507.133 21.96 507.845 20.192 508.293 18.352C508.741 16.496 508.965 14.52 508.965 12.424C508.965 10.328 508.741 8.36 508.293 6.52C507.845 4.664 507.133 2.888 506.157 1.192H508.341C509.285 2.616 509.997 4.296 510.477 6.232C510.973 8.152 511.221 10.216 511.221 12.424C511.221 14.632 510.973 16.696 510.477 18.616C509.997 20.52 509.285 22.2 508.341 23.656ZM523.808 19V6.28H526.112V19H523.808ZM524.96 3.832C524.512 3.832 524.136 3.688 523.832 3.4C523.544 3.112 523.4 2.76 523.4 2.344C523.4 1.912 523.544 1.552 523.832 1.264C524.136 0.975999 524.512 0.831999 524.96 0.831999C525.408 0.831999 525.776 0.975999 526.064 1.264C526.368 1.536 526.52 1.88 526.52 2.296C526.52 2.728 526.376 3.096 526.088 3.4C525.8 3.688 525.424 3.832 524.96 3.832ZM534.999 19.144C533.943 19.144 532.935 19 531.975 18.712C531.031 18.424 530.287 18.072 529.743 17.656L530.703 15.832C531.247 16.2 531.919 16.512 532.719 16.768C533.519 17.024 534.335 17.152 535.167 17.152C536.239 17.152 537.007 17 537.471 16.696C537.951 16.392 538.191 15.968 538.191 15.424C538.191 15.024 538.047 14.712 537.759 14.488C537.471 14.264 537.087 14.096 536.607 13.984C536.143 13.872 535.623 13.776 535.047 13.696C534.471 13.6 533.895 13.488 533.319 13.36C532.743 13.216 532.215 13.024 531.735 12.784C531.255 12.528 530.871 12.184 530.583 11.752C530.295 11.304 530.151 10.712 530.151 9.976C530.151 9.208 530.367 8.536 530.799 7.96C531.231 7.384 531.839 6.944 532.623 6.64C533.423 6.32 534.367 6.16 535.455 6.16C536.287 6.16 537.127 6.264 537.975 6.472C538.839 6.664 539.543 6.944 540.087 7.312L539.103 9.136C538.527 8.752 537.927 8.488 537.303 8.344C536.679 8.2 536.055 8.128 535.431 8.128C534.423 8.128 533.671 8.296 533.175 8.632C532.679 8.952 532.431 9.368 532.431 9.88C532.431 10.312 532.575 10.648 532.863 10.888C533.167 11.112 533.551 11.288 534.015 11.416C534.495 11.544 535.023 11.656 535.599 11.752C536.175 11.832 536.751 11.944 537.327 12.088C537.903 12.216 538.423 12.4 538.887 12.64C539.367 12.88 539.751 13.216 540.039 13.648C540.343 14.08 540.495 14.656 540.495 15.376C540.495 16.144 540.271 16.808 539.823 17.368C539.375 17.928 538.743 18.368 537.927 18.688C537.111 18.992 536.135 19.144 534.999 19.144ZM559.396 19V16.312L559.276 15.808V11.224C559.276 10.248 558.988 9.496 558.412 8.968C557.852 8.424 557.004 8.152 555.868 8.152C555.116 8.152 554.38 8.28 553.66 8.536C552.94 8.776 552.332 9.104 551.836 9.52L550.876 7.792C551.532 7.264 552.316 6.864 553.228 6.592C554.156 6.304 555.124 6.16 556.132 6.16C557.876 6.16 559.22 6.584 560.164 7.432C561.108 8.28 561.58 9.576 561.58 11.32V19H559.396ZM555.22 19.144C554.276 19.144 553.444 18.984 552.724 18.664C552.02 18.344 551.476 17.904 551.092 17.344C550.708 16.768 550.516 16.12 550.516 15.4C550.516 14.712 550.676 14.088 550.996 13.528C551.332 12.968 551.868 12.52 552.604 12.184C553.356 11.848 554.364 11.68 555.628 11.68H559.66V13.336H555.724C554.572 13.336 553.796 13.528 553.396 13.912C552.996 14.296 552.796 14.76 552.796 15.304C552.796 15.928 553.044 16.432 553.54 16.816C554.036 17.184 554.724 17.368 555.604 17.368C556.468 17.368 557.22 17.176 557.86 16.792C558.516 16.408 558.988 15.848 559.276 15.112L559.732 16.696C559.428 17.448 558.892 18.048 558.124 18.496C557.356 18.928 556.388 19.144 555.22 19.144ZM579.201 19.192C577.921 19.192 576.697 19 575.529 18.616C574.361 18.216 573.441 17.704 572.769 17.08L573.657 15.208C574.297 15.768 575.113 16.232 576.105 16.6C577.097 16.968 578.129 17.152 579.201 17.152C580.177 17.152 580.969 17.04 581.577 16.816C582.185 16.592 582.633 16.288 582.921 15.904C583.209 15.504 583.353 15.056 583.353 14.56C583.353 13.984 583.161 13.52 582.777 13.168C582.409 12.816 581.921 12.536 581.313 12.328C580.721 12.104 580.065 11.912 579.345 11.752C578.625 11.592 577.897 11.408 577.161 11.2C576.441 10.976 575.777 10.696 575.169 10.36C574.577 10.024 574.097 9.576 573.729 9.016C573.361 8.44 573.177 7.704 573.177 6.808C573.177 5.944 573.401 5.152 573.849 4.432C574.313 3.696 575.017 3.112 575.961 2.68C576.921 2.232 578.137 2.008 579.609 2.008C580.585 2.008 581.553 2.136 582.513 2.392C583.473 2.648 584.305 3.016 585.009 3.496L584.217 5.416C583.497 4.936 582.737 4.592 581.937 4.384C581.137 4.16 580.361 4.048 579.609 4.048C578.665 4.048 577.889 4.168 577.281 4.408C576.673 4.648 576.225 4.968 575.937 5.368C575.665 5.768 575.529 6.216 575.529 6.712C575.529 7.304 575.713 7.776 576.081 8.128C576.465 8.48 576.953 8.76 577.545 8.968C578.153 9.176 578.817 9.368 579.537 9.544C580.257 9.704 580.977 9.888 581.697 10.096C582.433 10.304 583.097 10.576 583.689 10.912C584.297 11.248 584.785 11.696 585.153 12.256C585.521 12.816 585.705 13.536 585.705 14.416C585.705 15.264 585.473 16.056 585.009 16.792C584.545 17.512 583.825 18.096 582.849 18.544C581.889 18.976 580.673 19.192 579.201 19.192ZM595.163 19.144C593.883 19.144 592.747 18.864 591.755 18.304C590.763 17.744 589.979 16.976 589.403 16C588.827 15.008 588.539 13.888 588.539 12.64C588.539 11.376 588.827 10.256 589.403 9.28C589.979 8.304 590.763 7.544 591.755 7C592.747 6.44 593.883 6.16 595.163 6.16C596.427 6.16 597.555 6.44 598.547 7C599.555 7.544 600.339 8.304 600.899 9.28C601.475 10.24 601.763 11.36 601.763 12.64C601.763 13.904 601.475 15.024 600.899 16C600.339 16.976 599.555 17.744 598.547 18.304C597.555 18.864 596.427 19.144 595.163 19.144ZM595.163 17.128C595.979 17.128 596.707 16.944 597.347 16.576C598.003 16.208 598.515 15.688 598.883 15.016C599.251 14.328 599.435 13.536 599.435 12.64C599.435 11.728 599.251 10.944 598.883 10.288C598.515 9.616 598.003 9.096 597.347 8.728C596.707 8.36 595.979 8.176 595.163 8.176C594.347 8.176 593.619 8.36 592.979 8.728C592.339 9.096 591.827 9.616 591.443 10.288C591.059 10.944 590.867 11.728 590.867 12.64C590.867 13.536 591.059 14.328 591.443 15.016C591.827 15.688 592.339 16.208 592.979 16.576C593.619 16.944 594.347 17.128 595.163 17.128ZM605.789 19V1.192H608.093V19H605.789ZM618.78 19.144C617.5 19.144 616.364 18.864 615.372 18.304C614.38 17.744 613.596 16.976 613.02 16C612.444 15.008 612.156 13.888 612.156 12.64C612.156 11.376 612.444 10.256 613.02 9.28C613.596 8.304 614.38 7.544 615.372 7C616.364 6.44 617.5 6.16 618.78 6.16C620.044 6.16 621.172 6.44 622.164 7C623.172 7.544 623.956 8.304 624.516 9.28C625.092 10.24 625.38 11.36 625.38 12.64C625.38 13.904 625.092 15.024 624.516 16C623.956 16.976 623.172 17.744 622.164 18.304C621.172 18.864 620.044 19.144 618.78 19.144ZM618.78 17.128C619.596 17.128 620.324 16.944 620.964 16.576C621.62 16.208 622.132 15.688 622.5 15.016C622.868 14.328 623.052 13.536 623.052 12.64C623.052 11.728 622.868 10.944 622.5 10.288C622.132 9.616 621.62 9.096 620.964 8.728C620.324 8.36 619.596 8.176 618.78 8.176C617.964 8.176 617.236 8.36 616.596 8.728C615.956 9.096 615.444 9.616 615.06 10.288C614.676 10.944 614.484 11.728 614.484 12.64C614.484 13.536 614.676 14.328 615.06 15.016C615.444 15.688 615.956 16.208 616.596 16.576C617.236 16.944 617.964 17.128 618.78 17.128ZM644.612 19.192C643.332 19.192 642.14 18.976 641.036 18.544C639.948 18.112 639.004 17.512 638.204 16.744C637.404 15.96 636.78 15.048 636.332 14.008C635.884 12.968 635.66 11.832 635.66 10.6C635.66 9.368 635.884 8.232 636.332 7.192C636.78 6.152 637.404 5.248 638.204 4.48C639.004 3.696 639.948 3.088 641.036 2.656C642.124 2.224 643.316 2.008 644.612 2.008C645.892 2.008 647.068 2.224 648.14 2.656C649.228 3.072 650.172 3.672 650.972 4.456C651.788 5.224 652.412 6.128 652.844 7.168C653.292 8.208 653.516 9.352 653.516 10.6C653.516 11.848 653.292 12.992 652.844 14.032C652.412 15.072 651.788 15.984 650.972 16.768C650.172 17.536 649.228 18.136 648.14 18.568C647.068 18.984 645.892 19.192 644.612 19.192ZM644.612 17.056C645.54 17.056 646.396 16.896 647.18 16.576C647.98 16.256 648.668 15.808 649.244 15.232C649.836 14.64 650.292 13.952 650.612 13.168C650.948 12.384 651.116 11.528 651.116 10.6C651.116 9.672 650.948 8.816 650.612 8.032C650.292 7.248 649.836 6.568 649.244 5.992C648.668 5.4 647.98 4.944 647.18 4.624C646.396 4.304 645.54 4.144 644.612 4.144C643.668 4.144 642.796 4.304 641.996 4.624C641.212 4.944 640.524 5.4 639.932 5.992C639.34 6.568 638.876 7.248 638.54 8.032C638.22 8.816 638.06 9.672 638.06 10.6C638.06 11.528 638.22 12.384 638.54 13.168C638.876 13.952 639.34 14.64 639.932 15.232C640.524 15.808 641.212 16.256 641.996 16.576C642.796 16.896 643.668 17.056 644.612 17.056ZM664.48 6.16C665.52 6.16 666.432 6.36 667.216 6.76C668.016 7.16 668.64 7.768 669.088 8.584C669.536 9.4 669.76 10.432 669.76 11.68V19H667.456V11.944C667.456 10.712 667.152 9.784 666.544 9.16C665.952 8.536 665.112 8.224 664.024 8.224C663.208 8.224 662.496 8.384 661.888 8.704C661.28 9.024 660.808 9.496 660.472 10.12C660.152 10.744 659.992 11.52 659.992 12.448V19H657.688V6.28H659.896V9.712L659.536 8.8C659.952 7.968 660.592 7.32 661.456 6.856C662.32 6.392 663.328 6.16 664.48 6.16ZM674.864 19V1.192H677.168V19H674.864ZM682.407 19V6.28H684.711V19H682.407ZM683.559 3.832C683.111 3.832 682.735 3.688 682.431 3.4C682.143 3.112 681.999 2.76 681.999 2.344C681.999 1.912 682.143 1.552 682.431 1.264C682.735 0.975999 683.111 0.831999 683.559 0.831999C684.007 0.831999 684.375 0.975999 684.663 1.264C684.967 1.536 685.119 1.88 685.119 2.296C685.119 2.728 684.975 3.096 684.687 3.4C684.399 3.688 684.023 3.832 683.559 3.832ZM696.743 6.16C697.783 6.16 698.695 6.36 699.479 6.76C700.279 7.16 700.903 7.768 701.351 8.584C701.799 9.4 702.023 10.432 702.023 11.68V19H699.719V11.944C699.719 10.712 699.415 9.784 698.807 9.16C698.215 8.536 697.375 8.224 696.287 8.224C695.471 8.224 694.759 8.384 694.151 8.704C693.543 9.024 693.071 9.496 692.735 10.12C692.415 10.744 692.255 11.52 692.255 12.448V19H689.951V6.28H692.159V9.712L691.799 8.8C692.215 7.968 692.855 7.32 693.719 6.856C694.583 6.392 695.591 6.16 696.743 6.16ZM712.791 19.144C711.431 19.144 710.231 18.864 709.191 18.304C708.167 17.744 707.367 16.976 706.791 16C706.231 15.024 705.951 13.904 705.951 12.64C705.951 11.376 706.223 10.256 706.767 9.28C707.327 8.304 708.087 7.544 709.047 7C710.023 6.44 711.119 6.16 712.335 6.16C713.567 6.16 714.655 6.432 715.599 6.976C716.543 7.52 717.279 8.288 717.807 9.28C718.351 10.256 718.623 11.4 718.623 12.712C718.623 12.808 718.615 12.92 718.599 13.048C718.599 13.176 718.591 13.296 718.575 13.408H707.751V11.752H717.375L716.439 12.328C716.455 11.512 716.287 10.784 715.935 10.144C715.583 9.504 715.095 9.008 714.471 8.656C713.863 8.288 713.151 8.104 712.335 8.104C711.535 8.104 710.823 8.288 710.199 8.656C709.575 9.008 709.087 9.512 708.735 10.168C708.383 10.808 708.207 11.544 708.207 12.376V12.76C708.207 13.608 708.399 14.368 708.783 15.04C709.183 15.696 709.735 16.208 710.439 16.576C711.143 16.944 711.951 17.128 712.863 17.128C713.615 17.128 714.295 17 714.903 16.744C715.527 16.488 716.071 16.104 716.535 15.592L717.807 17.08C717.231 17.752 716.511 18.264 715.647 18.616C714.799 18.968 713.847 19.144 712.791 19.144ZM733.619 19V4.288H727.859V2.2H741.755V4.288H735.995V19H733.619ZM744.568 19V6.28H746.776V9.736L746.56 8.872C746.912 7.992 747.504 7.32 748.336 6.856C749.168 6.392 750.192 6.16 751.408 6.16V8.392C751.312 8.376 751.216 8.368 751.12 8.368C751.04 8.368 750.96 8.368 750.88 8.368C749.648 8.368 748.672 8.736 747.952 9.472C747.232 10.208 746.872 11.272 746.872 12.664V19H744.568ZM760.635 19.144C759.275 19.144 758.075 18.864 757.035 18.304C756.011 17.744 755.211 16.976 754.635 16C754.075 15.024 753.795 13.904 753.795 12.64C753.795 11.376 754.067 10.256 754.611 9.28C755.171 8.304 755.931 7.544 756.891 7C757.867 6.44 758.963 6.16 760.179 6.16C761.411 6.16 762.499 6.432 763.443 6.976C764.387 7.52 765.123 8.288 765.651 9.28C766.195 10.256 766.467 11.4 766.467 12.712C766.467 12.808 766.459 12.92 766.443 13.048C766.443 13.176 766.435 13.296 766.419 13.408H755.595V11.752H765.219L764.283 12.328C764.299 11.512 764.131 10.784 763.779 10.144C763.427 9.504 762.939 9.008 762.315 8.656C761.707 8.288 760.995 8.104 760.179 8.104C759.379 8.104 758.667 8.288 758.043 8.656C757.419 9.008 756.931 9.512 756.579 10.168C756.227 10.808 756.051 11.544 756.051 12.376V12.76C756.051 13.608 756.243 14.368 756.627 15.04C757.027 15.696 757.579 16.208 758.283 16.576C758.987 16.944 759.795 17.128 760.707 17.128C761.459 17.128 762.139 17 762.747 16.744C763.371 16.488 763.915 16.104 764.379 15.592L765.651 17.08C765.075 17.752 764.355 18.264 763.491 18.616C762.643 18.968 761.691 19.144 760.635 19.144ZM778.051 19V16.312L777.931 15.808V11.224C777.931 10.248 777.643 9.496 777.067 8.968C776.507 8.424 775.659 8.152 774.523 8.152C773.771 8.152 773.035 8.28 772.315 8.536C771.595 8.776 770.987 9.104 770.491 9.52L769.531 7.792C770.187 7.264 770.971 6.864 771.883 6.592C772.811 6.304 773.779 6.16 774.787 6.16C776.531 6.16 777.875 6.584 778.819 7.432C779.763 8.28 780.235 9.576 780.235 11.32V19H778.051ZM773.875 19.144C772.931 19.144 772.099 18.984 771.379 18.664C770.675 18.344 770.131 17.904 769.747 17.344C769.363 16.768 769.171 16.12 769.171 15.4C769.171 14.712 769.331 14.088 769.651 13.528C769.987 12.968 770.523 12.52 771.259 12.184C772.011 11.848 773.019 11.68 774.283 11.68H778.315V13.336H774.379C773.227 13.336 772.451 13.528 772.051 13.912C771.651 14.296 771.451 14.76 771.451 15.304C771.451 15.928 771.699 16.432 772.195 16.816C772.691 17.184 773.379 17.368 774.259 17.368C775.123 17.368 775.875 17.176 776.515 16.792C777.171 16.408 777.643 15.848 777.931 15.112L778.387 16.696C778.083 17.448 777.547 18.048 776.779 18.496C776.011 18.928 775.043 19.144 773.875 19.144ZM788.986 19.144C787.93 19.144 786.922 19 785.962 18.712C785.018 18.424 784.274 18.072 783.73 17.656L784.69 15.832C785.234 16.2 785.906 16.512 786.706 16.768C787.506 17.024 788.322 17.152 789.154 17.152C790.226 17.152 790.994 17 791.458 16.696C791.938 16.392 792.178 15.968 792.178 15.424C792.178 15.024 792.034 14.712 791.746 14.488C791.458 14.264 791.074 14.096 790.594 13.984C790.13 13.872 789.61 13.776 789.034 13.696C788.458 13.6 787.882 13.488 787.306 13.36C786.73 13.216 786.202 13.024 785.722 12.784C785.242 12.528 784.858 12.184 784.57 11.752C784.282 11.304 784.138 10.712 784.138 9.976C784.138 9.208 784.354 8.536 784.786 7.96C785.218 7.384 785.826 6.944 786.61 6.64C787.41 6.32 788.354 6.16 789.442 6.16C790.274 6.16 791.114 6.264 791.962 6.472C792.826 6.664 793.53 6.944 794.074 7.312L793.09 9.136C792.514 8.752 791.914 8.488 791.29 8.344C790.666 8.2 790.042 8.128 789.418 8.128C788.41 8.128 787.658 8.296 787.162 8.632C786.666 8.952 786.418 9.368 786.418 9.88C786.418 10.312 786.562 10.648 786.85 10.888C787.154 11.112 787.538 11.288 788.002 11.416C788.482 11.544 789.01 11.656 789.586 11.752C790.162 11.832 790.738 11.944 791.314 12.088C791.89 12.216 792.41 12.4 792.874 12.64C793.354 12.88 793.738 13.216 794.026 13.648C794.33 14.08 794.482 14.656 794.482 15.376C794.482 16.144 794.258 16.808 793.81 17.368C793.362 17.928 792.73 18.368 791.914 18.688C791.098 18.992 790.122 19.144 788.986 19.144ZM803.554 19.144C802.466 19.144 801.506 18.944 800.674 18.544C799.858 18.144 799.218 17.536 798.754 16.72C798.306 15.888 798.082 14.848 798.082 13.6V6.28H800.386V13.336C800.386 14.584 800.682 15.52 801.274 16.144C801.882 16.768 802.73 17.08 803.818 17.08C804.618 17.08 805.314 16.92 805.906 16.6C806.498 16.264 806.954 15.784 807.274 15.16C807.594 14.52 807.754 13.752 807.754 12.856V6.28H810.058V19H807.874V15.568L808.234 16.48C807.818 17.328 807.194 17.984 806.362 18.448C805.53 18.912 804.594 19.144 803.554 19.144ZM815.284 19V6.28H817.492V9.736L817.276 8.872C817.628 7.992 818.22 7.32 819.052 6.856C819.884 6.392 820.908 6.16 822.124 6.16V8.392C822.028 8.376 821.932 8.368 821.836 8.368C821.756 8.368 821.676 8.368 821.596 8.368C820.364 8.368 819.388 8.736 818.668 9.472C817.948 10.208 817.588 11.272 817.588 12.664V19H815.284ZM831.351 19.144C829.991 19.144 828.791 18.864 827.751 18.304C826.727 17.744 825.927 16.976 825.351 16C824.791 15.024 824.511 13.904 824.511 12.64C824.511 11.376 824.783 10.256 825.327 9.28C825.887 8.304 826.647 7.544 827.607 7C828.583 6.44 829.679 6.16 830.895 6.16C832.127 6.16 833.215 6.432 834.159 6.976C835.103 7.52 835.839 8.288 836.367 9.28C836.911 10.256 837.183 11.4 837.183 12.712C837.183 12.808 837.175 12.92 837.159 13.048C837.159 13.176 837.151 13.296 837.135 13.408H826.311V11.752H835.935L834.999 12.328C835.015 11.512 834.847 10.784 834.495 10.144C834.143 9.504 833.655 9.008 833.031 8.656C832.423 8.288 831.711 8.104 830.895 8.104C830.095 8.104 829.383 8.288 828.759 8.656C828.135 9.008 827.647 9.512 827.295 10.168C826.943 10.808 826.767 11.544 826.767 12.376V12.76C826.767 13.608 826.959 14.368 827.343 15.04C827.743 15.696 828.295 16.208 828.999 16.576C829.703 16.944 830.511 17.128 831.423 17.128C832.175 17.128 832.855 17 833.463 16.744C834.087 16.488 834.631 16.104 835.095 15.592L836.367 17.08C835.791 17.752 835.071 18.264 834.207 18.616C833.359 18.968 832.407 19.144 831.351 19.144ZM860.891 2.2H863.291V19H860.891V2.2ZM851.243 19H848.843V2.2H851.243V19ZM861.107 11.512H851.003V9.424H861.107V11.512ZM874.176 19.144C873.088 19.144 872.128 18.944 871.296 18.544C870.48 18.144 869.84 17.536 869.376 16.72C868.928 15.888 868.704 14.848 868.704 13.6V6.28H871.008V13.336C871.008 14.584 871.304 15.52 871.896 16.144C872.504 16.768 873.352 17.08 874.44 17.08C875.24 17.08 875.936 16.92 876.528 16.6C877.12 16.264 877.576 15.784 877.896 15.16C878.216 14.52 878.376 13.752 878.376 12.856V6.28H880.68V19H878.496V15.568L878.856 16.48C878.44 17.328 877.816 17.984 876.984 18.448C876.152 18.912 875.216 19.144 874.176 19.144ZM892.698 6.16C893.738 6.16 894.65 6.36 895.434 6.76C896.234 7.16 896.858 7.768 897.306 8.584C897.754 9.4 897.978 10.432 897.978 11.68V19H895.674V11.944C895.674 10.712 895.37 9.784 894.762 9.16C894.17 8.536 893.33 8.224 892.242 8.224C891.426 8.224 890.714 8.384 890.106 8.704C889.498 9.024 889.026 9.496 888.69 10.12C888.37 10.744 888.21 11.52 888.21 12.448V19H885.906V6.28H888.114V9.712L887.754 8.8C888.17 7.968 888.81 7.32 889.674 6.856C890.538 6.392 891.546 6.16 892.698 6.16ZM907.45 19.144C906.17 19.144 905.178 18.8 904.474 18.112C903.77 17.424 903.418 16.44 903.418 15.16V3.496H905.722V15.064C905.722 15.752 905.89 16.28 906.226 16.648C906.578 17.016 907.074 17.2 907.714 17.2C908.434 17.2 909.034 17 909.514 16.6L910.234 18.256C909.882 18.56 909.458 18.784 908.962 18.928C908.482 19.072 907.978 19.144 907.45 19.144ZM901.258 8.176V6.28H909.37V8.176H901.258ZM926.689 19.144C925.393 19.144 924.233 18.864 923.209 18.304C922.201 17.744 921.409 16.976 920.833 16C920.257 15.024 919.969 13.904 919.969 12.64C919.969 11.376 920.257 10.256 920.833 9.28C921.409 8.304 922.201 7.544 923.209 7C924.233 6.44 925.393 6.16 926.689 6.16C927.841 6.16 928.865 6.392 929.761 6.856C930.673 7.304 931.377 7.976 931.873 8.872L930.121 10C929.705 9.376 929.193 8.92 928.585 8.632C927.993 8.328 927.353 8.176 926.665 8.176C925.833 8.176 925.089 8.36 924.433 8.728C923.777 9.096 923.257 9.616 922.873 10.288C922.489 10.944 922.297 11.728 922.297 12.64C922.297 13.552 922.489 14.344 922.873 15.016C923.257 15.688 923.777 16.208 924.433 16.576C925.089 16.944 925.833 17.128 926.665 17.128C927.353 17.128 927.993 16.984 928.585 16.696C929.193 16.392 929.705 15.928 930.121 15.304L931.873 16.408C931.377 17.288 930.673 17.968 929.761 18.448C928.865 18.912 927.841 19.144 926.689 19.144ZM940.956 19.144C939.676 19.144 938.54 18.864 937.548 18.304C936.556 17.744 935.772 16.976 935.196 16C934.62 15.008 934.332 13.888 934.332 12.64C934.332 11.376 934.62 10.256 935.196 9.28C935.772 8.304 936.556 7.544 937.548 7C938.54 6.44 939.676 6.16 940.956 6.16C942.22 6.16 943.348 6.44 944.34 7C945.348 7.544 946.132 8.304 946.692 9.28C947.268 10.24 947.556 11.36 947.556 12.64C947.556 13.904 947.268 15.024 946.692 16C946.132 16.976 945.348 17.744 944.34 18.304C943.348 18.864 942.22 19.144 940.956 19.144ZM940.956 17.128C941.772 17.128 942.5 16.944 943.14 16.576C943.796 16.208 944.308 15.688 944.676 15.016C945.044 14.328 945.228 13.536 945.228 12.64C945.228 11.728 945.044 10.944 944.676 10.288C944.308 9.616 943.796 9.096 943.14 8.728C942.5 8.36 941.772 8.176 940.956 8.176C940.14 8.176 939.412 8.36 938.772 8.728C938.132 9.096 937.62 9.616 937.236 10.288C936.852 10.944 936.66 11.728 936.66 12.64C936.66 13.536 936.852 14.328 937.236 15.016C937.62 15.688 938.132 16.208 938.772 16.576C939.412 16.944 940.14 17.128 940.956 17.128ZM958.374 6.16C959.414 6.16 960.326 6.36 961.11 6.76C961.91 7.16 962.534 7.768 962.982 8.584C963.43 9.4 963.654 10.432 963.654 11.68V19H961.35V11.944C961.35 10.712 961.046 9.784 960.438 9.16C959.846 8.536 959.006 8.224 957.918 8.224C957.102 8.224 956.39 8.384 955.782 8.704C955.174 9.024 954.702 9.496 954.366 10.12C954.046 10.744 953.886 11.52 953.886 12.448V19H951.582V6.28H953.79V9.712L953.43 8.8C953.846 7.968 954.486 7.32 955.35 6.856C956.214 6.392 957.222 6.16 958.374 6.16ZM973.126 19.144C971.846 19.144 970.854 18.8 970.15 18.112C969.446 17.424 969.094 16.44 969.094 15.16V3.496H971.398V15.064C971.398 15.752 971.566 16.28 971.902 16.648C972.254 17.016 972.75 17.2 973.39 17.2C974.11 17.2 974.71 17 975.19 16.6L975.91 18.256C975.558 18.56 975.134 18.784 974.638 18.928C974.158 19.072 973.654 19.144 973.126 19.144ZM966.934 8.176V6.28H975.046V8.176H966.934ZM984.778 19.144C983.418 19.144 982.218 18.864 981.178 18.304C980.154 17.744 979.354 16.976 978.778 16C978.218 15.024 977.938 13.904 977.938 12.64C977.938 11.376 978.21 10.256 978.754 9.28C979.314 8.304 980.074 7.544 981.034 7C982.01 6.44 983.106 6.16 984.322 6.16C985.554 6.16 986.642 6.432 987.586 6.976C988.53 7.52 989.266 8.288 989.794 9.28C990.338 10.256 990.61 11.4 990.61 12.712C990.61 12.808 990.602 12.92 990.586 13.048C990.586 13.176 990.578 13.296 990.562 13.408H979.738V11.752H989.362L988.426 12.328C988.442 11.512 988.274 10.784 987.922 10.144C987.57 9.504 987.082 9.008 986.458 8.656C985.85 8.288 985.138 8.104 984.322 8.104C983.522 8.104 982.81 8.288 982.186 8.656C981.562 9.008 981.074 9.512 980.722 10.168C980.37 10.808 980.194 11.544 980.194 12.376V12.76C980.194 13.608 980.386 14.368 980.77 15.04C981.17 15.696 981.722 16.208 982.426 16.576C983.13 16.944 983.938 17.128 984.85 17.128C985.602 17.128 986.282 17 986.89 16.744C987.514 16.488 988.058 16.104 988.522 15.592L989.794 17.08C989.218 17.752 988.498 18.264 987.634 18.616C986.786 18.968 985.834 19.144 984.778 19.144ZM998.297 19.144C997.241 19.144 996.233 19 995.273 18.712C994.329 18.424 993.585 18.072 993.041 17.656L994.001 15.832C994.545 16.2 995.217 16.512 996.017 16.768C996.817 17.024 997.633 17.152 998.465 17.152C999.537 17.152 1000.31 17 1000.77 16.696C1001.25 16.392 1001.49 15.968 1001.49 15.424C1001.49 15.024 1001.35 14.712 1001.06 14.488C1000.77 14.264 1000.39 14.096 999.905 13.984C999.441 13.872 998.921 13.776 998.345 13.696C997.769 13.6 997.193 13.488 996.617 13.36C996.041 13.216 995.513 13.024 995.033 12.784C994.553 12.528 994.169 12.184 993.881 11.752C993.593 11.304 993.449 10.712 993.449 9.976C993.449 9.208 993.665 8.536 994.097 7.96C994.529 7.384 995.137 6.944 995.921 6.64C996.721 6.32 997.665 6.16 998.753 6.16C999.585 6.16 1000.43 6.264 1001.27 6.472C1002.14 6.664 1002.84 6.944 1003.39 7.312L1002.4 9.136C1001.83 8.752 1001.23 8.488 1000.6 8.344C999.977 8.2 999.353 8.128 998.729 8.128C997.721 8.128 996.969 8.296 996.473 8.632C995.977 8.952 995.729 9.368 995.729 9.88C995.729 10.312 995.873 10.648 996.161 10.888C996.465 11.112 996.849 11.288 997.313 11.416C997.793 11.544 998.321 11.656 998.897 11.752C999.473 11.832 1000.05 11.944 1000.63 12.088C1001.2 12.216 1001.72 12.4 1002.19 12.64C1002.67 12.88 1003.05 13.216 1003.34 13.648C1003.64 14.08 1003.79 14.656 1003.79 15.376C1003.79 16.144 1003.57 16.808 1003.12 17.368C1002.67 17.928 1002.04 18.368 1001.23 18.688C1000.41 18.992 999.433 19.144 998.297 19.144ZM1011.88 19.144C1010.6 19.144 1009.61 18.8 1008.9 18.112C1008.2 17.424 1007.85 16.44 1007.85 15.16V3.496H1010.15V15.064C1010.15 15.752 1010.32 16.28 1010.66 16.648C1011.01 17.016 1011.5 17.2 1012.14 17.2C1012.86 17.2 1013.46 17 1013.94 16.6L1014.66 18.256C1014.31 18.56 1013.89 18.784 1013.39 18.928C1012.91 19.072 1012.41 19.144 1011.88 19.144ZM1005.69 8.176V6.28H1013.8V8.176H1005.69ZM1028.26 19L1023.54 6.28H1025.72L1029.92 17.8H1028.89L1033.26 6.28H1035.2L1039.47 17.8H1038.46L1042.76 6.28H1044.82L1040.07 19H1037.86L1033.86 8.488H1034.53L1030.47 19H1028.26ZM1054.79 6.16C1055.83 6.16 1056.75 6.36 1057.53 6.76C1058.33 7.16 1058.95 7.768 1059.4 8.584C1059.85 9.4 1060.07 10.432 1060.07 11.68V19H1057.77V11.944C1057.77 10.712 1057.47 9.784 1056.86 9.16C1056.27 8.536 1055.43 8.224 1054.34 8.224C1053.52 8.224 1052.81 8.384 1052.2 8.704C1051.59 9.024 1051.12 9.496 1050.79 10.12C1050.47 10.744 1050.31 11.52 1050.31 12.448V19H1048V1.192H1050.31V9.712L1049.85 8.8C1050.27 7.968 1050.91 7.32 1051.77 6.856C1052.63 6.392 1053.64 6.16 1054.79 6.16ZM1070.84 19.144C1069.48 19.144 1068.28 18.864 1067.24 18.304C1066.22 17.744 1065.42 16.976 1064.84 16C1064.28 15.024 1064 13.904 1064 12.64C1064 11.376 1064.27 10.256 1064.82 9.28C1065.38 8.304 1066.14 7.544 1067.1 7C1068.07 6.44 1069.17 6.16 1070.39 6.16C1071.62 6.16 1072.71 6.432 1073.65 6.976C1074.59 7.52 1075.33 8.288 1075.86 9.28C1076.4 10.256 1076.67 11.4 1076.67 12.712C1076.67 12.808 1076.67 12.92 1076.65 13.048C1076.65 13.176 1076.64 13.296 1076.63 13.408H1065.8V11.752H1075.43L1074.49 12.328C1074.51 11.512 1074.34 10.784 1073.99 10.144C1073.63 9.504 1073.15 9.008 1072.52 8.656C1071.91 8.288 1071.2 8.104 1070.39 8.104C1069.59 8.104 1068.87 8.288 1068.25 8.656C1067.63 9.008 1067.14 9.512 1066.79 10.168C1066.43 10.808 1066.26 11.544 1066.26 12.376V12.76C1066.26 13.608 1066.45 14.368 1066.83 15.04C1067.23 15.696 1067.79 16.208 1068.49 16.576C1069.19 16.944 1070 17.128 1070.91 17.128C1071.67 17.128 1072.35 17 1072.95 16.744C1073.58 16.488 1074.12 16.104 1074.59 15.592L1075.86 17.08C1075.28 17.752 1074.56 18.264 1073.7 18.616C1072.85 18.968 1071.9 19.144 1070.84 19.144ZM1080.71 19V6.28H1082.92V9.736L1082.7 8.872C1083.06 7.992 1083.65 7.32 1084.48 6.856C1085.31 6.392 1086.34 6.16 1087.55 6.16V8.392C1087.46 8.376 1087.36 8.368 1087.26 8.368C1087.18 8.368 1087.1 8.368 1087.02 8.368C1085.79 8.368 1084.82 8.736 1084.1 9.472C1083.38 10.208 1083.02 11.272 1083.02 12.664V19H1080.71ZM1096.78 19.144C1095.42 19.144 1094.22 18.864 1093.18 18.304C1092.16 17.744 1091.36 16.976 1090.78 16C1090.22 15.024 1089.94 13.904 1089.94 12.64C1089.94 11.376 1090.21 10.256 1090.76 9.28C1091.32 8.304 1092.08 7.544 1093.04 7C1094.01 6.44 1095.11 6.16 1096.32 6.16C1097.56 6.16 1098.64 6.432 1099.59 6.976C1100.53 7.52 1101.27 8.288 1101.8 9.28C1102.34 10.256 1102.61 11.4 1102.61 12.712C1102.61 12.808 1102.6 12.92 1102.59 13.048C1102.59 13.176 1102.58 13.296 1102.56 13.408H1091.74V11.752H1101.36L1100.43 12.328C1100.44 11.512 1100.28 10.784 1099.92 10.144C1099.57 9.504 1099.08 9.008 1098.46 8.656C1097.85 8.288 1097.14 8.104 1096.32 8.104C1095.52 8.104 1094.81 8.288 1094.19 8.656C1093.56 9.008 1093.08 9.512 1092.72 10.168C1092.37 10.808 1092.2 11.544 1092.2 12.376V12.76C1092.2 13.608 1092.39 14.368 1092.77 15.04C1093.17 15.696 1093.72 16.208 1094.43 16.576C1095.13 16.944 1095.94 17.128 1096.85 17.128C1097.6 17.128 1098.28 17 1098.89 16.744C1099.52 16.488 1100.06 16.104 1100.52 15.592L1101.8 17.08C1101.22 17.752 1100.5 18.264 1099.64 18.616C1098.79 18.968 1097.84 19.144 1096.78 19.144ZM1114.49 23.8C1113.88 23.8 1113.29 23.696 1112.71 23.488C1112.14 23.296 1111.64 23.008 1111.22 22.624L1112.21 20.896C1112.53 21.2 1112.88 21.432 1113.26 21.592C1113.65 21.752 1114.06 21.832 1114.49 21.832C1115.05 21.832 1115.51 21.688 1115.88 21.4C1116.25 21.112 1116.59 20.6 1116.91 19.864L1117.7 18.112L1117.94 17.824L1122.94 6.28H1125.19L1119.02 20.272C1118.66 21.168 1118.24 21.872 1117.78 22.384C1117.33 22.896 1116.83 23.256 1116.29 23.464C1115.74 23.688 1115.14 23.8 1114.49 23.8ZM1117.51 19.408L1111.7 6.28H1114.1L1119.05 17.608L1117.51 19.408ZM1133.28 19.144C1132 19.144 1130.86 18.864 1129.87 18.304C1128.88 17.744 1128.09 16.976 1127.52 16C1126.94 15.008 1126.65 13.888 1126.65 12.64C1126.65 11.376 1126.94 10.256 1127.52 9.28C1128.09 8.304 1128.88 7.544 1129.87 7C1130.86 6.44 1132 6.16 1133.28 6.16C1134.54 6.16 1135.67 6.44 1136.66 7C1137.67 7.544 1138.45 8.304 1139.01 9.28C1139.59 10.24 1139.88 11.36 1139.88 12.64C1139.88 13.904 1139.59 15.024 1139.01 16C1138.45 16.976 1137.67 17.744 1136.66 18.304C1135.67 18.864 1134.54 19.144 1133.28 19.144ZM1133.28 17.128C1134.09 17.128 1134.82 16.944 1135.46 16.576C1136.12 16.208 1136.63 15.688 1137 15.016C1137.37 14.328 1137.55 13.536 1137.55 12.64C1137.55 11.728 1137.37 10.944 1137 10.288C1136.63 9.616 1136.12 9.096 1135.46 8.728C1134.82 8.36 1134.09 8.176 1133.28 8.176C1132.46 8.176 1131.73 8.36 1131.09 8.728C1130.45 9.096 1129.94 9.616 1129.56 10.288C1129.17 10.944 1128.98 11.728 1128.98 12.64C1128.98 13.536 1129.17 14.328 1129.56 15.016C1129.94 15.688 1130.45 16.208 1131.09 16.576C1131.73 16.944 1132.46 17.128 1133.28 17.128ZM1149.26 19.144C1148.17 19.144 1147.21 18.944 1146.38 18.544C1145.56 18.144 1144.92 17.536 1144.46 16.72C1144.01 15.888 1143.78 14.848 1143.78 13.6V6.28H1146.09V13.336C1146.09 14.584 1146.38 15.52 1146.98 16.144C1147.58 16.768 1148.43 17.08 1149.52 17.08C1150.32 17.08 1151.02 16.92 1151.61 16.6C1152.2 16.264 1152.66 15.784 1152.98 15.16C1153.3 14.52 1153.46 13.752 1153.46 12.856V6.28H1155.76V19H1153.58V15.568L1153.94 16.48C1153.52 17.328 1152.9 17.984 1152.06 18.448C1151.23 18.912 1150.3 19.144 1149.26 19.144ZM1173.84 23.8C1172.67 23.8 1171.54 23.632 1170.43 23.296C1169.34 22.976 1168.46 22.512 1167.77 21.904L1168.87 20.128C1169.46 20.64 1170.19 21.04 1171.06 21.328C1171.92 21.632 1172.82 21.784 1173.77 21.784C1175.27 21.784 1176.38 21.432 1177.08 20.728C1177.78 20.024 1178.14 18.952 1178.14 17.512V14.824L1178.38 12.304L1178.26 9.76V6.28H1180.44V17.272C1180.44 19.512 1179.88 21.16 1178.76 22.216C1177.64 23.272 1176 23.8 1173.84 23.8ZM1173.55 18.472C1172.32 18.472 1171.22 18.216 1170.24 17.704C1169.28 17.176 1168.51 16.448 1167.94 15.52C1167.38 14.592 1167.1 13.52 1167.1 12.304C1167.1 11.072 1167.38 10 1167.94 9.088C1168.51 8.16 1169.28 7.44 1170.24 6.928C1171.22 6.416 1172.32 6.16 1173.55 6.16C1174.64 6.16 1175.63 6.384 1176.53 6.832C1177.42 7.264 1178.14 7.936 1178.66 8.848C1179.21 9.76 1179.48 10.912 1179.48 12.304C1179.48 13.68 1179.21 14.824 1178.66 15.736C1178.14 16.648 1177.42 17.336 1176.53 17.8C1175.63 18.248 1174.64 18.472 1173.55 18.472ZM1173.82 16.456C1174.66 16.456 1175.42 16.28 1176.07 15.928C1176.73 15.576 1177.24 15.088 1177.61 14.464C1177.99 13.84 1178.18 13.12 1178.18 12.304C1178.18 11.488 1177.99 10.768 1177.61 10.144C1177.24 9.52 1176.73 9.04 1176.07 8.704C1175.42 8.352 1174.66 8.176 1173.82 8.176C1172.97 8.176 1172.21 8.352 1171.54 8.704C1170.88 9.04 1170.36 9.52 1169.98 10.144C1169.61 10.768 1169.42 11.488 1169.42 12.304C1169.42 13.12 1169.61 13.84 1169.98 14.464C1170.36 15.088 1170.88 15.576 1171.54 15.928C1172.21 16.28 1172.97 16.456 1173.82 16.456ZM1191.13 19.144C1189.85 19.144 1188.71 18.864 1187.72 18.304C1186.73 17.744 1185.95 16.976 1185.37 16C1184.79 15.008 1184.51 13.888 1184.51 12.64C1184.51 11.376 1184.79 10.256 1185.37 9.28C1185.95 8.304 1186.73 7.544 1187.72 7C1188.71 6.44 1189.85 6.16 1191.13 6.16C1192.39 6.16 1193.52 6.44 1194.51 7C1195.52 7.544 1196.31 8.304 1196.87 9.28C1197.44 10.24 1197.73 11.36 1197.73 12.64C1197.73 13.904 1197.44 15.024 1196.87 16C1196.31 16.976 1195.52 17.744 1194.51 18.304C1193.52 18.864 1192.39 19.144 1191.13 19.144ZM1191.13 17.128C1191.95 17.128 1192.67 16.944 1193.31 16.576C1193.97 16.208 1194.48 15.688 1194.85 15.016C1195.22 14.328 1195.4 13.536 1195.4 12.64C1195.4 11.728 1195.22 10.944 1194.85 10.288C1194.48 9.616 1193.97 9.096 1193.31 8.728C1192.67 8.36 1191.95 8.176 1191.13 8.176C1190.31 8.176 1189.59 8.36 1188.95 8.728C1188.31 9.096 1187.79 9.616 1187.41 10.288C1187.03 10.944 1186.83 11.728 1186.83 12.64C1186.83 13.536 1187.03 14.328 1187.41 15.016C1187.79 15.688 1188.31 16.208 1188.95 16.576C1189.59 16.944 1190.31 17.128 1191.13 17.128ZM1214.49 19.144C1213.21 19.144 1212.07 18.864 1211.08 18.304C1210.09 17.744 1209.31 16.976 1208.73 16C1208.15 15.008 1207.87 13.888 1207.87 12.64C1207.87 11.376 1208.15 10.256 1208.73 9.28C1209.31 8.304 1210.09 7.544 1211.08 7C1212.07 6.44 1213.21 6.16 1214.49 6.16C1215.75 6.16 1216.88 6.44 1217.87 7C1218.88 7.544 1219.67 8.304 1220.23 9.28C1220.8 10.24 1221.09 11.36 1221.09 12.64C1221.09 13.904 1220.8 15.024 1220.23 16C1219.67 16.976 1218.88 17.744 1217.87 18.304C1216.88 18.864 1215.75 19.144 1214.49 19.144ZM1214.49 17.128C1215.31 17.128 1216.03 16.944 1216.67 16.576C1217.33 16.208 1217.84 15.688 1218.21 15.016C1218.58 14.328 1218.76 13.536 1218.76 12.64C1218.76 11.728 1218.58 10.944 1218.21 10.288C1217.84 9.616 1217.33 9.096 1216.67 8.728C1216.03 8.36 1215.31 8.176 1214.49 8.176C1213.67 8.176 1212.95 8.36 1212.31 8.728C1211.67 9.096 1211.15 9.616 1210.77 10.288C1210.39 10.944 1210.19 11.728 1210.19 12.64C1210.19 13.536 1210.39 14.328 1210.77 15.016C1211.15 15.688 1211.67 16.208 1212.31 16.576C1212.95 16.944 1213.67 17.128 1214.49 17.128ZM1231.91 6.16C1232.95 6.16 1233.86 6.36 1234.64 6.76C1235.44 7.16 1236.07 7.768 1236.52 8.584C1236.96 9.4 1237.19 10.432 1237.19 11.68V19H1234.88V11.944C1234.88 10.712 1234.58 9.784 1233.97 9.16C1233.38 8.536 1232.54 8.224 1231.45 8.224C1230.64 8.224 1229.92 8.384 1229.32 8.704C1228.71 9.024 1228.24 9.496 1227.9 10.12C1227.58 10.744 1227.42 11.52 1227.42 12.448V19H1225.12V6.28H1227.32V9.712L1226.96 8.8C1227.38 7.968 1228.02 7.32 1228.88 6.856C1229.75 6.392 1230.76 6.16 1231.91 6.16ZM292.001 57.144C290.721 57.144 289.729 56.8 289.025 56.112C288.321 55.424 287.969 54.44 287.969 53.16V41.496H290.273V53.064C290.273 53.752 290.441 54.28 290.777 54.648C291.129 55.016 291.625 55.2 292.265 55.2C292.985 55.2 293.585 55 294.065 54.6L294.785 56.256C294.433 56.56 294.009 56.784 293.513 56.928C293.033 57.072 292.529 57.144 292.001 57.144ZM285.809 46.176V44.28H293.921V46.176H285.809ZM306.307 57V54.312L306.187 53.808V49.224C306.187 48.248 305.899 47.496 305.323 46.968C304.763 46.424 303.915 46.152 302.779 46.152C302.027 46.152 301.291 46.28 300.571 46.536C299.851 46.776 299.243 47.104 298.747 47.52L297.787 45.792C298.443 45.264 299.227 44.864 300.139 44.592C301.067 44.304 302.035 44.16 303.043 44.16C304.787 44.16 306.131 44.584 307.075 45.432C308.019 46.28 308.491 47.576 308.491 49.32V57H306.307ZM302.131 57.144C301.187 57.144 300.355 56.984 299.635 56.664C298.931 56.344 298.387 55.904 298.003 55.344C297.619 54.768 297.427 54.12 297.427 53.4C297.427 52.712 297.587 52.088 297.907 51.528C298.243 50.968 298.779 50.52 299.515 50.184C300.267 49.848 301.275 49.68 302.539 49.68H306.571V51.336H302.635C301.483 51.336 300.707 51.528 300.307 51.912C299.907 52.296 299.707 52.76 299.707 53.304C299.707 53.928 299.955 54.432 300.451 54.816C300.947 55.184 301.635 55.368 302.515 55.368C303.379 55.368 304.131 55.176 304.771 54.792C305.427 54.408 305.899 53.848 306.187 53.112L306.643 54.696C306.339 55.448 305.803 56.048 305.035 56.496C304.267 56.928 303.299 57.144 302.131 57.144ZM319.138 57.144C317.842 57.144 316.682 56.864 315.658 56.304C314.65 55.744 313.858 54.976 313.282 54C312.706 53.024 312.418 51.904 312.418 50.64C312.418 49.376 312.706 48.256 313.282 47.28C313.858 46.304 314.65 45.544 315.658 45C316.682 44.44 317.842 44.16 319.138 44.16C320.29 44.16 321.314 44.392 322.21 44.856C323.122 45.304 323.826 45.976 324.322 46.872L322.57 48C322.154 47.376 321.642 46.92 321.034 46.632C320.442 46.328 319.802 46.176 319.114 46.176C318.282 46.176 317.538 46.36 316.882 46.728C316.226 47.096 315.706 47.616 315.322 48.288C314.938 48.944 314.746 49.728 314.746 50.64C314.746 51.552 314.938 52.344 315.322 53.016C315.706 53.688 316.226 54.208 316.882 54.576C317.538 54.944 318.282 55.128 319.114 55.128C319.802 55.128 320.442 54.984 321.034 54.696C321.642 54.392 322.154 53.928 322.57 53.304L324.322 54.408C323.826 55.288 323.122 55.968 322.21 56.448C321.314 56.912 320.29 57.144 319.138 57.144ZM329.853 53.928L329.901 50.976L337.221 44.28H340.005L334.389 49.8L333.141 50.856L329.853 53.928ZM327.981 57V39.192H330.285V57H327.981ZM337.701 57L332.709 50.808L334.197 48.96L340.533 57H337.701ZM343.61 57V39.192H345.914V57H343.61ZM351.154 57V44.28H353.458V57H351.154ZM352.306 41.832C351.858 41.832 351.482 41.688 351.178 41.4C350.89 41.112 350.746 40.76 350.746 40.344C350.746 39.912 350.89 39.552 351.178 39.264C351.482 38.976 351.858 38.832 352.306 38.832C352.754 38.832 353.122 38.976 353.41 39.264C353.714 39.536 353.866 39.88 353.866 40.296C353.866 40.728 353.722 41.096 353.434 41.4C353.146 41.688 352.77 41.832 352.306 41.832ZM365.489 44.16C366.529 44.16 367.441 44.36 368.225 44.76C369.025 45.16 369.649 45.768 370.097 46.584C370.545 47.4 370.769 48.432 370.769 49.68V57H368.465V49.944C368.465 48.712 368.161 47.784 367.553 47.16C366.961 46.536 366.121 46.224 365.033 46.224C364.217 46.224 363.505 46.384 362.897 46.704C362.289 47.024 361.817 47.496 361.481 48.12C361.161 48.744 361.001 49.52 361.001 50.448V57H358.697V44.28H360.905V47.712L360.545 46.8C360.961 45.968 361.601 45.32 362.465 44.856C363.329 44.392 364.337 44.16 365.489 44.16ZM381.441 61.8C380.273 61.8 379.137 61.632 378.033 61.296C376.945 60.976 376.057 60.512 375.369 59.904L376.473 58.128C377.065 58.64 377.793 59.04 378.657 59.328C379.521 59.632 380.425 59.784 381.369 59.784C382.873 59.784 383.977 59.432 384.681 58.728C385.385 58.024 385.737 56.952 385.737 55.512V52.824L385.977 50.304L385.857 47.76V44.28H388.041V55.272C388.041 57.512 387.481 59.16 386.361 60.216C385.241 61.272 383.601 61.8 381.441 61.8ZM381.153 56.472C379.921 56.472 378.817 56.216 377.841 55.704C376.881 55.176 376.113 54.448 375.537 53.52C374.977 52.592 374.697 51.52 374.697 50.304C374.697 49.072 374.977 48 375.537 47.088C376.113 46.16 376.881 45.44 377.841 44.928C378.817 44.416 379.921 44.16 381.153 44.16C382.241 44.16 383.233 44.384 384.129 44.832C385.025 45.264 385.737 45.936 386.265 46.848C386.809 47.76 387.081 48.912 387.081 50.304C387.081 51.68 386.809 52.824 386.265 53.736C385.737 54.648 385.025 55.336 384.129 55.8C383.233 56.248 382.241 56.472 381.153 56.472ZM381.417 54.456C382.265 54.456 383.017 54.28 383.673 53.928C384.329 53.576 384.841 53.088 385.209 52.464C385.593 51.84 385.785 51.12 385.785 50.304C385.785 49.488 385.593 48.768 385.209 48.144C384.841 47.52 384.329 47.04 383.673 46.704C383.017 46.352 382.265 46.176 381.417 46.176C380.569 46.176 379.809 46.352 379.137 46.704C378.481 47.04 377.961 47.52 377.577 48.144C377.209 48.768 377.025 49.488 377.025 50.304C377.025 51.12 377.209 51.84 377.577 52.464C377.961 53.088 378.481 53.576 379.137 53.928C379.809 54.28 380.569 54.456 381.417 54.456ZM405.824 57.144C404.592 57.144 403.488 56.872 402.512 56.328C401.552 55.784 400.792 55.024 400.232 54.048C399.672 53.072 399.392 51.936 399.392 50.64C399.392 49.344 399.672 48.216 400.232 47.256C400.792 46.28 401.552 45.52 402.512 44.976C403.488 44.432 404.592 44.16 405.824 44.16C406.928 44.16 407.912 44.4 408.776 44.88C409.64 45.36 410.32 46.08 410.816 47.04C411.328 48 411.584 49.2 411.584 50.64C411.584 52.08 411.32 53.28 410.792 54.24C410.28 55.2 409.592 55.928 408.728 56.424C407.864 56.904 406.896 57.144 405.824 57.144ZM406.016 55.128C406.816 55.128 407.536 54.944 408.176 54.576C408.832 54.208 409.344 53.688 409.712 53.016C410.096 52.328 410.288 51.536 410.288 50.64C410.288 49.728 410.096 48.944 409.712 48.288C409.344 47.616 408.832 47.096 408.176 46.728C407.536 46.36 406.816 46.176 406.016 46.176C405.2 46.176 404.472 46.36 403.832 46.728C403.192 47.096 402.68 47.616 402.296 48.288C401.912 48.944 401.72 49.728 401.72 50.64C401.72 51.536 401.912 52.328 402.296 53.016C402.68 53.688 403.192 54.208 403.832 54.576C404.472 54.944 405.2 55.128 406.016 55.128ZM410.264 61.656V53.616L410.504 50.664L410.36 47.712V44.28H412.568V61.656H410.264ZM423.12 57.144C422.032 57.144 421.072 56.944 420.24 56.544C419.424 56.144 418.784 55.536 418.32 54.72C417.872 53.888 417.648 52.848 417.648 51.6V44.28H419.952V51.336C419.952 52.584 420.248 53.52 420.84 54.144C421.448 54.768 422.296 55.08 423.384 55.08C424.184 55.08 424.88 54.92 425.472 54.6C426.064 54.264 426.52 53.784 426.84 53.16C427.16 52.52 427.32 51.752 427.32 50.856V44.28H429.624V57H427.44V53.568L427.8 54.48C427.384 55.328 426.76 55.984 425.928 56.448C425.096 56.912 424.16 57.144 423.12 57.144ZM440.514 57.144C439.154 57.144 437.954 56.864 436.914 56.304C435.89 55.744 435.09 54.976 434.514 54C433.954 53.024 433.674 51.904 433.674 50.64C433.674 49.376 433.946 48.256 434.49 47.28C435.05 46.304 435.81 45.544 436.77 45C437.746 44.44 438.842 44.16 440.058 44.16C441.29 44.16 442.378 44.432 443.322 44.976C444.266 45.52 445.002 46.288 445.53 47.28C446.074 48.256 446.346 49.4 446.346 50.712C446.346 50.808 446.338 50.92 446.322 51.048C446.322 51.176 446.314 51.296 446.298 51.408H435.474V49.752H445.098L444.162 50.328C444.178 49.512 444.01 48.784 443.658 48.144C443.306 47.504 442.818 47.008 442.194 46.656C441.586 46.288 440.874 46.104 440.058 46.104C439.258 46.104 438.546 46.288 437.922 46.656C437.298 47.008 436.81 47.512 436.458 48.168C436.106 48.808 435.93 49.544 435.93 50.376V50.76C435.93 51.608 436.122 52.368 436.506 53.04C436.906 53.696 437.458 54.208 438.162 54.576C438.866 54.944 439.674 55.128 440.586 55.128C441.338 55.128 442.018 55 442.626 54.744C443.25 54.488 443.794 54.104 444.258 53.592L445.53 55.08C444.954 55.752 444.234 56.264 443.37 56.616C442.522 56.968 441.57 57.144 440.514 57.144ZM454.033 57.144C452.977 57.144 451.969 57 451.009 56.712C450.065 56.424 449.321 56.072 448.777 55.656L449.737 53.832C450.281 54.2 450.953 54.512 451.753 54.768C452.553 55.024 453.369 55.152 454.201 55.152C455.273 55.152 456.041 55 456.505 54.696C456.985 54.392 457.225 53.968 457.225 53.424C457.225 53.024 457.081 52.712 456.793 52.488C456.505 52.264 456.121 52.096 455.641 51.984C455.177 51.872 454.657 51.776 454.081 51.696C453.505 51.6 452.929 51.488 452.353 51.36C451.777 51.216 451.249 51.024 450.769 50.784C450.289 50.528 449.905 50.184 449.617 49.752C449.329 49.304 449.185 48.712 449.185 47.976C449.185 47.208 449.401 46.536 449.833 45.96C450.265 45.384 450.873 44.944 451.657 44.64C452.457 44.32 453.401 44.16 454.489 44.16C455.321 44.16 456.161 44.264 457.009 44.472C457.873 44.664 458.577 44.944 459.121 45.312L458.137 47.136C457.561 46.752 456.961 46.488 456.337 46.344C455.713 46.2 455.089 46.128 454.465 46.128C453.457 46.128 452.705 46.296 452.209 46.632C451.713 46.952 451.465 47.368 451.465 47.88C451.465 48.312 451.609 48.648 451.897 48.888C452.201 49.112 452.585 49.288 453.049 49.416C453.529 49.544 454.057 49.656 454.633 49.752C455.209 49.832 455.785 49.944 456.361 50.088C456.937 50.216 457.457 50.4 457.921 50.64C458.401 50.88 458.785 51.216 459.073 51.648C459.377 52.08 459.529 52.656 459.529 53.376C459.529 54.144 459.305 54.808 458.857 55.368C458.409 55.928 457.777 56.368 456.961 56.688C456.145 56.992 455.169 57.144 454.033 57.144ZM467.617 57.144C466.337 57.144 465.345 56.8 464.641 56.112C463.937 55.424 463.585 54.44 463.585 53.16V41.496H465.889V53.064C465.889 53.752 466.057 54.28 466.393 54.648C466.745 55.016 467.241 55.2 467.881 55.2C468.601 55.2 469.201 55 469.681 54.6L470.401 56.256C470.049 56.56 469.625 56.784 469.129 56.928C468.649 57.072 468.145 57.144 467.617 57.144ZM461.425 46.176V44.28H469.537V46.176H461.425ZM474.026 57V44.28H476.33V57H474.026ZM475.178 41.832C474.73 41.832 474.354 41.688 474.05 41.4C473.762 41.112 473.618 40.76 473.618 40.344C473.618 39.912 473.762 39.552 474.05 39.264C474.354 38.976 474.73 38.832 475.178 38.832C475.626 38.832 475.994 38.976 476.282 39.264C476.586 39.536 476.738 39.88 476.738 40.296C476.738 40.728 476.594 41.096 476.306 41.4C476.018 41.688 475.642 41.832 475.178 41.832ZM487.017 57.144C485.737 57.144 484.601 56.864 483.609 56.304C482.617 55.744 481.833 54.976 481.257 54C480.681 53.008 480.393 51.888 480.393 50.64C480.393 49.376 480.681 48.256 481.257 47.28C481.833 46.304 482.617 45.544 483.609 45C484.601 44.44 485.737 44.16 487.017 44.16C488.281 44.16 489.409 44.44 490.401 45C491.409 45.544 492.193 46.304 492.753 47.28C493.329 48.24 493.617 49.36 493.617 50.64C493.617 51.904 493.329 53.024 492.753 54C492.193 54.976 491.409 55.744 490.401 56.304C489.409 56.864 488.281 57.144 487.017 57.144ZM487.017 55.128C487.833 55.128 488.561 54.944 489.201 54.576C489.857 54.208 490.369 53.688 490.737 53.016C491.105 52.328 491.289 51.536 491.289 50.64C491.289 49.728 491.105 48.944 490.737 48.288C490.369 47.616 489.857 47.096 489.201 46.728C488.561 46.36 487.833 46.176 487.017 46.176C486.201 46.176 485.473 46.36 484.833 46.728C484.193 47.096 483.681 47.616 483.297 48.288C482.913 48.944 482.721 49.728 482.721 50.64C482.721 51.536 482.913 52.328 483.297 53.016C483.681 53.688 484.193 54.208 484.833 54.576C485.473 54.944 486.201 55.128 487.017 55.128ZM504.436 44.16C505.476 44.16 506.388 44.36 507.172 44.76C507.972 45.16 508.596 45.768 509.044 46.584C509.492 47.4 509.716 48.432 509.716 49.68V57H507.412V49.944C507.412 48.712 507.108 47.784 506.5 47.16C505.908 46.536 505.068 46.224 503.98 46.224C503.164 46.224 502.452 46.384 501.844 46.704C501.236 47.024 500.764 47.496 500.428 48.12C500.108 48.744 499.948 49.52 499.948 50.448V57H497.644V44.28H499.852V47.712L499.492 46.8C499.908 45.968 500.548 45.32 501.412 44.856C502.276 44.392 503.284 44.16 504.436 44.16ZM518.467 57.144C517.411 57.144 516.403 57 515.443 56.712C514.499 56.424 513.755 56.072 513.211 55.656L514.171 53.832C514.715 54.2 515.387 54.512 516.187 54.768C516.987 55.024 517.803 55.152 518.635 55.152C519.707 55.152 520.475 55 520.939 54.696C521.419 54.392 521.659 53.968 521.659 53.424C521.659 53.024 521.515 52.712 521.227 52.488C520.939 52.264 520.555 52.096 520.075 51.984C519.611 51.872 519.091 51.776 518.515 51.696C517.939 51.6 517.363 51.488 516.787 51.36C516.211 51.216 515.683 51.024 515.203 50.784C514.723 50.528 514.339 50.184 514.051 49.752C513.763 49.304 513.619 48.712 513.619 47.976C513.619 47.208 513.835 46.536 514.267 45.96C514.699 45.384 515.307 44.944 516.091 44.64C516.891 44.32 517.835 44.16 518.923 44.16C519.755 44.16 520.595 44.264 521.443 44.472C522.307 44.664 523.011 44.944 523.555 45.312L522.571 47.136C521.995 46.752 521.395 46.488 520.771 46.344C520.147 46.2 519.523 46.128 518.899 46.128C517.891 46.128 517.139 46.296 516.643 46.632C516.147 46.952 515.899 47.368 515.899 47.88C515.899 48.312 516.043 48.648 516.331 48.888C516.635 49.112 517.019 49.288 517.483 49.416C517.963 49.544 518.491 49.656 519.067 49.752C519.643 49.832 520.219 49.944 520.795 50.088C521.371 50.216 521.891 50.4 522.355 50.64C522.835 50.88 523.219 51.216 523.507 51.648C523.811 52.08 523.963 52.656 523.963 53.376C523.963 54.144 523.739 54.808 523.291 55.368C522.843 55.928 522.211 56.368 521.395 56.688C520.579 56.992 519.603 57.144 518.467 57.144ZM539.336 57.144C538.056 57.144 537.064 56.8 536.36 56.112C535.656 55.424 535.304 54.44 535.304 53.16V41.496H537.608V53.064C537.608 53.752 537.776 54.28 538.112 54.648C538.464 55.016 538.96 55.2 539.6 55.2C540.32 55.2 540.92 55 541.4 54.6L542.12 56.256C541.768 56.56 541.344 56.784 540.848 56.928C540.368 57.072 539.864 57.144 539.336 57.144ZM533.144 46.176V44.28H541.256V46.176H533.144ZM550.772 57.144C549.492 57.144 548.356 56.864 547.364 56.304C546.372 55.744 545.588 54.976 545.012 54C544.436 53.008 544.148 51.888 544.148 50.64C544.148 49.376 544.436 48.256 545.012 47.28C545.588 46.304 546.372 45.544 547.364 45C548.356 44.44 549.492 44.16 550.772 44.16C552.036 44.16 553.164 44.44 554.156 45C555.164 45.544 555.948 46.304 556.508 47.28C557.084 48.24 557.372 49.36 557.372 50.64C557.372 51.904 557.084 53.024 556.508 54C555.948 54.976 555.164 55.744 554.156 56.304C553.164 56.864 552.036 57.144 550.772 57.144ZM550.772 55.128C551.588 55.128 552.316 54.944 552.956 54.576C553.612 54.208 554.124 53.688 554.492 53.016C554.86 52.328 555.044 51.536 555.044 50.64C555.044 49.728 554.86 48.944 554.492 48.288C554.124 47.616 553.612 47.096 552.956 46.728C552.316 46.36 551.588 46.176 550.772 46.176C549.956 46.176 549.228 46.36 548.588 46.728C547.948 47.096 547.436 47.616 547.052 48.288C546.668 48.944 546.476 49.728 546.476 50.64C546.476 51.536 546.668 52.328 547.052 53.016C547.436 53.688 547.948 54.208 548.588 54.576C549.228 54.944 549.956 55.128 550.772 55.128ZM574.036 57.144C572.948 57.144 571.988 56.944 571.156 56.544C570.34 56.144 569.7 55.536 569.236 54.72C568.788 53.888 568.564 52.848 568.564 51.6V44.28H570.868V51.336C570.868 52.584 571.164 53.52 571.756 54.144C572.364 54.768 573.212 55.08 574.3 55.08C575.1 55.08 575.796 54.92 576.388 54.6C576.98 54.264 577.436 53.784 577.756 53.16C578.076 52.52 578.236 51.752 578.236 50.856V44.28H580.54V57H578.356V53.568L578.716 54.48C578.3 55.328 577.676 55.984 576.844 56.448C576.012 56.912 575.076 57.144 574.036 57.144ZM592.558 44.16C593.598 44.16 594.51 44.36 595.294 44.76C596.094 45.16 596.718 45.768 597.166 46.584C597.614 47.4 597.838 48.432 597.838 49.68V57H595.534V49.944C595.534 48.712 595.23 47.784 594.622 47.16C594.03 46.536 593.19 46.224 592.102 46.224C591.286 46.224 590.574 46.384 589.966 46.704C589.358 47.024 588.886 47.496 588.55 48.12C588.23 48.744 588.07 49.52 588.07 50.448V57H585.766V44.28H587.974V47.712L587.614 46.8C588.03 45.968 588.67 45.32 589.534 44.856C590.398 44.392 591.406 44.16 592.558 44.16ZM608.486 57.144C607.19 57.144 606.03 56.864 605.006 56.304C603.998 55.744 603.206 54.976 602.63 54C602.054 53.024 601.766 51.904 601.766 50.64C601.766 49.376 602.054 48.256 602.63 47.28C603.206 46.304 603.998 45.544 605.006 45C606.03 44.44 607.19 44.16 608.486 44.16C609.638 44.16 610.662 44.392 611.558 44.856C612.47 45.304 613.174 45.976 613.67 46.872L611.918 48C611.502 47.376 610.99 46.92 610.382 46.632C609.79 46.328 609.15 46.176 608.462 46.176C607.63 46.176 606.886 46.36 606.23 46.728C605.574 47.096 605.054 47.616 604.67 48.288C604.286 48.944 604.094 49.728 604.094 50.64C604.094 51.552 604.286 52.344 604.67 53.016C605.054 53.688 605.574 54.208 606.23 54.576C606.886 54.944 607.63 55.128 608.462 55.128C609.15 55.128 609.79 54.984 610.382 54.696C610.99 54.392 611.502 53.928 611.918 53.304L613.67 54.408C613.174 55.288 612.47 55.968 611.558 56.448C610.662 56.912 609.638 57.144 608.486 57.144ZM622.753 57.144C621.473 57.144 620.337 56.864 619.345 56.304C618.353 55.744 617.569 54.976 616.993 54C616.417 53.008 616.129 51.888 616.129 50.64C616.129 49.376 616.417 48.256 616.993 47.28C617.569 46.304 618.353 45.544 619.345 45C620.337 44.44 621.473 44.16 622.753 44.16C624.017 44.16 625.145 44.44 626.137 45C627.145 45.544 627.929 46.304 628.489 47.28C629.065 48.24 629.353 49.36 629.353 50.64C629.353 51.904 629.065 53.024 628.489 54C627.929 54.976 627.145 55.744 626.137 56.304C625.145 56.864 624.017 57.144 622.753 57.144ZM622.753 55.128C623.569 55.128 624.297 54.944 624.937 54.576C625.593 54.208 626.105 53.688 626.473 53.016C626.841 52.328 627.025 51.536 627.025 50.64C627.025 49.728 626.841 48.944 626.473 48.288C626.105 47.616 625.593 47.096 624.937 46.728C624.297 46.36 623.569 46.176 622.753 46.176C621.937 46.176 621.209 46.36 620.569 46.728C619.929 47.096 619.417 47.616 619.033 48.288C618.649 48.944 618.457 49.728 618.457 50.64C618.457 51.536 618.649 52.328 619.033 53.016C619.417 53.688 619.929 54.208 620.569 54.576C621.209 54.944 621.937 55.128 622.753 55.128ZM636.364 57L630.796 44.28H633.196L638.14 55.8H636.988L642.028 44.28H644.284L638.716 57H636.364ZM652.587 57.144C651.227 57.144 650.027 56.864 648.987 56.304C647.963 55.744 647.163 54.976 646.587 54C646.027 53.024 645.747 51.904 645.747 50.64C645.747 49.376 646.019 48.256 646.563 47.28C647.123 46.304 647.883 45.544 648.843 45C649.819 44.44 650.915 44.16 652.131 44.16C653.363 44.16 654.451 44.432 655.395 44.976C656.339 45.52 657.075 46.288 657.603 47.28C658.147 48.256 658.419 49.4 658.419 50.712C658.419 50.808 658.411 50.92 658.395 51.048C658.395 51.176 658.387 51.296 658.371 51.408H647.547V49.752H657.171L656.235 50.328C656.251 49.512 656.083 48.784 655.731 48.144C655.379 47.504 654.891 47.008 654.267 46.656C653.659 46.288 652.947 46.104 652.131 46.104C651.331 46.104 650.619 46.288 649.995 46.656C649.371 47.008 648.883 47.512 648.531 48.168C648.179 48.808 648.003 49.544 648.003 50.376V50.76C648.003 51.608 648.195 52.368 648.579 53.04C648.979 53.696 649.531 54.208 650.235 54.576C650.939 54.944 651.747 55.128 652.659 55.128C653.411 55.128 654.091 55 654.699 54.744C655.323 54.488 655.867 54.104 656.331 53.592L657.603 55.08C657.027 55.752 656.307 56.264 655.443 56.616C654.595 56.968 653.643 57.144 652.587 57.144ZM662.458 57V44.28H664.666V47.736L664.45 46.872C664.802 45.992 665.394 45.32 666.226 44.856C667.058 44.392 668.082 44.16 669.298 44.16V46.392C669.202 46.376 669.106 46.368 669.01 46.368C668.93 46.368 668.85 46.368 668.77 46.368C667.538 46.368 666.562 46.736 665.842 47.472C665.122 48.208 664.762 49.272 664.762 50.664V57H662.458ZM684.795 57.144C683.515 57.144 682.523 56.8 681.819 56.112C681.115 55.424 680.763 54.44 680.763 53.16V41.496H683.067V53.064C683.067 53.752 683.235 54.28 683.571 54.648C683.923 55.016 684.419 55.2 685.059 55.2C685.779 55.2 686.379 55 686.859 54.6L687.579 56.256C687.227 56.56 686.803 56.784 686.307 56.928C685.827 57.072 685.323 57.144 684.795 57.144ZM678.603 46.176V44.28H686.715V46.176H678.603ZM697.997 44.16C699.037 44.16 699.949 44.36 700.733 44.76C701.533 45.16 702.157 45.768 702.605 46.584C703.053 47.4 703.277 48.432 703.277 49.68V57H700.973V49.944C700.973 48.712 700.669 47.784 700.061 47.16C699.469 46.536 698.629 46.224 697.541 46.224C696.725 46.224 696.013 46.384 695.405 46.704C694.797 47.024 694.325 47.496 693.989 48.12C693.669 48.744 693.509 49.52 693.509 50.448V57H691.205V39.192H693.509V47.712L693.053 46.8C693.469 45.968 694.109 45.32 694.973 44.856C695.837 44.392 696.845 44.16 697.997 44.16ZM714.044 57.144C712.684 57.144 711.484 56.864 710.444 56.304C709.42 55.744 708.62 54.976 708.044 54C707.484 53.024 707.204 51.904 707.204 50.64C707.204 49.376 707.476 48.256 708.02 47.28C708.58 46.304 709.34 45.544 710.3 45C711.276 44.44 712.372 44.16 713.588 44.16C714.82 44.16 715.908 44.432 716.852 44.976C717.796 45.52 718.532 46.288 719.06 47.28C719.604 48.256 719.876 49.4 719.876 50.712C719.876 50.808 719.868 50.92 719.852 51.048C719.852 51.176 719.844 51.296 719.828 51.408H709.004V49.752H718.628L717.692 50.328C717.708 49.512 717.54 48.784 717.188 48.144C716.836 47.504 716.348 47.008 715.724 46.656C715.116 46.288 714.404 46.104 713.588 46.104C712.788 46.104 712.076 46.288 711.452 46.656C710.828 47.008 710.34 47.512 709.988 48.168C709.636 48.808 709.46 49.544 709.46 50.376V50.76C709.46 51.608 709.652 52.368 710.036 53.04C710.436 53.696 710.988 54.208 711.692 54.576C712.396 54.944 713.204 55.128 714.116 55.128C714.868 55.128 715.548 55 716.156 54.744C716.78 54.488 717.324 54.104 717.788 53.592L719.06 55.08C718.484 55.752 717.764 56.264 716.9 56.616C716.052 56.968 715.1 57.144 714.044 57.144ZM737.993 44.16C739.033 44.16 739.945 44.36 740.729 44.76C741.529 45.16 742.153 45.768 742.601 46.584C743.049 47.4 743.273 48.432 743.273 49.68V57H740.969V49.944C740.969 48.712 740.665 47.784 740.057 47.16C739.465 46.536 738.625 46.224 737.537 46.224C736.721 46.224 736.009 46.384 735.401 46.704C734.793 47.024 734.321 47.496 733.985 48.12C733.665 48.744 733.505 49.52 733.505 50.448V57H731.201V39.192H733.505V47.712L733.049 46.8C733.465 45.968 734.105 45.32 734.969 44.856C735.833 44.392 736.841 44.16 737.993 44.16ZM748.377 57V44.28H750.681V57H748.377ZM749.529 41.832C749.081 41.832 748.705 41.688 748.401 41.4C748.113 41.112 747.969 40.76 747.969 40.344C747.969 39.912 748.113 39.552 748.401 39.264C748.705 38.976 749.081 38.832 749.529 38.832C749.977 38.832 750.345 38.976 750.633 39.264C750.937 39.536 751.089 39.88 751.089 40.296C751.089 40.728 750.945 41.096 750.657 41.4C750.369 41.688 749.993 41.832 749.529 41.832ZM761.176 57.144C759.944 57.144 758.84 56.872 757.864 56.328C756.904 55.784 756.144 55.024 755.584 54.048C755.024 53.072 754.744 51.936 754.744 50.64C754.744 49.344 755.024 48.216 755.584 47.256C756.144 46.28 756.904 45.52 757.864 44.976C758.84 44.432 759.944 44.16 761.176 44.16C762.248 44.16 763.216 44.4 764.08 44.88C764.944 45.36 765.632 46.08 766.144 47.04C766.672 48 766.936 49.2 766.936 50.64C766.936 52.08 766.68 53.28 766.168 54.24C765.672 55.2 764.992 55.928 764.128 56.424C763.264 56.904 762.28 57.144 761.176 57.144ZM761.368 55.128C762.168 55.128 762.888 54.944 763.528 54.576C764.184 54.208 764.696 53.688 765.064 53.016C765.448 52.328 765.64 51.536 765.64 50.64C765.64 49.728 765.448 48.944 765.064 48.288C764.696 47.616 764.184 47.096 763.528 46.728C762.888 46.36 762.168 46.176 761.368 46.176C760.552 46.176 759.824 46.36 759.184 46.728C758.544 47.096 758.032 47.616 757.648 48.288C757.264 48.944 757.072 49.728 757.072 50.64C757.072 51.536 757.264 52.328 757.648 53.016C758.032 53.688 758.544 54.208 759.184 54.576C759.824 54.944 760.552 55.128 761.368 55.128ZM765.712 57V53.568L765.856 50.616L765.616 47.664V39.192H767.92V57H765.712ZM778.375 57.144C777.143 57.144 776.039 56.872 775.063 56.328C774.103 55.784 773.343 55.024 772.783 54.048C772.223 53.072 771.943 51.936 771.943 50.64C771.943 49.344 772.223 48.216 772.783 47.256C773.343 46.28 774.103 45.52 775.063 44.976C776.039 44.432 777.143 44.16 778.375 44.16C779.447 44.16 780.415 44.4 781.279 44.88C782.143 45.36 782.831 46.08 783.343 47.04C783.871 48 784.135 49.2 784.135 50.64C784.135 52.08 783.879 53.28 783.367 54.24C782.871 55.2 782.191 55.928 781.327 56.424C780.463 56.904 779.479 57.144 778.375 57.144ZM778.567 55.128C779.367 55.128 780.087 54.944 780.727 54.576C781.383 54.208 781.895 53.688 782.263 53.016C782.647 52.328 782.839 51.536 782.839 50.64C782.839 49.728 782.647 48.944 782.263 48.288C781.895 47.616 781.383 47.096 780.727 46.728C780.087 46.36 779.367 46.176 778.567 46.176C777.751 46.176 777.023 46.36 776.383 46.728C775.743 47.096 775.231 47.616 774.847 48.288C774.463 48.944 774.271 49.728 774.271 50.64C774.271 51.536 774.463 52.328 774.847 53.016C775.231 53.688 775.743 54.208 776.383 54.576C777.023 54.944 777.751 55.128 778.567 55.128ZM782.911 57V53.568L783.055 50.616L782.815 47.664V39.192H785.119V57H782.911ZM795.983 57.144C794.623 57.144 793.423 56.864 792.383 56.304C791.359 55.744 790.559 54.976 789.983 54C789.423 53.024 789.143 51.904 789.143 50.64C789.143 49.376 789.415 48.256 789.959 47.28C790.519 46.304 791.279 45.544 792.239 45C793.215 44.44 794.311 44.16 795.527 44.16C796.759 44.16 797.847 44.432 798.791 44.976C799.735 45.52 800.471 46.288 800.999 47.28C801.543 48.256 801.815 49.4 801.815 50.712C801.815 50.808 801.807 50.92 801.791 51.048C801.791 51.176 801.783 51.296 801.767 51.408H790.943V49.752H800.567L799.631 50.328C799.647 49.512 799.479 48.784 799.127 48.144C798.775 47.504 798.287 47.008 797.663 46.656C797.055 46.288 796.343 46.104 795.527 46.104C794.727 46.104 794.015 46.288 793.391 46.656C792.767 47.008 792.279 47.512 791.927 48.168C791.575 48.808 791.399 49.544 791.399 50.376V50.76C791.399 51.608 791.591 52.368 791.975 53.04C792.375 53.696 792.927 54.208 793.631 54.576C794.335 54.944 795.143 55.128 796.055 55.128C796.807 55.128 797.487 55 798.095 54.744C798.719 54.488 799.263 54.104 799.727 53.592L800.999 55.08C800.423 55.752 799.703 56.264 798.839 56.616C797.991 56.968 797.039 57.144 795.983 57.144ZM812.646 44.16C813.686 44.16 814.598 44.36 815.382 44.76C816.182 45.16 816.806 45.768 817.254 46.584C817.702 47.4 817.926 48.432 817.926 49.68V57H815.622V49.944C815.622 48.712 815.318 47.784 814.71 47.16C814.118 46.536 813.278 46.224 812.19 46.224C811.374 46.224 810.662 46.384 810.054 46.704C809.446 47.024 808.974 47.496 808.638 48.12C808.318 48.744 808.158 49.52 808.158 50.448V57H805.854V44.28H808.062V47.712L807.702 46.8C808.118 45.968 808.758 45.32 809.622 44.856C810.486 44.392 811.494 44.16 812.646 44.16ZM833.963 57.144C832.907 57.144 831.899 57 830.939 56.712C829.995 56.424 829.251 56.072 828.707 55.656L829.667 53.832C830.211 54.2 830.883 54.512 831.683 54.768C832.483 55.024 833.299 55.152 834.131 55.152C835.203 55.152 835.971 55 836.435 54.696C836.915 54.392 837.155 53.968 837.155 53.424C837.155 53.024 837.011 52.712 836.723 52.488C836.435 52.264 836.051 52.096 835.571 51.984C835.107 51.872 834.587 51.776 834.011 51.696C833.435 51.6 832.859 51.488 832.283 51.36C831.707 51.216 831.179 51.024 830.699 50.784C830.219 50.528 829.835 50.184 829.547 49.752C829.259 49.304 829.115 48.712 829.115 47.976C829.115 47.208 829.331 46.536 829.763 45.96C830.195 45.384 830.803 44.944 831.587 44.64C832.387 44.32 833.331 44.16 834.419 44.16C835.251 44.16 836.091 44.264 836.939 44.472C837.803 44.664 838.507 44.944 839.051 45.312L838.067 47.136C837.491 46.752 836.891 46.488 836.267 46.344C835.643 46.2 835.019 46.128 834.395 46.128C833.387 46.128 832.635 46.296 832.139 46.632C831.643 46.952 831.395 47.368 831.395 47.88C831.395 48.312 831.539 48.648 831.827 48.888C832.131 49.112 832.515 49.288 832.979 49.416C833.459 49.544 833.987 49.656 834.563 49.752C835.139 49.832 835.715 49.944 836.291 50.088C836.867 50.216 837.387 50.4 837.851 50.64C838.331 50.88 838.715 51.216 839.003 51.648C839.307 52.08 839.459 52.656 839.459 53.376C839.459 54.144 839.235 54.808 838.787 55.368C838.339 55.928 837.707 56.368 836.891 56.688C836.075 56.992 835.099 57.144 833.963 57.144ZM848.627 57.144C847.347 57.144 846.211 56.864 845.219 56.304C844.227 55.744 843.443 54.976 842.867 54C842.291 53.008 842.003 51.888 842.003 50.64C842.003 49.376 842.291 48.256 842.867 47.28C843.443 46.304 844.227 45.544 845.219 45C846.211 44.44 847.347 44.16 848.627 44.16C849.891 44.16 851.019 44.44 852.011 45C853.019 45.544 853.803 46.304 854.363 47.28C854.939 48.24 855.227 49.36 855.227 50.64C855.227 51.904 854.939 53.024 854.363 54C853.803 54.976 853.019 55.744 852.011 56.304C851.019 56.864 849.891 57.144 848.627 57.144ZM848.627 55.128C849.443 55.128 850.171 54.944 850.811 54.576C851.467 54.208 851.979 53.688 852.347 53.016C852.715 52.328 852.899 51.536 852.899 50.64C852.899 49.728 852.715 48.944 852.347 48.288C851.979 47.616 851.467 47.096 850.811 46.728C850.171 46.36 849.443 46.176 848.627 46.176C847.811 46.176 847.083 46.36 846.443 46.728C845.803 47.096 845.291 47.616 844.907 48.288C844.523 48.944 844.331 49.728 844.331 50.64C844.331 51.536 844.523 52.328 844.907 53.016C845.291 53.688 845.803 54.208 846.443 54.576C847.083 54.944 847.811 55.128 848.627 55.128ZM859.253 57V39.192H861.557V57H859.253ZM872.148 57.144C871.06 57.144 870.1 56.944 869.268 56.544C868.452 56.144 867.812 55.536 867.348 54.72C866.9 53.888 866.676 52.848 866.676 51.6V44.28H868.98V51.336C868.98 52.584 869.276 53.52 869.868 54.144C870.476 54.768 871.324 55.08 872.412 55.08C873.212 55.08 873.908 54.92 874.5 54.6C875.092 54.264 875.548 53.784 875.868 53.16C876.188 52.52 876.348 51.752 876.348 50.856V44.28H878.652V57H876.468V53.568L876.828 54.48C876.412 55.328 875.788 55.984 874.956 56.448C874.124 56.912 873.188 57.144 872.148 57.144ZM888.247 57.144C886.967 57.144 885.975 56.8 885.271 56.112C884.567 55.424 884.215 54.44 884.215 53.16V41.496H886.519V53.064C886.519 53.752 886.687 54.28 887.023 54.648C887.375 55.016 887.871 55.2 888.511 55.2C889.231 55.2 889.831 55 890.311 54.6L891.031 56.256C890.679 56.56 890.255 56.784 889.759 56.928C889.279 57.072 888.775 57.144 888.247 57.144ZM882.055 46.176V44.28H890.167V46.176H882.055ZM894.656 57V44.28H896.96V57H894.656ZM895.808 41.832C895.36 41.832 894.984 41.688 894.68 41.4C894.392 41.112 894.248 40.76 894.248 40.344C894.248 39.912 894.392 39.552 894.68 39.264C894.984 38.976 895.36 38.832 895.808 38.832C896.256 38.832 896.624 38.976 896.912 39.264C897.216 39.536 897.368 39.88 897.368 40.296C897.368 40.728 897.224 41.096 896.936 41.4C896.648 41.688 896.272 41.832 895.808 41.832ZM907.647 57.144C906.367 57.144 905.231 56.864 904.239 56.304C903.247 55.744 902.463 54.976 901.887 54C901.311 53.008 901.023 51.888 901.023 50.64C901.023 49.376 901.311 48.256 901.887 47.28C902.463 46.304 903.247 45.544 904.239 45C905.231 44.44 906.367 44.16 907.647 44.16C908.911 44.16 910.039 44.44 911.031 45C912.039 45.544 912.823 46.304 913.383 47.28C913.959 48.24 914.247 49.36 914.247 50.64C914.247 51.904 913.959 53.024 913.383 54C912.823 54.976 912.039 55.744 911.031 56.304C910.039 56.864 908.911 57.144 907.647 57.144ZM907.647 55.128C908.463 55.128 909.191 54.944 909.831 54.576C910.487 54.208 910.999 53.688 911.367 53.016C911.735 52.328 911.919 51.536 911.919 50.64C911.919 49.728 911.735 48.944 911.367 48.288C910.999 47.616 910.487 47.096 909.831 46.728C909.191 46.36 908.463 46.176 907.647 46.176C906.831 46.176 906.103 46.36 905.463 46.728C904.823 47.096 904.311 47.616 903.927 48.288C903.543 48.944 903.351 49.728 903.351 50.64C903.351 51.536 903.543 52.328 903.927 53.016C904.311 53.688 904.823 54.208 905.463 54.576C906.103 54.944 906.831 55.128 907.647 55.128ZM925.066 44.16C926.106 44.16 927.018 44.36 927.802 44.76C928.602 45.16 929.226 45.768 929.674 46.584C930.122 47.4 930.346 48.432 930.346 49.68V57H928.042V49.944C928.042 48.712 927.738 47.784 927.13 47.16C926.538 46.536 925.698 46.224 924.61 46.224C923.794 46.224 923.082 46.384 922.474 46.704C921.866 47.024 921.394 47.496 921.058 48.12C920.738 48.744 920.578 49.52 920.578 50.448V57H918.274V44.28H920.482V47.712L920.122 46.8C920.538 45.968 921.178 45.32 922.042 44.856C922.906 44.392 923.914 44.16 925.066 44.16ZM939.097 57.144C938.041 57.144 937.033 57 936.073 56.712C935.129 56.424 934.385 56.072 933.841 55.656L934.801 53.832C935.345 54.2 936.017 54.512 936.817 54.768C937.617 55.024 938.433 55.152 939.265 55.152C940.337 55.152 941.105 55 941.569 54.696C942.049 54.392 942.289 53.968 942.289 53.424C942.289 53.024 942.145 52.712 941.857 52.488C941.569 52.264 941.185 52.096 940.705 51.984C940.241 51.872 939.721 51.776 939.145 51.696C938.569 51.6 937.993 51.488 937.417 51.36C936.841 51.216 936.313 51.024 935.833 50.784C935.353 50.528 934.969 50.184 934.681 49.752C934.393 49.304 934.249 48.712 934.249 47.976C934.249 47.208 934.465 46.536 934.897 45.96C935.329 45.384 935.937 44.944 936.721 44.64C937.521 44.32 938.465 44.16 939.553 44.16C940.385 44.16 941.225 44.264 942.073 44.472C942.937 44.664 943.641 44.944 944.185 45.312L943.201 47.136C942.625 46.752 942.025 46.488 941.401 46.344C940.777 46.2 940.153 46.128 939.529 46.128C938.521 46.128 937.769 46.296 937.273 46.632C936.777 46.952 936.529 47.368 936.529 47.88C936.529 48.312 936.673 48.648 936.961 48.888C937.265 49.112 937.649 49.288 938.113 49.416C938.593 49.544 939.121 49.656 939.697 49.752C940.273 49.832 940.849 49.944 941.425 50.088C942.001 50.216 942.521 50.4 942.985 50.64C943.465 50.88 943.849 51.216 944.137 51.648C944.441 52.08 944.593 52.656 944.593 53.376C944.593 54.144 944.369 54.808 943.921 55.368C943.473 55.928 942.841 56.368 942.025 56.688C941.209 56.992 940.233 57.144 939.097 57.144ZM948.433 51.696L948.001 40.2H950.713L950.257 51.696H948.433ZM949.369 57.144C948.921 57.144 948.545 56.992 948.241 56.688C947.937 56.384 947.785 56.024 947.785 55.608C947.785 55.16 947.937 54.792 948.241 54.504C948.545 54.216 948.921 54.072 949.369 54.072C949.817 54.072 950.185 54.216 950.473 54.504C950.761 54.792 950.905 55.16 950.905 55.608C950.905 56.024 950.761 56.384 950.473 56.688C950.185 56.992 949.817 57.144 949.369 57.144Z" fill="white"/>
</svg>
