<svg width="556" height="16" viewBox="0 0 556 16" fill="none" xmlns="http://www.w3.org/2000/svg">
<path d="M0.904141 15V0.999999H3.58414L11.8441 11.08H10.5441V0.999999H13.7441V15H11.0841L2.80414 4.92H4.10414V15H0.904141ZM29.3565 15.24C28.2498 15.24 27.2232 15.06 26.2765 14.7C25.3432 14.34 24.5298 13.8333 23.8365 13.18C23.1565 12.5267 22.6232 11.76 22.2365 10.88C21.8632 10 21.6765 9.04 21.6765 8C21.6765 6.96 21.8632 6 22.2365 5.12C22.6232 4.24 23.1632 3.47333 23.8565 2.82C24.5498 2.16667 25.3632 1.66 26.2965 1.3C27.2298 0.939999 28.2432 0.76 29.3365 0.76C30.4432 0.76 31.4565 0.939999 32.3765 1.3C33.3098 1.66 34.1165 2.16667 34.7965 2.82C35.4898 3.47333 36.0298 4.24 36.4165 5.12C36.8032 5.98667 36.9965 6.94667 36.9965 8C36.9965 9.04 36.8032 10.0067 36.4165 10.9C36.0298 11.78 35.4898 12.5467 34.7965 13.2C34.1165 13.84 33.3098 14.34 32.3765 14.7C31.4565 15.06 30.4498 15.24 29.3565 15.24ZM29.3365 12.48C29.9632 12.48 30.5365 12.3733 31.0565 12.16C31.5898 11.9467 32.0565 11.64 32.4565 11.24C32.8565 10.84 33.1632 10.3667 33.3765 9.82C33.6032 9.27333 33.7165 8.66667 33.7165 8C33.7165 7.33333 33.6032 6.72667 33.3765 6.18C33.1632 5.63333 32.8565 5.16 32.4565 4.76C32.0698 4.36 31.6098 4.05333 31.0765 3.84C30.5432 3.62667 29.9632 3.52 29.3365 3.52C28.7098 3.52 28.1298 3.62667 27.5965 3.84C27.0765 4.05333 26.6165 4.36 26.2165 4.76C25.8165 5.16 25.5032 5.63333 25.2765 6.18C25.0632 6.72667 24.9565 7.33333 24.9565 8C24.9565 8.65333 25.0632 9.26 25.2765 9.82C25.5032 10.3667 25.8098 10.84 26.1965 11.24C26.5965 11.64 27.0632 11.9467 27.5965 12.16C28.1298 12.3733 28.7098 12.48 29.3365 12.48ZM47.6362 15V3.64H43.1562V0.999999H55.3562V3.64H50.8762V15H47.6362ZM76.3435 15.24C75.3968 15.24 74.5235 15.0667 73.7235 14.72C72.9368 14.36 72.2902 13.8533 71.7835 13.2L73.5835 11.04C73.9702 11.5467 74.3768 11.9333 74.8035 12.2C75.2302 12.4533 75.6902 12.58 76.1835 12.58C77.5035 12.58 78.1635 11.8067 78.1635 10.26V3.6H73.2435V0.999999H81.3835V10.08C81.3835 11.8133 80.9568 13.1067 80.1035 13.96C79.2502 14.8133 77.9968 15.24 76.3435 15.24ZM96.3038 15.24C94.3172 15.24 92.7638 14.6867 91.6438 13.58C90.5238 12.4733 89.9638 10.8933 89.9638 8.84V0.999999H93.2038V8.72C93.2038 10.0533 93.4772 11.0133 94.0238 11.6C94.5705 12.1867 95.3372 12.48 96.3238 12.48C97.3105 12.48 98.0772 12.1867 98.6238 11.6C99.1705 11.0133 99.4438 10.0533 99.4438 8.72V0.999999H102.644V8.84C102.644 10.8933 102.084 12.4733 100.964 13.58C99.8438 14.6867 98.2905 15.24 96.3038 15.24ZM115.946 15.24C114.826 15.24 113.752 15.0933 112.726 14.8C111.699 14.4933 110.872 14.1 110.246 13.62L111.346 11.18C111.946 11.6067 112.652 11.96 113.466 12.24C114.292 12.5067 115.126 12.64 115.966 12.64C116.606 12.64 117.119 12.58 117.506 12.46C117.906 12.3267 118.199 12.1467 118.386 11.92C118.572 11.6933 118.666 11.4333 118.666 11.14C118.666 10.7667 118.519 10.4733 118.226 10.26C117.932 10.0333 117.546 9.85333 117.066 9.72C116.586 9.57333 116.052 9.44 115.466 9.32C114.892 9.18667 114.312 9.02667 113.726 8.84C113.152 8.65333 112.626 8.41333 112.146 8.12C111.666 7.82667 111.272 7.44 110.966 6.96C110.672 6.48 110.526 5.86667 110.526 5.12C110.526 4.32 110.739 3.59333 111.166 2.94C111.606 2.27333 112.259 1.74667 113.126 1.36C114.006 0.96 115.106 0.76 116.426 0.76C117.306 0.76 118.172 0.866666 119.026 1.08C119.879 1.28 120.632 1.58667 121.286 2L120.286 4.46C119.632 4.08667 118.979 3.81333 118.326 3.64C117.672 3.45333 117.032 3.36 116.406 3.36C115.779 3.36 115.266 3.43333 114.866 3.58C114.466 3.72667 114.179 3.92 114.006 4.16C113.832 4.38667 113.746 4.65333 113.746 4.96C113.746 5.32 113.892 5.61333 114.186 5.84C114.479 6.05333 114.866 6.22667 115.346 6.36C115.826 6.49333 116.352 6.62667 116.926 6.76C117.512 6.89333 118.092 7.04667 118.666 7.22C119.252 7.39333 119.786 7.62667 120.266 7.92C120.746 8.21333 121.132 8.6 121.426 9.08C121.732 9.56 121.886 10.1667 121.886 10.9C121.886 11.6867 121.666 12.4067 121.226 13.06C120.786 13.7133 120.126 14.24 119.246 14.64C118.379 15.04 117.279 15.24 115.946 15.24ZM132.304 15V3.64H127.824V0.999999H140.024V3.64H135.544V15H132.304ZM156.591 15L162.831 0.999999H166.031L172.291 15H168.891L163.771 2.64H165.051L159.911 15H156.591ZM159.711 12L160.571 9.54H167.771L168.651 12H159.711ZM179.244 15V0.999999H181.924L190.184 11.08H188.884V0.999999H192.084V15H189.424L181.144 4.92H182.444V15H179.244ZM207.696 15.24C206.59 15.24 205.563 15.06 204.616 14.7C203.683 14.34 202.87 13.8333 202.176 13.18C201.496 12.5267 200.963 11.76 200.576 10.88C200.203 10 200.016 9.04 200.016 8C200.016 6.96 200.203 6 200.576 5.12C200.963 4.24 201.503 3.47333 202.196 2.82C202.89 2.16667 203.703 1.66 204.636 1.3C205.57 0.939999 206.583 0.76 207.676 0.76C208.783 0.76 209.796 0.939999 210.716 1.3C211.65 1.66 212.456 2.16667 213.136 2.82C213.83 3.47333 214.37 4.24 214.756 5.12C215.143 5.98667 215.336 6.94667 215.336 8C215.336 9.04 215.143 10.0067 214.756 10.9C214.37 11.78 213.83 12.5467 213.136 13.2C212.456 13.84 211.65 14.34 210.716 14.7C209.796 15.06 208.79 15.24 207.696 15.24ZM207.676 12.48C208.303 12.48 208.876 12.3733 209.396 12.16C209.93 11.9467 210.396 11.64 210.796 11.24C211.196 10.84 211.503 10.3667 211.716 9.82C211.943 9.27333 212.056 8.66667 212.056 8C212.056 7.33333 211.943 6.72667 211.716 6.18C211.503 5.63333 211.196 5.16 210.796 4.76C210.41 4.36 209.95 4.05333 209.416 3.84C208.883 3.62667 208.303 3.52 207.676 3.52C207.05 3.52 206.47 3.62667 205.936 3.84C205.416 4.05333 204.956 4.36 204.556 4.76C204.156 5.16 203.843 5.63333 203.616 6.18C203.403 6.72667 203.296 7.33333 203.296 8C203.296 8.65333 203.403 9.26 203.616 9.82C203.843 10.3667 204.15 10.84 204.536 11.24C204.936 11.64 205.403 11.9467 205.936 12.16C206.47 12.3733 207.05 12.48 207.676 12.48ZM225.976 15V3.64H221.496V0.999999H233.696V3.64H229.216V15H225.976ZM250.539 0.999999H253.779V15H250.539V0.999999ZM244.179 15H240.939V0.999999H244.179V15ZM250.779 9.26H243.939V6.52H250.779V9.26ZM265.572 6.64H272.312V9.16H265.572V6.64ZM265.812 12.4H273.432V15H262.592V0.999999H273.172V3.6H265.812V12.4ZM281.51 15V0.999999H287.57C288.823 0.999999 289.903 1.20667 290.81 1.62C291.716 2.02 292.416 2.6 292.91 3.36C293.403 4.12 293.65 5.02667 293.65 6.08C293.65 7.12 293.403 8.02 292.91 8.78C292.416 9.52667 291.716 10.1 290.81 10.5C289.903 10.9 288.823 11.1 287.57 11.1H283.31L284.75 9.68V15H281.51ZM290.41 15L286.91 9.92H290.37L293.91 15H290.41ZM284.75 10.04L283.31 8.52H287.39C288.39 8.52 289.136 8.30667 289.63 7.88C290.123 7.44 290.37 6.84 290.37 6.08C290.37 5.30667 290.123 4.70667 289.63 4.28C289.136 3.85333 288.39 3.64 287.39 3.64H283.31L284.75 2.1V10.04ZM315.781 15V3.64H311.301V0.999999H323.501V3.64H319.021V15H315.781ZM330.744 15V0.999999H336.804C338.057 0.999999 339.137 1.20667 340.044 1.62C340.951 2.02 341.651 2.6 342.144 3.36C342.637 4.12 342.884 5.02667 342.884 6.08C342.884 7.12 342.637 8.02 342.144 8.78C341.651 9.52667 340.951 10.1 340.044 10.5C339.137 10.9 338.057 11.1 336.804 11.1H332.544L333.984 9.68V15H330.744ZM339.644 15L336.144 9.92H339.604L343.144 15H339.644ZM333.984 10.04L332.544 8.52H336.624C337.624 8.52 338.371 8.30667 338.864 7.88C339.357 7.44 339.604 6.84 339.604 6.08C339.604 5.30667 339.357 4.70667 338.864 4.28C338.371 3.85333 337.624 3.64 336.624 3.64H332.544L333.984 2.1V10.04ZM353.931 6.64H360.671V9.16H353.931V6.64ZM354.171 12.4H361.791V15H350.951V0.999999H361.531V3.6H354.171V12.4ZM368.029 15L374.269 0.999999H377.469L383.729 15H380.329L375.209 2.64H376.489L371.349 15H368.029ZM371.149 12L372.009 9.54H379.209L380.089 12H371.149ZM395.281 15.24C394.161 15.24 393.088 15.0933 392.061 14.8C391.035 14.4933 390.208 14.1 389.581 13.62L390.681 11.18C391.281 11.6067 391.988 11.96 392.801 12.24C393.628 12.5067 394.461 12.64 395.301 12.64C395.941 12.64 396.455 12.58 396.841 12.46C397.241 12.3267 397.535 12.1467 397.721 11.92C397.908 11.6933 398.001 11.4333 398.001 11.14C398.001 10.7667 397.855 10.4733 397.561 10.26C397.268 10.0333 396.881 9.85333 396.401 9.72C395.921 9.57333 395.388 9.44 394.801 9.32C394.228 9.18667 393.648 9.02667 393.061 8.84C392.488 8.65333 391.961 8.41333 391.481 8.12C391.001 7.82667 390.608 7.44 390.301 6.96C390.008 6.48 389.861 5.86667 389.861 5.12C389.861 4.32 390.075 3.59333 390.501 2.94C390.941 2.27333 391.595 1.74667 392.461 1.36C393.341 0.96 394.441 0.76 395.761 0.76C396.641 0.76 397.508 0.866666 398.361 1.08C399.215 1.28 399.968 1.58667 400.621 2L399.621 4.46C398.968 4.08667 398.315 3.81333 397.661 3.64C397.008 3.45333 396.368 3.36 395.741 3.36C395.115 3.36 394.601 3.43333 394.201 3.58C393.801 3.72667 393.515 3.92 393.341 4.16C393.168 4.38667 393.081 4.65333 393.081 4.96C393.081 5.32 393.228 5.61333 393.521 5.84C393.815 6.05333 394.201 6.22667 394.681 6.36C395.161 6.49333 395.688 6.62667 396.261 6.76C396.848 6.89333 397.428 7.04667 398.001 7.22C398.588 7.39333 399.121 7.62667 399.601 7.92C400.081 8.21333 400.468 8.6 400.761 9.08C401.068 9.56 401.221 10.1667 401.221 10.9C401.221 11.6867 401.001 12.4067 400.561 13.06C400.121 13.7133 399.461 14.24 398.581 14.64C397.715 15.04 396.615 15.24 395.281 15.24ZM415.155 15.24C413.169 15.24 411.615 14.6867 410.495 13.58C409.375 12.4733 408.815 10.8933 408.815 8.84V0.999999H412.055V8.72C412.055 10.0533 412.329 11.0133 412.875 11.6C413.422 12.1867 414.189 12.48 415.175 12.48C416.162 12.48 416.929 12.1867 417.475 11.6C418.022 11.0133 418.295 10.0533 418.295 8.72V0.999999H421.495V8.84C421.495 10.8933 420.935 12.4733 419.815 13.58C418.695 14.6867 417.142 15.24 415.155 15.24ZM430.197 15V0.999999H436.257C437.51 0.999999 438.59 1.20667 439.497 1.62C440.404 2.02 441.104 2.6 441.597 3.36C442.09 4.12 442.337 5.02667 442.337 6.08C442.337 7.12 442.09 8.02 441.597 8.78C441.104 9.52667 440.404 10.1 439.497 10.5C438.59 10.9 437.51 11.1 436.257 11.1H431.997L433.437 9.68V15H430.197ZM439.097 15L435.597 9.92H439.057L442.597 15H439.097ZM433.437 10.04L431.997 8.52H436.077C437.077 8.52 437.824 8.30667 438.317 7.88C438.81 7.44 439.057 6.84 439.057 6.08C439.057 5.30667 438.81 4.70667 438.317 4.28C437.824 3.85333 437.077 3.64 436.077 3.64H431.997L433.437 2.1V10.04ZM453.384 6.64H460.124V9.16H453.384V6.64ZM453.624 12.4H461.244V15H450.404V0.999999H460.984V3.6H453.624V12.4ZM490.086 0.999999H493.326V15H490.086V0.999999ZM483.726 15H480.486V0.999999H483.726V15ZM490.326 9.26H483.486V6.52H490.326V9.26ZM508.359 15.24C506.372 15.24 504.819 14.6867 503.699 13.58C502.579 12.4733 502.019 10.8933 502.019 8.84V0.999999H505.259V8.72C505.259 10.0533 505.532 11.0133 506.079 11.6C506.625 12.1867 507.392 12.48 508.379 12.48C509.365 12.48 510.132 12.1867 510.679 11.6C511.225 11.0133 511.499 10.0533 511.499 8.72V0.999999H514.699V8.84C514.699 10.8933 514.139 12.4733 513.019 13.58C511.899 14.6867 510.345 15.24 508.359 15.24ZM523.4 15V0.999999H526.08L534.34 11.08H533.04V0.999999H536.24V15H533.58L525.3 4.92H526.6V15H523.4ZM547.953 15V3.64H543.473V0.999999H555.673V3.64H551.193V15H547.953Z" fill="white"/>
</svg>
