<svg width="48" height="48" viewBox="0 0 48 48" fill="none" xmlns="http://www.w3.org/2000/svg">
<path fill-rule="evenodd" clip-rule="evenodd" d="M14.612 15.5161L15.298 21.6921L13.91 21.8021C12.9691 21.8774 12.0806 22.2658 11.3863 22.9053C10.6921 23.5448 10.2322 24.3985 10.08 25.3301C9.3568 29.7473 9.3568 34.2528 10.08 38.6701C10.2317 39.602 10.6915 40.4562 11.3858 41.0961C12.0801 41.736 12.9688 42.1247 13.91 42.2001L16.902 42.4401C21.626 42.8161 26.374 42.8161 31.098 42.4401L34.09 42.2001C35.0309 42.1248 35.9194 41.7363 36.6137 41.0968C37.3079 40.4573 37.7679 39.6036 37.92 38.6721C38.6432 34.2548 38.6432 29.7493 37.92 25.3321C37.7679 24.4005 37.3079 23.5468 36.6137 22.9073C35.9194 22.2678 35.0309 21.8794 34.09 21.8041L32.702 21.6941L33.388 15.5181C33.468 14.7903 33.468 14.0559 33.388 13.3281L33.342 12.9181C33.0855 10.6198 31.9908 8.49678 30.2674 6.95494C28.5439 5.4131 26.3125 4.56067 24 4.56067C21.6875 4.56067 19.4561 5.4131 17.7326 6.95494C16.0092 8.49678 14.9145 10.6198 14.658 12.9181L14.612 13.3281C14.5312 14.0558 14.5312 14.7903 14.612 15.5181V15.5161ZM24.748 7.60006C23.91 7.50153 23.0608 7.56969 22.2492 7.8006C21.4377 8.03151 20.6798 8.42062 20.0192 8.94554C19.3586 9.47046 18.8083 10.1208 18.4 10.8592C17.9916 11.5976 17.7334 12.4095 17.64 13.2481L17.594 13.6581C17.5376 14.1658 17.5376 14.6783 17.594 15.1861L18.292 21.4641C22.092 21.2201 25.906 21.2201 29.708 21.4641L30.406 15.1841C30.4623 14.6769 30.4623 14.1652 30.406 13.6581L30.36 13.2481C30.2005 11.8108 29.5589 10.4699 28.5398 9.4439C27.5207 8.4179 26.1842 7.76928 24.748 7.60006ZM24 29.0001C23.2044 29.0001 22.4413 29.3161 21.8787 29.8787C21.3161 30.4413 21 31.2044 21 32.0001C21 32.7957 21.3161 33.5588 21.8787 34.1214C22.4413 34.684 23.2044 35.0001 24 35.0001C24.7957 35.0001 25.5587 34.684 26.1213 34.1214C26.6839 33.5588 27 32.7957 27 32.0001C27 31.2044 26.6839 30.4413 26.1213 29.8787C25.5587 29.3161 24.7957 29.0001 24 29.0001Z" fill="#FDCC06"/>
</svg>
