<svg width="48" height="48" viewBox="0 0 48 48" fill="none" xmlns="http://www.w3.org/2000/svg">
<path fill-rule="evenodd" clip-rule="evenodd" d="M21.0665 7.62197C20.2311 7.74344 19.428 8.02898 18.7035 8.46215C17.9789 8.89531 17.3472 9.46754 16.8447 10.1459C16.3422 10.8242 15.9789 11.5953 15.7757 12.4146C15.5724 13.234 15.5333 14.0854 15.6605 14.92L15.7205 15.326C15.8005 15.832 15.9325 16.326 16.1185 16.802L17.9485 21.486C22.3272 21.1886 26.7218 21.2147 31.0965 21.564L34.0885 21.804C35.0291 21.8792 35.9174 22.2673 36.6117 22.9064C37.3059 23.5455 37.766 24.3988 37.9185 25.33C38.6418 29.7472 38.6418 34.2527 37.9185 38.67C37.7664 39.6015 37.3065 40.4552 36.6122 41.0948C35.918 41.7343 35.0294 42.1227 34.0885 42.198L31.0965 42.438C26.372 42.815 21.625 42.815 16.9005 42.438L13.9085 42.198C12.9676 42.1227 12.0791 41.7343 11.3849 41.0948C10.6906 40.4552 10.2307 39.6015 10.0785 38.67C9.35533 34.2527 9.35533 29.7472 10.0785 25.33C10.2304 24.3977 10.6904 23.5433 11.3851 22.9034C12.0798 22.2635 12.969 21.8749 13.9105 21.8L14.8245 21.728L13.3245 17.892C13.0593 17.2109 12.8702 16.5026 12.7605 15.78L12.6985 15.372C12.3506 13.0853 12.8581 10.7505 14.1237 8.81451C15.3894 6.87849 17.3245 5.47708 19.5587 4.87842C21.7929 4.27976 24.1694 4.52587 26.2335 5.56967C28.2976 6.61347 29.9045 8.38167 30.7465 10.536L30.8965 10.922C31.1625 11.602 31.3525 12.312 31.4625 13.036L31.7445 14.892C31.7644 15.0219 31.7585 15.1544 31.7272 15.282C31.6958 15.4096 31.6396 15.5298 31.5618 15.6356C31.484 15.7415 31.386 15.831 31.2736 15.899C31.1612 15.967 31.0364 16.0122 30.9065 16.032L29.9185 16.182C29.7887 16.2019 29.6561 16.196 29.5285 16.1646C29.4009 16.1333 29.2807 16.0771 29.1749 15.9992C29.069 15.9214 28.9795 15.8235 28.9115 15.711C28.8435 15.5986 28.7983 15.4739 28.7785 15.344L28.4985 13.488C28.4215 12.9829 28.2886 12.4878 28.1025 12.012L27.9525 11.628C27.4262 10.281 26.4593 9.15193 25.2092 8.42483C23.9591 7.69773 22.4996 7.41544 21.0685 7.62397L21.0665 7.62197ZM24.0005 29C23.2049 29 22.4418 29.316 21.8792 29.8787C21.3166 30.4413 21.0005 31.2043 21.0005 32C21.0005 32.7956 21.3166 33.5587 21.8792 34.1213C22.4418 34.6839 23.2049 35 24.0005 35C24.7962 35 25.5592 34.6839 26.1219 34.1213C26.6845 33.5587 27.0005 32.7956 27.0005 32C27.0005 31.2043 26.6845 30.4413 26.1219 29.8787C25.5592 29.316 24.7962 29 24.0005 29Z" fill="white"/>
</svg>
