<svg width="157" height="49" viewBox="0 0 157 49" fill="none" xmlns="http://www.w3.org/2000/svg">
<path d="M17.8736 33.288C16.5296 33.288 15.2416 33.112 14.0096 32.76C12.7776 32.392 11.7856 31.92 11.0336 31.344L12.3536 28.416C13.0736 28.928 13.9216 29.352 14.8976 29.688C15.8896 30.008 16.8896 30.168 17.8976 30.168C18.6656 30.168 19.2816 30.096 19.7456 29.952C20.2256 29.792 20.5776 29.576 20.8016 29.304C21.0256 29.032 21.1376 28.72 21.1376 28.368C21.1376 27.92 20.9616 27.568 20.6096 27.312C20.2576 27.04 19.7936 26.824 19.2176 26.664C18.6416 26.488 18.0016 26.328 17.2976 26.184C16.6096 26.024 15.9136 25.832 15.2096 25.608C14.5216 25.384 13.8896 25.096 13.3136 24.744C12.7376 24.392 12.2656 23.928 11.8976 23.352C11.5456 22.776 11.3696 22.04 11.3696 21.144C11.3696 20.184 11.6256 19.312 12.1376 18.528C12.6656 17.728 13.4496 17.096 14.4896 16.632C15.5456 16.152 16.8656 15.912 18.4496 15.912C19.5056 15.912 20.5456 16.04 21.5696 16.296C22.5936 16.536 23.4976 16.904 24.2816 17.4L23.0816 20.352C22.2976 19.904 21.5136 19.576 20.7296 19.368C19.9456 19.144 19.1776 19.032 18.4256 19.032C17.6736 19.032 17.0576 19.12 16.5776 19.296C16.0976 19.472 15.7536 19.704 15.5456 19.992C15.3376 20.264 15.2336 20.584 15.2336 20.952C15.2336 21.384 15.4096 21.736 15.7616 22.008C16.1136 22.264 16.5776 22.472 17.1536 22.632C17.7296 22.792 18.3616 22.952 19.0496 23.112C19.7536 23.272 20.4496 23.456 21.1376 23.664C21.8416 23.872 22.4816 24.152 23.0576 24.504C23.6336 24.856 24.0976 25.32 24.4496 25.896C24.8176 26.472 25.0016 27.2 25.0016 28.08C25.0016 29.024 24.7376 29.888 24.2096 30.672C23.6816 31.456 22.8896 32.088 21.8336 32.568C20.7936 33.048 19.4736 33.288 17.8736 33.288ZM34.2583 33.192C32.8823 33.192 31.6583 32.904 30.5863 32.328C29.5303 31.752 28.6903 30.968 28.0663 29.976C27.4583 28.968 27.1543 27.824 27.1543 26.544C27.1543 25.248 27.4583 24.104 28.0663 23.112C28.6903 22.104 29.5303 21.32 30.5863 20.76C31.6583 20.184 32.8823 19.896 34.2583 19.896C35.6183 19.896 36.8343 20.184 37.9063 20.76C38.9783 21.32 39.8183 22.096 40.4263 23.088C41.0343 24.08 41.3383 25.232 41.3383 26.544C41.3383 27.824 41.0343 28.968 40.4263 29.976C39.8183 30.968 38.9783 31.752 37.9063 32.328C36.8343 32.904 35.6183 33.192 34.2583 33.192ZM34.2583 30.12C34.8823 30.12 35.4423 29.976 35.9383 29.688C36.4343 29.4 36.8263 28.992 37.1143 28.464C37.4023 27.92 37.5463 27.28 37.5463 26.544C37.5463 25.792 37.4023 25.152 37.1143 24.624C36.8263 24.096 36.4343 23.688 35.9383 23.4C35.4423 23.112 34.8823 22.968 34.2583 22.968C33.6343 22.968 33.0743 23.112 32.5783 23.4C32.0823 23.688 31.6823 24.096 31.3783 24.624C31.0903 25.152 30.9463 25.792 30.9463 26.544C30.9463 27.28 31.0903 27.92 31.3783 28.464C31.6823 28.992 32.0823 29.4 32.5783 29.688C33.0743 29.976 33.6343 30.12 34.2583 30.12ZM44.5608 33V15.192H48.3048V33H44.5608ZM56.0036 33L50.5796 20.088H54.4436L58.9556 31.2H57.0356L61.7156 20.088H65.3156L59.8676 33H56.0036ZM73.6198 33.192C72.1478 33.192 70.8518 32.904 69.7318 32.328C68.6278 31.752 67.7718 30.968 67.1638 29.976C66.5558 28.968 66.2518 27.824 66.2518 26.544C66.2518 25.248 66.5478 24.104 67.1398 23.112C67.7478 22.104 68.5718 21.32 69.6118 20.76C70.6518 20.184 71.8278 19.896 73.1398 19.896C74.4038 19.896 75.5398 20.168 76.5478 20.712C77.5718 21.24 78.3798 22.008 78.9718 23.016C79.5638 24.008 79.8598 25.2 79.8598 26.592C79.8598 26.736 79.8518 26.904 79.8358 27.096C79.8198 27.272 79.8038 27.44 79.7878 27.6H69.2998V25.416H77.8198L76.3798 26.064C76.3798 25.392 76.2438 24.808 75.9718 24.312C75.6998 23.816 75.3238 23.432 74.8438 23.16C74.3638 22.872 73.8038 22.728 73.1638 22.728C72.5238 22.728 71.9558 22.872 71.4598 23.16C70.9798 23.432 70.6038 23.824 70.3318 24.336C70.0598 24.832 69.9238 25.424 69.9238 26.112V26.688C69.9238 27.392 70.0758 28.016 70.3798 28.56C70.6998 29.088 71.1398 29.496 71.6998 29.784C72.2758 30.056 72.9478 30.192 73.7158 30.192C74.4038 30.192 75.0038 30.088 75.5158 29.88C76.0438 29.672 76.5238 29.36 76.9558 28.944L78.9478 31.104C78.3558 31.776 77.6118 32.296 76.7158 32.664C75.8198 33.016 74.7878 33.192 73.6198 33.192ZM88.6164 33.192C87.4004 33.192 86.3044 32.92 85.3284 32.376C84.3524 31.816 83.5764 31.04 83.0004 30.048C82.4404 29.056 82.1604 27.888 82.1604 26.544C82.1604 25.184 82.4404 24.008 83.0004 23.016C83.5764 22.024 84.3524 21.256 85.3284 20.712C86.3044 20.168 87.4004 19.896 88.6164 19.896C89.7044 19.896 90.6564 20.136 91.4724 20.616C92.2884 21.096 92.9204 21.824 93.3684 22.8C93.8164 23.776 94.0404 25.024 94.0404 26.544C94.0404 28.048 93.8244 29.296 93.3924 30.288C92.9604 31.264 92.3364 31.992 91.5204 32.472C90.7204 32.952 89.7524 33.192 88.6164 33.192ZM89.2644 30.12C89.8724 30.12 90.4244 29.976 90.9204 29.688C91.4164 29.4 91.8084 28.992 92.0964 28.464C92.4004 27.92 92.5524 27.28 92.5524 26.544C92.5524 25.792 92.4004 25.152 92.0964 24.624C91.8084 24.096 91.4164 23.688 90.9204 23.4C90.4244 23.112 89.8724 22.968 89.2644 22.968C88.6404 22.968 88.0804 23.112 87.5844 23.4C87.0884 23.688 86.6884 24.096 86.3844 24.624C86.0964 25.152 85.9524 25.792 85.9524 26.544C85.9524 27.28 86.0964 27.92 86.3844 28.464C86.6884 28.992 87.0884 29.4 87.5844 29.688C88.0804 29.976 88.6404 30.12 89.2644 30.12ZM92.6484 33V30.36L92.7204 26.52L92.4804 22.704V15.192H96.2244V33H92.6484ZM106.99 33V30.48L113.47 24.36C113.982 23.896 114.358 23.48 114.598 23.112C114.838 22.744 114.998 22.408 115.078 22.104C115.174 21.8 115.222 21.52 115.222 21.264C115.222 20.592 114.99 20.08 114.526 19.728C114.078 19.36 113.414 19.176 112.534 19.176C111.83 19.176 111.174 19.312 110.566 19.584C109.974 19.856 109.47 20.28 109.054 20.856L106.222 19.032C106.862 18.072 107.758 17.312 108.91 16.752C110.062 16.192 111.39 15.912 112.894 15.912C114.142 15.912 115.23 16.12 116.158 16.536C117.102 16.936 117.83 17.504 118.342 18.24C118.87 18.976 119.134 19.856 119.134 20.88C119.134 21.424 119.062 21.968 118.918 22.512C118.79 23.04 118.518 23.6 118.102 24.192C117.702 24.784 117.11 25.448 116.326 26.184L110.95 31.248L110.206 29.832H119.686V33H106.99ZM120.517 35.4L128.437 12.792H131.773L123.853 35.4H120.517ZM138.691 33.288C137.283 33.288 136.051 33.08 134.995 32.664C133.939 32.232 133.115 31.632 132.523 30.864C131.931 30.08 131.635 29.168 131.635 28.128C131.635 27.088 131.923 26.208 132.499 25.488C133.091 24.752 133.915 24.2 134.971 23.832C136.027 23.448 137.267 23.256 138.691 23.256C140.131 23.256 141.379 23.448 142.435 23.832C143.507 24.2 144.331 24.752 144.907 25.488C145.499 26.208 145.795 27.088 145.795 28.128C145.795 29.168 145.499 30.08 144.907 30.864C144.315 31.632 143.483 32.232 142.411 32.664C141.355 33.08 140.115 33.288 138.691 33.288ZM138.691 30.432C139.667 30.432 140.435 30.216 140.995 29.784C141.571 29.352 141.859 28.76 141.859 28.008C141.859 27.256 141.571 26.672 140.995 26.256C140.435 25.824 139.667 25.608 138.691 25.608C137.731 25.608 136.971 25.824 136.411 26.256C135.851 26.672 135.571 27.256 135.571 28.008C135.571 28.76 135.851 29.352 136.411 29.784C136.971 30.216 137.731 30.432 138.691 30.432ZM138.691 25.224C137.395 25.224 136.259 25.048 135.283 24.696C134.323 24.344 133.571 23.832 133.027 23.16C132.499 22.472 132.235 21.656 132.235 20.712C132.235 19.72 132.507 18.872 133.051 18.168C133.595 17.448 134.355 16.896 135.331 16.512C136.307 16.112 137.427 15.912 138.691 15.912C139.987 15.912 141.115 16.112 142.075 16.512C143.051 16.896 143.811 17.448 144.355 18.168C144.915 18.872 145.195 19.72 145.195 20.712C145.195 21.656 144.923 22.472 144.379 23.16C143.851 23.832 143.099 24.344 142.123 24.696C141.147 25.048 140.003 25.224 138.691 25.224ZM138.691 22.944C139.507 22.944 140.147 22.76 140.611 22.392C141.091 22.024 141.331 21.52 141.331 20.88C141.331 20.208 141.083 19.688 140.587 19.32C140.107 18.952 139.475 18.768 138.691 18.768C137.923 18.768 137.299 18.952 136.819 19.32C136.339 19.688 136.099 20.208 136.099 20.88C136.099 21.52 136.331 22.024 136.795 22.392C137.259 22.76 137.891 22.944 138.691 22.944Z" fill="#FDCC06"/>
</svg>
