<svg width="48" height="48" viewBox="0 0 48 48" fill="none" xmlns="http://www.w3.org/2000/svg">
<g clip-path="url(#clip0_166_1252)">
<path d="M18.0001 32.4L11.0001 25.4C10.8171 25.2147 10.5991 25.0676 10.3587 24.9672C10.1184 24.8668 9.86056 24.8151 9.60011 24.8151C9.33966 24.8151 9.0818 24.8668 8.84148 24.9672C8.60116 25.0676 8.38316 25.2147 8.20011 25.4C8.01483 25.5831 7.86773 25.8011 7.76733 26.0414C7.66693 26.2817 7.61523 26.5396 7.61523 26.8C7.61523 27.0605 7.66693 27.3183 7.76733 27.5586C7.86773 27.799 8.01483 28.017 8.20011 28.2L16.5801 36.58C17.3601 37.36 18.6201 37.36 19.4001 36.58L40.6001 15.4C40.7854 15.217 40.9325 14.999 41.0329 14.7586C41.1333 14.5183 41.185 14.2605 41.185 14C41.185 13.7396 41.1333 13.4817 41.0329 13.2414C40.9325 13.0011 40.7854 12.7831 40.6001 12.6C40.4171 12.4147 40.1991 12.2676 39.9587 12.1672C39.7184 12.0668 39.4606 12.0151 39.2001 12.0151C38.9397 12.0151 38.6818 12.0668 38.4415 12.1672C38.2012 12.2676 37.9832 12.4147 37.8001 12.6L18.0001 32.4Z" fill="white"/>
</g>
<defs>
<clipPath id="clip0_166_1252">
<rect width="48" height="48" fill="white"/>
</clipPath>
</defs>
</svg>
