<svg width="108" height="54" viewBox="0 0 108 54" fill="none" xmlns="http://www.w3.org/2000/svg">
<rect width="108" height="54" rx="10.9821" fill="#1D2D3E"/>
<path d="M24.2086 34.2C22.2886 34.2 20.7819 33.66 19.6886 32.58C18.6086 31.5 18.0686 29.94 18.0686 27.9V20H20.6686V27.8C20.6686 29.24 20.9753 30.2867 21.5886 30.94C22.2153 31.5933 23.0953 31.92 24.2286 31.92C25.3619 31.92 26.2353 31.5933 26.8486 30.94C27.4619 30.2867 27.7686 29.24 27.7686 27.8V20H30.3286V27.9C30.3286 29.94 29.7819 31.5 28.6886 32.58C27.6086 33.66 26.1153 34.2 24.2086 34.2ZM40.3898 23.2C41.2432 23.2 42.0032 23.3667 42.6698 23.7C43.3498 24.0333 43.8832 24.5467 44.2698 25.24C44.6565 25.92 44.8498 26.8 44.8498 27.88V34H42.3498V28.2C42.3498 27.2533 42.1232 26.5467 41.6698 26.08C41.2298 25.6133 40.6098 25.38 39.8098 25.38C39.2232 25.38 38.7032 25.5 38.2498 25.74C37.7965 25.98 37.4432 26.34 37.1898 26.82C36.9498 27.2867 36.8298 27.88 36.8298 28.6V34H34.3298V23.32H36.7098V26.2L36.2898 25.32C36.6632 24.64 37.2032 24.12 37.9098 23.76C38.6298 23.3867 39.4565 23.2 40.3898 23.2ZM48.6213 34V19.16H51.1213V34H48.6213ZM59.8025 34.14C58.7092 34.14 57.7358 33.9067 56.8825 33.44C56.0292 32.96 55.3558 32.3067 54.8625 31.48C54.3692 30.6533 54.1225 29.7133 54.1225 28.66C54.1225 27.5933 54.3692 26.6533 54.8625 25.84C55.3558 25.0133 56.0292 24.3667 56.8825 23.9C57.7358 23.4333 58.7092 23.2 59.8025 23.2C60.9092 23.2 61.8892 23.4333 62.7425 23.9C63.6092 24.3667 64.2825 25.0067 64.7625 25.82C65.2558 26.6333 65.5025 27.58 65.5025 28.66C65.5025 29.7133 65.2558 30.6533 64.7625 31.48C64.2825 32.3067 63.6092 32.96 62.7425 33.44C61.8892 33.9067 60.9092 34.14 59.8025 34.14ZM59.8025 32C60.4158 32 60.9625 31.8667 61.4425 31.6C61.9225 31.3333 62.2958 30.9467 62.5625 30.44C62.8425 29.9333 62.9825 29.34 62.9825 28.66C62.9825 27.9667 62.8425 27.3733 62.5625 26.88C62.2958 26.3733 61.9225 25.9867 61.4425 25.72C60.9625 25.4533 60.4225 25.32 59.8225 25.32C59.2092 25.32 58.6625 25.4533 58.1825 25.72C57.7158 25.9867 57.3425 26.3733 57.0625 26.88C56.7825 27.3733 56.6425 27.9667 56.6425 28.66C56.6425 29.34 56.7825 29.9333 57.0625 30.44C57.3425 30.9467 57.7158 31.3333 58.1825 31.6C58.6625 31.8667 59.2025 32 59.8025 32ZM73.3931 34.14C72.2731 34.14 71.2731 33.9067 70.3931 33.44C69.5265 32.96 68.8465 32.3067 68.3531 31.48C67.8598 30.6533 67.6131 29.7133 67.6131 28.66C67.6131 27.5933 67.8598 26.6533 68.3531 25.84C68.8465 25.0133 69.5265 24.3667 70.3931 23.9C71.2731 23.4333 72.2731 23.2 73.3931 23.2C74.4331 23.2 75.3465 23.4133 76.1331 23.84C76.9331 24.2533 77.5398 24.8667 77.9531 25.68L76.0331 26.8C75.7131 26.2933 75.3198 25.92 74.8531 25.68C74.3998 25.44 73.9065 25.32 73.3731 25.32C72.7598 25.32 72.2065 25.4533 71.7131 25.72C71.2198 25.9867 70.8331 26.3733 70.5531 26.88C70.2731 27.3733 70.1331 27.9667 70.1331 28.66C70.1331 29.3533 70.2731 29.9533 70.5531 30.46C70.8331 30.9533 71.2198 31.3333 71.7131 31.6C72.2065 31.8667 72.7598 32 73.3731 32C73.9065 32 74.3998 31.88 74.8531 31.64C75.3198 31.4 75.7131 31.0267 76.0331 30.52L77.9531 31.64C77.5398 32.44 76.9331 33.06 76.1331 33.5C75.3465 33.9267 74.4331 34.14 73.3931 34.14ZM82.6566 31.62L82.7166 28.48L88.2966 23.32H91.2966L86.5566 28.08L85.2366 29.18L82.6566 31.62ZM80.6166 34V19.16H83.1166V34H80.6166ZM88.6766 34L84.7766 29.18L86.3566 27.18L91.7166 34H88.6766Z" fill="#FDCC06"/>
</svg>
