<svg width="560" height="243" viewBox="0 0 560 243" fill="none" xmlns="http://www.w3.org/2000/svg">
<g filter="url(#filter0_d_6_63)">
<path d="M77 165.062L85.1875 66.75L145 109.688L144.5 64.5625L185.938 64.1875L179.812 173.125L118.062 135.125L116.5 168.5L77 165.062Z" fill="white"/>
<path d="M77 165.062L74.0103 164.814L73.7623 167.792L76.7399 168.051L77 165.062ZM85.1875 66.75L86.937 64.3129L82.6371 61.2262L82.1978 66.501L85.1875 66.75ZM145 109.688L143.251 112.125L148.065 115.581L148 109.654L145 109.688ZM144.5 64.5625L144.473 61.5626L141.467 61.5898L141.5 64.5957L144.5 64.5625ZM185.938 64.1875L188.933 64.3559L189.113 61.1586L185.91 61.1876L185.938 64.1875ZM179.812 173.125L178.24 175.68L182.525 178.317L182.808 173.293L179.812 173.125ZM118.062 135.125L119.635 132.57L115.304 129.905L115.066 134.985L118.062 135.125ZM116.5 168.5L116.24 171.489L119.351 171.759L119.497 168.64L116.5 168.5ZM79.9897 165.311L88.1772 66.999L82.1978 66.501L74.0103 164.814L79.9897 165.311ZM83.438 69.1871L143.251 112.125L146.749 107.25L86.937 64.3129L83.438 69.1871ZM148 109.654L147.5 64.5293L141.5 64.5957L142 109.721L148 109.654ZM144.527 67.5624L185.965 67.1874L185.91 61.1876L144.473 61.5626L144.527 67.5624ZM182.942 64.0191L176.817 172.957L182.808 173.293L188.933 64.3559L182.942 64.0191ZM181.385 170.57L119.635 132.57L116.49 137.68L178.24 175.68L181.385 170.57ZM115.066 134.985L113.503 168.36L119.497 168.64L121.059 135.265L115.066 134.985ZM116.76 165.511L77.2601 162.074L76.7399 168.051L116.24 171.489L116.76 165.511Z" fill="black"/>
</g>
<g filter="url(#filter1_d_6_63)">
<path d="M233.75 61.75L235.938 126.938C235.479 137.354 232.333 146.271 226.5 153.688C221.833 159.646 215.583 164.5 207.75 168.25C198.792 172.542 189.896 174.938 181.062 175.438L174 145.875C185.958 142.708 193.896 137.021 197.812 128.812C199.729 124.729 200.479 120.958 200.062 117.5L197.062 65.4375L233.75 61.75Z" fill="white"/>
<path d="M233.75 61.75L236.748 61.6494L236.641 58.4443L233.45 58.765L233.75 61.75ZM235.938 126.938L238.935 127.069L238.94 126.953L238.936 126.837L235.938 126.938ZM226.5 153.688L224.142 151.833L224.138 151.838L226.5 153.688ZM207.75 168.25L206.455 165.544L206.454 165.544L207.75 168.25ZM181.062 175.438L178.145 176.135L178.728 178.574L181.232 178.433L181.062 175.438ZM174 145.875L173.232 142.975L170.402 143.724L171.082 146.572L174 145.875ZM197.812 128.812L200.52 130.104L200.524 130.096L200.528 130.087L197.812 128.812ZM200.062 117.5L197.067 117.673L197.073 117.766L197.084 117.859L200.062 117.5ZM197.062 65.4375L196.762 62.4525L193.902 62.74L194.067 65.6101L197.062 65.4375ZM230.752 61.8506L232.939 127.038L238.936 126.837L236.748 61.6494L230.752 61.8506ZM232.94 126.806C232.507 136.664 229.547 144.961 224.142 151.833L228.858 155.542C235.12 147.581 238.452 138.044 238.935 127.069L232.94 126.806ZM224.138 151.838C219.796 157.382 213.933 161.964 206.455 165.544L209.045 170.956C217.234 167.036 223.871 161.91 228.862 155.537L224.138 151.838ZM206.454 165.544C197.805 169.688 189.29 171.967 180.893 172.442L181.232 178.433C190.501 177.908 199.778 175.396 209.046 170.956L206.454 165.544ZM183.98 174.74L176.918 145.178L171.082 146.572L178.145 176.135L183.98 174.74ZM174.768 148.775C187.255 145.468 196.101 139.366 200.52 130.104L195.105 127.521C191.691 134.675 184.662 139.948 173.232 142.975L174.768 148.775ZM200.528 130.087C202.615 125.642 203.542 121.3 203.041 117.141L197.084 117.859C197.416 120.616 196.844 123.816 195.097 127.538L200.528 130.087ZM203.058 117.327L200.058 65.2649L194.067 65.6101L197.067 117.673L203.058 117.327ZM197.363 68.4225L234.05 64.735L233.45 58.765L196.762 62.4525L197.363 68.4225Z" fill="black"/>
</g>
<g filter="url(#filter2_d_6_63)">
<path d="M272.5 135.438L287.062 134.375L280.688 118.625L272.5 135.438ZM303.438 174.375L296.562 157.625L260.688 159.625L252.312 176.875L224 159.75L282.438 56.25L339.875 161L303.438 174.375Z" fill="white"/>
<path d="M272.5 135.438L269.803 134.124L267.521 138.809L272.718 138.43L272.5 135.438ZM287.062 134.375L287.281 137.367L291.389 137.067L289.843 133.249L287.062 134.375ZM280.688 118.625L283.468 117.499L280.94 111.254L277.99 117.312L280.688 118.625ZM303.438 174.375L300.662 175.514L301.759 178.187L304.471 177.191L303.438 174.375ZM296.562 157.625L299.338 156.486L298.527 154.511L296.396 154.63L296.562 157.625ZM260.688 159.625L260.521 156.63L258.759 156.728L257.989 158.315L260.688 159.625ZM252.312 176.875L250.76 179.442L253.575 181.144L255.011 178.185L252.312 176.875ZM224 159.75L221.388 158.275L219.956 160.81L222.447 162.317L224 159.75ZM282.438 56.25L285.068 54.8076L282.476 50.0803L279.825 54.775L282.438 56.25ZM339.875 161L340.909 163.816L344.182 162.615L342.506 159.558L339.875 161ZM272.718 138.43L287.281 137.367L286.844 131.383L272.282 132.445L272.718 138.43ZM289.843 133.249L283.468 117.499L277.907 119.751L284.282 135.501L289.843 133.249ZM277.99 117.312L269.803 134.124L275.197 136.751L283.385 119.938L277.99 117.312ZM306.213 173.236L299.338 156.486L293.787 158.764L300.662 175.514L306.213 173.236ZM296.396 154.63L260.521 156.63L260.854 162.62L296.729 160.62L296.396 154.63ZM257.989 158.315L249.614 175.565L255.011 178.185L263.386 160.935L257.989 158.315ZM253.865 174.308L225.553 157.183L222.447 162.317L250.76 179.442L253.865 174.308ZM226.612 161.225L285.05 57.725L279.825 54.775L221.388 158.275L226.612 161.225ZM279.807 57.6924L337.244 162.442L342.506 159.558L285.068 54.8076L279.807 57.6924ZM338.841 158.184L302.404 171.559L304.471 177.191L340.909 163.816L338.841 158.184Z" fill="black"/>
</g>
<g filter="url(#filter3_d_6_63)">
<path d="M393.427 58.9207L397.263 89.3674L372.823 91.88L381.797 167.602L346.266 172.079L338.926 95.3322L308.704 98.4474L305 69.0548L393.427 58.9207Z" fill="white"/>
<path d="M394.915 58.7331L394.73 57.2615L393.256 57.4304L304.829 67.5646L303.322 67.7373L303.512 69.2423L307.215 98.6349L307.399 100.09L308.857 99.9395L337.577 96.9792L344.773 172.222L344.92 173.761L346.453 173.567L381.985 169.09L383.462 168.904L383.287 167.426L374.492 93.2163L397.417 90.8595L398.943 90.7026L398.751 89.1799L394.915 58.7331Z" stroke="black" stroke-width="3"/>
</g>
<g filter="url(#filter4_d_6_63)">
<path d="M455.545 66.5173L493.429 70.1616L482.912 173.448L448.682 170.701L451.272 131.023L431.128 131.092L430.289 166.086L392.277 164.063L398.556 60.4189L432.841 61.7923L431.772 104.096L453.127 103.45L455.545 66.5173Z" fill="white"/>
<path d="M455.545 66.5173L455.832 63.5311L452.753 63.2349L452.551 66.3213L455.545 66.5173ZM493.429 70.1616L496.414 70.4655L496.72 67.4643L493.717 67.1754L493.429 70.1616ZM482.912 173.448L482.672 176.439L485.599 176.674L485.896 173.752L482.912 173.448ZM448.682 170.701L445.688 170.506L445.496 173.455L448.442 173.691L448.682 170.701ZM451.272 131.023L454.266 131.218L454.475 128.012L451.262 128.023L451.272 131.023ZM431.128 131.092L431.118 128.092L428.199 128.102L428.129 131.02L431.128 131.092ZM430.289 166.086L430.13 169.082L433.214 169.246L433.288 166.158L430.289 166.086ZM392.277 164.063L389.283 163.882L389.1 166.898L392.118 167.059L392.277 164.063ZM398.556 60.4189L398.676 57.4213L395.739 57.3036L395.561 60.2375L398.556 60.4189ZM432.841 61.7923L435.84 61.8681L435.915 58.913L432.961 58.7947L432.841 61.7923ZM431.772 104.096L428.773 104.02L428.693 107.19L431.862 107.095L431.772 104.096ZM453.127 103.45L453.218 106.449L455.943 106.366L456.121 103.646L453.127 103.45ZM455.258 69.5035L493.142 73.1478L493.717 67.1754L455.832 63.5311L455.258 69.5035ZM490.445 69.8577L479.927 173.144L485.896 173.752L496.414 70.4655L490.445 69.8577ZM483.152 170.458L448.922 167.711L448.442 173.691L482.672 176.439L483.152 170.458ZM451.675 170.897L454.266 131.218L448.278 130.828L445.688 170.506L451.675 170.897ZM451.262 128.023L431.118 128.092L431.138 134.092L451.282 134.023L451.262 128.023ZM428.129 131.02L427.29 166.014L433.288 166.158L434.127 131.164L428.129 131.02ZM430.449 163.09L392.437 161.067L392.118 167.059L430.13 169.082L430.449 163.09ZM395.272 164.245L401.55 60.6003L395.561 60.2375L389.283 163.882L395.272 164.245ZM398.436 63.4165L432.721 64.7899L432.961 58.7947L398.676 57.4213L398.436 63.4165ZM429.842 61.7165L428.773 104.02L434.771 104.172L435.84 61.8681L429.842 61.7165ZM431.862 107.095L453.218 106.449L453.036 100.452L431.681 101.097L431.862 107.095ZM456.121 103.646L458.538 66.7133L452.551 66.3213L450.134 103.254L456.121 103.646Z" fill="black"/>
</g>
<mask id="mask0_6_63" style="mask-type:alpha" maskUnits="userSpaceOnUse" x="0" y="86" width="488" height="162">
<rect y="86" width="488" height="162" fill="white"/>
</mask>
<g mask="url(#mask0_6_63)">
<g filter="url(#filter5_d_6_63)">
<path d="M523.013 229C508.525 170.334 458.389 161.4 437.013 158.5C218.661 172.902 45.0963 294.093 10 153.5C8.50006 124 20.1374 101.421 73.5 126.5" stroke="black" stroke-width="10" stroke-linecap="round" stroke-linejoin="round" stroke-dasharray="20 20"/>
<path d="M523.013 229C508.525 170.334 458.389 161.4 437.013 158.5C218.661 172.902 45.0963 294.093 10 153.5C8.50006 124 20.1374 101.421 73.5 126.5" stroke="#F2AA17" stroke-width="7" stroke-linecap="round" stroke-linejoin="round" stroke-dasharray="20 20"/>
</g>
</g>
<g clip-path="url(#clip0_6_63)">
<path d="M511.042 156.425L510.411 157.051L511.15 157.545C512.16 158.219 513.167 158.898 514.168 159.585C510.375 158.27 506.341 157.273 502.034 156.619L501.564 157.967C504.929 159.892 508.216 161.912 511.454 163.999C508.996 163.153 506.433 162.442 503.752 161.886L503.236 163.223C509.868 167.133 515.722 171.459 520.932 176.179C514.306 181.756 508.546 188.498 503.828 196.588L504.94 197.495C506.562 196.042 508.206 194.619 509.864 193.212C506.062 198.739 502.974 204.966 500.716 211.976L501.966 212.662C504.384 209.739 506.832 206.939 509.315 204.255L509.355 204.212L509.388 204.163C510.097 203.092 510.803 202.002 511.51 200.909C513.481 197.865 515.465 194.8 517.572 192.081C519.24 189.928 520.954 188.034 522.755 186.568C521.018 188.615 519.203 190.889 517.35 193.21C516.325 194.495 515.289 195.794 514.248 197.076L515.321 198.051C520.014 193.421 524.829 189.169 529.778 185.248C536.855 193.454 542.538 202.619 547.344 212.664L548.717 212.242C548.142 208.421 547.366 204.732 546.394 201.179L549.362 205.367L550.638 204.702L549.955 204.947C550.638 204.702 550.638 204.702 550.638 204.702L550.638 204.702L550.638 204.701L550.636 204.696L550.629 204.677L550.602 204.602C550.579 204.537 550.544 204.442 550.5 204.319C550.41 204.074 550.28 203.721 550.118 203.286C549.793 202.416 549.337 201.219 548.816 199.912C548.804 199.883 548.793 199.854 548.781 199.824C551.867 204.428 554.774 209.166 557.503 214.026L558.847 213.522C557.114 205.223 554.434 197.562 550.611 190.7C553.084 193.321 555.489 196.006 557.826 198.751L559.044 197.99C555.175 189.114 550.383 181.28 544.468 174.797C549.01 171.905 553.664 169.23 558.438 166.745L557.979 165.386C555.582 165.801 553.204 166.312 550.849 166.917C552.398 165.812 553.966 164.721 555.535 163.653L554.909 162.36C553.143 162.913 551.401 163.502 549.689 164.126C552.455 162.46 555.257 160.841 558.094 159.258L560.532 157.898H557.74H557.74H557.644L557.552 157.923C549.624 160.044 542.159 162.869 535.284 166.53C528.573 161.629 520.766 158.109 511.701 156.229L511.319 156.15L511.043 156.425L511.042 156.425Z" fill="#CD2D2D" stroke="black" stroke-width="1.45238"/>
</g>
<path d="M193.149 27.396C190.941 27.396 188.961 26.94 187.209 26.028C185.481 25.092 184.113 23.82 183.105 22.212C182.097 20.58 181.593 18.732 181.593 16.668C181.593 14.58 182.097 12.732 183.105 11.124C184.113 9.492 185.481 8.22 187.209 7.308C188.961 6.372 190.941 5.904 193.149 5.904C195.093 5.904 196.797 6.204 198.261 6.804C199.749 7.38 201.021 8.34 202.077 9.684L198.405 13.032C197.709 12.192 196.941 11.568 196.101 11.16C195.261 10.752 194.349 10.548 193.365 10.548C192.189 10.548 191.145 10.812 190.233 11.34C189.321 11.844 188.601 12.552 188.073 13.464C187.569 14.376 187.317 15.444 187.317 16.668C187.317 17.868 187.569 18.924 188.073 19.836C188.601 20.748 189.321 21.468 190.233 21.996C191.145 22.5 192.189 22.752 193.365 22.752C194.349 22.752 195.261 22.548 196.101 22.14C196.941 21.732 197.709 21.108 198.405 20.268L202.077 23.616C201.021 24.936 199.749 25.896 198.261 26.496C196.797 27.096 195.093 27.396 193.149 27.396ZM215 14.436H225.008V18.576H215V14.436ZM215.576 22.644H226.628V27H209.96V6.3H226.232V10.656H215.576V22.644ZM235.093 27V6.3H240.781V22.572H250.897V27H235.093ZM263.332 14.436H273.34V18.576H263.332V14.436ZM263.908 22.644H274.96V27H258.292V6.3H274.564V10.656H263.908V22.644ZM299.66 20.7C299.66 21.996 299.288 23.148 298.544 24.156C297.824 25.164 296.768 25.956 295.376 26.532C294.008 27.108 292.316 27.396 290.3 27.396C288.644 27.396 287.012 27.192 285.404 26.784C283.82 26.376 282.536 25.836 281.552 25.164L283.532 20.952C284.468 21.576 285.56 22.068 286.808 22.428C288.056 22.788 289.328 22.968 290.624 22.968C291.896 22.968 292.784 22.788 293.288 22.428C293.792 22.068 294.044 21.648 294.044 21.168C294.044 20.688 293.816 20.304 293.36 20.016C292.928 19.728 292.352 19.5 291.632 19.332C290.936 19.14 290.156 18.96 289.292 18.792C288.452 18.624 287.6 18.408 286.736 18.144C285.896 17.88 285.116 17.532 284.396 17.1C283.7 16.644 283.124 16.056 282.668 15.336C282.236 14.592 282.02 13.668 282.02 12.564C282.02 11.268 282.392 10.128 283.136 9.144C283.904 8.136 284.984 7.344 286.376 6.768C287.768 6.192 289.424 5.904 291.344 5.904C292.64 5.904 293.96 6.048 295.304 6.336C296.648 6.624 297.824 7.08 298.832 7.704L296.996 11.916C296.06 11.34 295.088 10.932 294.08 10.692C293.096 10.452 292.112 10.332 291.128 10.332C289.928 10.332 289.052 10.512 288.5 10.872C287.948 11.232 287.672 11.688 287.672 12.24C287.672 12.72 287.888 13.104 288.32 13.392C288.752 13.68 289.316 13.92 290.012 14.112C290.732 14.28 291.524 14.448 292.388 14.616C293.252 14.784 294.104 15 294.944 15.264C295.784 15.504 296.564 15.84 297.284 16.272C298.004 16.704 298.58 17.28 299.012 18C299.444 18.696 299.66 19.596 299.66 20.7ZM311.109 27V10.728H304.593V6.3H323.313V10.728H316.797V27H311.109ZM326.199 27L335.487 6.3H341.103L350.427 27H344.811L337.359 9.036H339.267L331.707 27H326.199ZM331.275 22.896L332.751 18.792H342.975L344.451 22.896H331.275ZM355.077 16.884L357.093 9.396L357.849 12.636C356.841 12.636 356.001 12.336 355.329 11.736C354.681 11.136 354.357 10.344 354.357 9.36C354.357 8.376 354.681 7.572 355.329 6.948C356.001 6.324 356.829 6.012 357.813 6.012C358.821 6.012 359.649 6.324 360.297 6.948C360.969 7.572 361.305 8.376 361.305 9.36C361.305 9.624 361.281 9.9 361.233 10.188C361.209 10.452 361.137 10.8 361.017 11.232C360.897 11.64 360.681 12.168 360.369 12.816L358.641 16.884H355.077ZM385.847 20.7C385.847 21.996 385.475 23.148 384.731 24.156C384.011 25.164 382.955 25.956 381.563 26.532C380.195 27.108 378.503 27.396 376.487 27.396C374.831 27.396 373.199 27.192 371.591 26.784C370.007 26.376 368.723 25.836 367.739 25.164L369.719 20.952C370.655 21.576 371.747 22.068 372.995 22.428C374.243 22.788 375.515 22.968 376.811 22.968C378.083 22.968 378.971 22.788 379.475 22.428C379.979 22.068 380.231 21.648 380.231 21.168C380.231 20.688 380.003 20.304 379.547 20.016C379.115 19.728 378.539 19.5 377.819 19.332C377.123 19.14 376.343 18.96 375.479 18.792C374.639 18.624 373.787 18.408 372.923 18.144C372.083 17.88 371.303 17.532 370.583 17.1C369.887 16.644 369.311 16.056 368.855 15.336C368.423 14.592 368.207 13.668 368.207 12.564C368.207 11.268 368.579 10.128 369.323 9.144C370.091 8.136 371.171 7.344 372.563 6.768C373.955 6.192 375.611 5.904 377.531 5.904C378.827 5.904 380.147 6.048 381.491 6.336C382.835 6.624 384.011 7.08 385.019 7.704L383.183 11.916C382.247 11.34 381.275 10.932 380.267 10.692C379.283 10.452 378.299 10.332 377.315 10.332C376.115 10.332 375.239 10.512 374.687 10.872C374.135 11.232 373.859 11.688 373.859 12.24C373.859 12.72 374.075 13.104 374.507 13.392C374.939 13.68 375.503 13.92 376.199 14.112C376.919 14.28 377.711 14.448 378.575 14.616C379.439 14.784 380.291 15 381.131 15.264C381.971 15.504 382.751 15.84 383.471 16.272C384.191 16.704 384.767 17.28 385.199 18C385.631 18.696 385.847 19.596 385.847 20.7Z" fill="white"/>
<defs>
<filter id="filter0_d_6_63" x="70" y="61.1875" width="122.938" height="122.938" filterUnits="userSpaceOnUse" color-interpolation-filters="sRGB">
<feFlood flood-opacity="0" result="BackgroundImageFix"/>
<feColorMatrix in="SourceAlpha" type="matrix" values="0 0 0 0 0 0 0 0 0 0 0 0 0 0 0 0 0 0 127 0" result="hardAlpha"/>
<feOffset dy="4"/>
<feGaussianBlur stdDeviation="3.5"/>
<feComposite in2="hardAlpha" operator="out"/>
<feColorMatrix type="matrix" values="0 0 0 0 0 0 0 0 0 0 0 0 0 0 0 0 0 0 1 0"/>
<feBlend mode="normal" in2="BackgroundImageFix" result="effect1_dropShadow_6_63"/>
<feBlend mode="normal" in="SourceGraphic" in2="effect1_dropShadow_6_63" result="shape"/>
</filter>
<filter id="filter1_d_6_63" x="167" y="58.75" width="75.9375" height="127.688" filterUnits="userSpaceOnUse" color-interpolation-filters="sRGB">
<feFlood flood-opacity="0" result="BackgroundImageFix"/>
<feColorMatrix in="SourceAlpha" type="matrix" values="0 0 0 0 0 0 0 0 0 0 0 0 0 0 0 0 0 0 127 0" result="hardAlpha"/>
<feOffset dy="4"/>
<feGaussianBlur stdDeviation="3.5"/>
<feComposite in2="hardAlpha" operator="out"/>
<feColorMatrix type="matrix" values="0 0 0 0 0 0 0 0 0 0 0 0 0 0 0 0 0 0 1 0"/>
<feBlend mode="normal" in2="BackgroundImageFix" result="effect1_dropShadow_6_63"/>
<feBlend mode="normal" in="SourceGraphic" in2="effect1_dropShadow_6_63" result="shape"/>
</filter>
<filter id="filter2_d_6_63" x="217" y="53.25" width="129.875" height="134.625" filterUnits="userSpaceOnUse" color-interpolation-filters="sRGB">
<feFlood flood-opacity="0" result="BackgroundImageFix"/>
<feColorMatrix in="SourceAlpha" type="matrix" values="0 0 0 0 0 0 0 0 0 0 0 0 0 0 0 0 0 0 127 0" result="hardAlpha"/>
<feOffset dy="4"/>
<feGaussianBlur stdDeviation="3.5"/>
<feComposite in2="hardAlpha" operator="out"/>
<feColorMatrix type="matrix" values="0 0 0 0 0 0 0 0 0 0 0 0 0 0 0 0 0 0 1 0"/>
<feBlend mode="normal" in2="BackgroundImageFix" result="effect1_dropShadow_6_63"/>
<feBlend mode="normal" in="SourceGraphic" in2="effect1_dropShadow_6_63" result="shape"/>
</filter>
<filter id="filter3_d_6_63" x="294.644" y="52.6024" width="112.979" height="133.84" filterUnits="userSpaceOnUse" color-interpolation-filters="sRGB">
<feFlood flood-opacity="0" result="BackgroundImageFix"/>
<feColorMatrix in="SourceAlpha" type="matrix" values="0 0 0 0 0 0 0 0 0 0 0 0 0 0 0 0 0 0 127 0" result="hardAlpha"/>
<feOffset dy="4"/>
<feGaussianBlur stdDeviation="3.5"/>
<feComposite in2="hardAlpha" operator="out"/>
<feColorMatrix type="matrix" values="0 0 0 0 0 0 0 0 0 0 0 0 0 0 0 0 0 0 1 0"/>
<feBlend mode="normal" in2="BackgroundImageFix" result="effect1_dropShadow_6_63"/>
<feBlend mode="normal" in="SourceGraphic" in2="effect1_dropShadow_6_63" result="shape"/>
</filter>
<filter id="filter4_d_6_63" x="385.047" y="57.3338" width="115.62" height="127.37" filterUnits="userSpaceOnUse" color-interpolation-filters="sRGB">
<feFlood flood-opacity="0" result="BackgroundImageFix"/>
<feColorMatrix in="SourceAlpha" type="matrix" values="0 0 0 0 0 0 0 0 0 0 0 0 0 0 0 0 0 0 127 0" result="hardAlpha"/>
<feOffset dy="4"/>
<feGaussianBlur stdDeviation="3.5"/>
<feComposite in2="hardAlpha" operator="out"/>
<feColorMatrix type="matrix" values="0 0 0 0 0 0 0 0 0 0 0 0 0 0 0 0 0 0 1 0"/>
<feBlend mode="normal" in2="BackgroundImageFix" result="effect1_dropShadow_6_63"/>
<feBlend mode="normal" in="SourceGraphic" in2="effect1_dropShadow_6_63" result="shape"/>
</filter>
<filter id="filter5_d_6_63" x="-0.123535" y="109.697" width="533.138" height="133.304" filterUnits="userSpaceOnUse" color-interpolation-filters="sRGB">
<feFlood flood-opacity="0" result="BackgroundImageFix"/>
<feColorMatrix in="SourceAlpha" type="matrix" values="0 0 0 0 0 0 0 0 0 0 0 0 0 0 0 0 0 0 127 0" result="hardAlpha"/>
<feOffset dy="4"/>
<feGaussianBlur stdDeviation="2.5"/>
<feComposite in2="hardAlpha" operator="out"/>
<feColorMatrix type="matrix" values="0 0 0 0 0 0 0 0 0 0 0 0 0 0 0 0 0 0 0.25 0"/>
<feBlend mode="normal" in2="BackgroundImageFix" result="effect1_dropShadow_6_63"/>
<feBlend mode="normal" in="SourceGraphic" in2="effect1_dropShadow_6_63" result="shape"/>
</filter>
<clipPath id="clip0_6_63">
<rect width="61" height="61" fill="white" transform="translate(499 147.5)"/>
</clipPath>
</defs>
</svg>
