<svg width="280" height="27" viewBox="0 0 280 27" fill="none" xmlns="http://www.w3.org/2000/svg">
<path d="M8.15137 26L0.82337 3.6H6.19937L12.5674 23.44H9.87937L16.5354 3.6H21.3354L27.7354 23.44H25.1434L31.6714 3.6H36.6314L29.3034 26H23.7354L18.0714 8.592H19.5434L13.7194 26H8.15137ZM51.0661 8.528C52.4315 8.528 53.6475 8.80533 54.7141 9.36C55.8021 9.89333 56.6555 10.7253 57.2741 11.856C57.8928 12.9653 58.2021 14.3947 58.2021 16.144V26H53.2101V16.912C53.2101 15.5253 52.9008 14.5013 52.2821 13.84C51.6848 13.1787 50.8315 12.848 49.7221 12.848C48.9328 12.848 48.2181 13.0187 47.5781 13.36C46.9595 13.68 46.4688 14.1813 46.1061 14.864C45.7648 15.5467 45.5941 16.4213 45.5941 17.488V26H40.6021V2.256H45.5941V13.552L44.4741 12.112C45.0928 10.96 45.9781 10.0747 47.1301 9.456C48.2821 8.83733 49.5941 8.528 51.0661 8.528ZM74.2471 26V22.64L73.9271 21.904V15.888C73.9271 14.8213 73.5965 13.9893 72.9351 13.392C72.2951 12.7947 71.3031 12.496 69.9591 12.496C69.0418 12.496 68.1351 12.6453 67.2391 12.944C66.3645 13.2213 65.6178 13.6053 64.9991 14.096L63.2071 10.608C64.1458 9.94667 65.2765 9.43467 66.5991 9.072C67.9218 8.70933 69.2658 8.528 70.6311 8.528C73.2551 8.528 75.2925 9.14667 76.7431 10.384C78.1938 11.6213 78.9191 13.552 78.9191 16.176V26H74.2471ZM68.9991 26.256C67.6551 26.256 66.5031 26.032 65.5431 25.584C64.5831 25.1147 63.8471 24.4853 63.3351 23.696C62.8231 22.9067 62.5671 22.0213 62.5671 21.04C62.5671 20.016 62.8125 19.12 63.3031 18.352C63.8151 17.584 64.6151 16.9867 65.7031 16.56C66.7911 16.112 68.2098 15.888 69.9591 15.888H74.5351V18.8H70.5031C69.3298 18.8 68.5191 18.992 68.0711 19.376C67.6445 19.76 67.4311 20.24 67.4311 20.816C67.4311 21.456 67.6765 21.968 68.1671 22.352C68.6791 22.7147 69.3725 22.896 70.2471 22.896C71.0791 22.896 71.8258 22.704 72.4871 22.32C73.1485 21.9147 73.6285 21.328 73.9271 20.56L74.6951 22.864C74.3325 23.9733 73.6711 24.816 72.7111 25.392C71.7511 25.968 70.5138 26.256 68.9991 26.256ZM91.4371 26.256C89.4105 26.256 87.8318 25.744 86.7011 24.72C85.5705 23.6747 85.0051 22.128 85.0051 20.08V4.976H89.9971V20.016C89.9971 20.7413 90.1891 21.3067 90.5731 21.712C90.9571 22.096 91.4798 22.288 92.1411 22.288C92.9305 22.288 93.6025 22.0747 94.1571 21.648L95.5011 25.168C94.9891 25.5307 94.3705 25.808 93.6451 26C92.9411 26.1707 92.2051 26.256 91.4371 26.256ZM82.3491 13.008V9.168H94.2851V13.008H82.3491ZM109.286 26V8.784H114.278V26H109.286ZM111.782 6.384C110.865 6.384 110.118 6.11733 109.542 5.584C108.966 5.05067 108.678 4.38933 108.678 3.6C108.678 2.81067 108.966 2.14933 109.542 1.616C110.118 1.08267 110.865 0.815998 111.782 0.815998C112.699 0.815998 113.446 1.072 114.022 1.584C114.598 2.07467 114.886 2.71467 114.886 3.504C114.886 4.336 114.598 5.02933 114.022 5.584C113.467 6.11733 112.721 6.384 111.782 6.384ZM125.663 26.256C124.191 26.256 122.772 26.0853 121.407 25.744C120.063 25.3813 118.996 24.9333 118.207 24.4L119.871 20.816C120.66 21.3067 121.588 21.712 122.655 22.032C123.743 22.3307 124.81 22.48 125.855 22.48C127.007 22.48 127.818 22.3413 128.287 22.064C128.778 21.7867 129.023 21.4027 129.023 20.912C129.023 20.5067 128.831 20.208 128.447 20.016C128.084 19.8027 127.594 19.6427 126.975 19.536C126.356 19.4293 125.674 19.3227 124.927 19.216C124.202 19.1093 123.466 18.9707 122.719 18.8C121.972 18.608 121.29 18.3307 120.671 17.968C120.052 17.6053 119.551 17.1147 119.167 16.496C118.804 15.8773 118.623 15.0773 118.623 14.096C118.623 13.008 118.932 12.048 119.551 11.216C120.191 10.384 121.108 9.73333 122.303 9.264C123.498 8.77333 124.927 8.528 126.591 8.528C127.764 8.528 128.959 8.656 130.175 8.912C131.391 9.168 132.404 9.54133 133.215 10.032L131.551 13.584C130.719 13.0933 129.876 12.7627 129.023 12.592C128.191 12.4 127.38 12.304 126.591 12.304C125.482 12.304 124.671 12.4533 124.159 12.752C123.647 13.0507 123.391 13.4347 123.391 13.904C123.391 14.3307 123.572 14.6507 123.935 14.864C124.319 15.0773 124.82 15.248 125.439 15.376C126.058 15.504 126.73 15.6213 127.455 15.728C128.202 15.8133 128.948 15.952 129.695 16.144C130.442 16.336 131.114 16.6133 131.711 16.976C132.33 17.3173 132.831 17.7973 133.215 18.416C133.599 19.0133 133.791 19.8027 133.791 20.784C133.791 21.8507 133.471 22.8 132.831 23.632C132.191 24.4427 131.263 25.0827 130.047 25.552C128.852 26.0213 127.391 26.256 125.663 26.256ZM148.205 26V3.6H152.493L165.709 19.728H163.629V3.6H168.749V26H164.493L151.245 9.872H153.325V26H148.205ZM179.137 26.384C177.622 26.384 176.225 26.1067 174.945 25.552C173.686 24.976 172.652 24.1653 171.841 23.12L174.721 19.664C175.34 20.4747 175.99 21.0933 176.673 21.52C177.356 21.9253 178.092 22.128 178.881 22.128C180.993 22.128 182.049 20.8907 182.049 18.416V7.76H174.177V3.6H187.201V18.128C187.201 20.9013 186.518 22.9707 185.153 24.336C183.788 25.7013 181.782 26.384 179.137 26.384ZM189.869 26L199.853 3.6H204.973L214.989 26H209.549L201.357 6.224H203.405L195.181 26H189.869ZM194.861 21.2L196.237 17.264H207.757L209.165 21.2H194.861ZM221.788 26V7.824H214.62V3.6H234.14V7.824H226.972V26H221.788ZM253.249 3.6H258.433V26H253.249V3.6ZM243.073 26H237.889V3.6H243.073V26ZM253.633 16.816H242.689V12.432H253.633V16.816ZM268.981 18.224C268.981 17.4773 269.098 16.816 269.333 16.24C269.589 15.664 269.898 15.152 270.261 14.704C270.645 14.256 271.05 13.84 271.477 13.456C271.904 13.072 272.298 12.7093 272.661 12.368C273.045 12.0053 273.354 11.632 273.589 11.248C273.845 10.864 273.973 10.4373 273.973 9.968C273.973 9.2 273.653 8.58133 273.013 8.112C272.394 7.64267 271.562 7.408 270.517 7.408C269.514 7.408 268.618 7.62133 267.829 8.048C267.04 8.45333 266.389 9.02933 265.877 9.776L262.005 7.504C262.858 6.20267 264.042 5.168 265.557 4.4C267.072 3.61067 268.906 3.216 271.061 3.216C272.661 3.216 274.069 3.45067 275.285 3.92C276.501 4.368 277.45 5.02933 278.133 5.904C278.837 6.77867 279.189 7.856 279.189 9.136C279.189 9.968 279.061 10.704 278.805 11.344C278.549 11.984 278.218 12.5387 277.813 13.008C277.408 13.4773 276.97 13.9147 276.501 14.32C276.053 14.7253 275.626 15.12 275.221 15.504C274.816 15.888 274.474 16.2933 274.197 16.72C273.941 17.1467 273.813 17.648 273.813 18.224H268.981ZM271.413 26.256C270.517 26.256 269.781 25.968 269.205 25.392C268.629 24.816 268.341 24.1333 268.341 23.344C268.341 22.5333 268.629 21.8613 269.205 21.328C269.781 20.7733 270.517 20.496 271.413 20.496C272.33 20.496 273.066 20.7733 273.621 21.328C274.197 21.8613 274.485 22.5333 274.485 23.344C274.485 24.1333 274.197 24.816 273.621 25.392C273.066 25.968 272.33 26.256 271.413 26.256Z" fill="white"/>
</svg>
