<svg width="1547" height="2037" viewBox="0 0 1547 2037" fill="none" xmlns="http://www.w3.org/2000/svg">
<g clip-path="url(#clip0_450_2902)">
<g opacity="0.2">
<mask id="mask0_450_2902" style="mask-type:alpha" maskUnits="userSpaceOnUse" x="1279" y="-61" width="320" height="325">
<rect width="341.894" height="113.497" transform="matrix(-0.696741 -0.717323 -0.717323 0.696741 1598.63 184.248)" fill="white"/>
</mask>
<g mask="url(#mask0_450_2902)">
<g filter="url(#filter0_d_450_2902)">
<path d="M1271.46 -8.7922C1308.01 -30.1484 1336.98 -9.31302 1348.87 0.0140349C1448.22 116.778 1472.03 263.163 1559.82 212.172C1575.38 198.525 1581.05 181.655 1542.39 167.08" stroke="black" stroke-width="7.00601" stroke-linecap="round" stroke-linejoin="round" stroke-dasharray="14.01 14.01"/>
<path d="M1271.46 -8.7922C1308.01 -30.1484 1336.98 -9.31302 1348.87 0.0140349C1448.22 116.778 1472.03 263.163 1559.82 212.172C1575.38 198.525 1581.05 181.655 1542.39 167.08" stroke="#F2AA17" stroke-width="4.90421" stroke-linecap="round" stroke-linejoin="round" stroke-dasharray="14.01 14.01"/>
</g>
</g>
</g>
<g opacity="0.2">
<mask id="mask1_450_2902" style="mask-type:alpha" maskUnits="userSpaceOnUse" x="-344" y="321" width="1997" height="866">
<rect width="1934.57" height="642.215" transform="matrix(0.993071 -0.117512 -0.117512 -0.993071 -268.532 1186.1)" fill="white"/>
</mask>
<g mask="url(#mask1_450_2902)">
<g filter="url(#filter1_d_450_2902)">
<path d="M1723.86 379.488C1694.16 617.197 1500.94 675.722 1418.14 697.098C551.815 742.121 -187.937 345.867 -260.609 915.708C-252.771 1032.54 -196.438 1116.01 1.95765 992.421" stroke="black" stroke-width="39.6429" stroke-linecap="round" stroke-linejoin="round" stroke-dasharray="79.29 79.29"/>
<path d="M1723.86 379.488C1694.16 617.197 1500.94 675.722 1418.14 697.098C551.815 742.121 -187.937 345.867 -260.609 915.708C-252.771 1032.54 -196.438 1116.01 1.95765 992.421" stroke="#F2AA17" stroke-width="27.75" stroke-linecap="round" stroke-linejoin="round" stroke-dasharray="79.29 79.29"/>
</g>
</g>
</g>
<g opacity="0.2">
<mask id="mask2_450_2902" style="mask-type:alpha" maskUnits="userSpaceOnUse" x="-87" y="-74" width="374" height="507">
<rect x="-87" y="355.824" width="488" height="162" transform="rotate(-61.7374 -87 355.824)" fill="white"/>
</mask>
<g mask="url(#mask2_450_2902)">
<g filter="url(#filter2_d_450_2902)">
<path d="M286.607 -37.1264C228.074 -52.1449 196.465 -12.216 183.789 5.23867C93.081 204.379 117.639 414.639 -22.8118 378.978C-49.5052 366.331 -63.8823 345.389 -16.5249 310.263" stroke="black" stroke-width="10" stroke-linecap="round" stroke-linejoin="round" stroke-dasharray="20 20"/>
<path d="M286.607 -37.1264C228.074 -52.1449 196.465 -12.216 183.789 5.23867C93.081 204.379 117.639 414.639 -22.8118 378.978C-49.5052 366.331 -63.8823 345.389 -16.5249 310.263" stroke="#F2AA17" stroke-width="7" stroke-linecap="round" stroke-linejoin="round" stroke-dasharray="20 20"/>
</g>
</g>
</g>
<g opacity="0.2" filter="url(#filter3_d_450_2902)">
<path d="M1550.7 1463.74C1590.82 1286.43 984.94 1137.24 721.287 1440.86C590.526 1616.32 321.102 1822.27 107.784 1765.49C-283.099 1661.45 -380.113 998.175 41.9273 1060.12" stroke="black" stroke-width="10" stroke-linecap="round" stroke-linejoin="round" stroke-dasharray="20 20"/>
<path d="M1550.7 1463.74C1590.82 1286.43 984.94 1137.24 721.287 1440.86C590.526 1616.32 321.102 1822.27 107.784 1765.49C-283.099 1661.45 -380.113 998.175 41.9273 1060.12" stroke="#F2AA17" stroke-width="7" stroke-linecap="round" stroke-linejoin="round" stroke-dasharray="20 20"/>
</g>
<g clip-path="url(#clip1_450_2902)">
<path d="M1239.56 1251.58L1238.81 1252.06L1239.43 1252.7C1240.28 1253.57 1241.12 1254.45 1241.95 1255.33C1238.52 1253.25 1234.79 1251.42 1230.72 1249.87L1229.97 1251.09C1232.85 1253.68 1235.64 1256.35 1238.36 1259.07C1236.14 1257.73 1233.79 1256.49 1231.28 1255.38L1230.5 1256.58C1236.15 1261.8 1240.96 1267.27 1245.05 1272.98C1237.4 1277.03 1230.34 1282.4 1224.02 1289.31L1224.92 1290.43C1226.81 1289.36 1228.72 1288.31 1230.63 1287.29C1225.75 1291.89 1221.41 1297.32 1217.72 1303.7L1218.8 1304.63C1221.78 1302.28 1224.77 1300.07 1227.76 1297.97L1227.81 1297.93L1227.85 1297.89C1228.77 1297 1229.69 1296.08 1230.62 1295.16C1233.19 1292.6 1235.77 1290.03 1238.41 1287.81C1240.49 1286.06 1242.57 1284.57 1244.64 1283.52C1242.51 1285.15 1240.25 1286.99 1237.95 1288.87C1236.68 1289.91 1235.39 1290.96 1234.1 1291.99L1234.94 1293.17C1240.51 1289.64 1246.12 1286.5 1251.78 1283.72C1256.96 1293.23 1260.58 1303.39 1263.15 1314.23L1264.59 1314.1C1264.83 1310.25 1264.85 1306.48 1264.65 1302.8L1266.67 1307.52L1268.06 1307.14L1267.34 1307.24C1268.06 1307.14 1268.06 1307.14 1268.06 1307.14L1268.06 1307.14L1268.06 1307.14L1268.06 1307.13L1268.05 1307.11L1268.04 1307.04C1268.03 1306.97 1268.02 1306.87 1268 1306.74C1267.97 1306.48 1267.91 1306.11 1267.85 1305.65C1267.71 1304.73 1267.52 1303.46 1267.29 1302.07C1267.28 1302.04 1267.28 1302.01 1267.27 1301.98C1269.32 1307.13 1271.16 1312.38 1272.79 1317.71L1274.21 1317.5C1274.28 1309.02 1273.28 1300.96 1270.99 1293.45C1272.85 1296.53 1274.64 1299.67 1276.34 1302.84L1277.69 1302.36C1275.79 1292.86 1272.76 1284.19 1268.35 1276.61C1273.4 1274.74 1278.51 1273.11 1283.71 1271.69L1283.54 1270.26C1281.11 1270.16 1278.68 1270.16 1276.25 1270.25C1278 1269.5 1279.76 1268.77 1281.52 1268.05L1281.18 1266.66C1279.34 1266.83 1277.51 1267.03 1275.71 1267.28C1278.76 1266.24 1281.84 1265.25 1284.95 1264.3L1287.62 1263.49L1284.89 1262.9L1284.89 1262.9L1284.8 1262.88L1284.7 1262.88C1276.51 1263.28 1268.61 1264.46 1261.12 1266.59C1255.6 1260.38 1248.71 1255.29 1240.25 1251.53L1239.89 1251.37L1239.56 1251.58L1239.56 1251.58Z" fill="#5C2227" stroke="black" stroke-width="1.45238"/>
</g>
<g clip-path="url(#clip2_450_2902)">
<path d="M225.04 1746.27L224.291 1746.75L224.909 1747.39C225.753 1748.26 226.593 1749.14 227.427 1750.02C223.998 1747.93 220.266 1746.11 216.194 1744.56L215.45 1745.77C218.331 1748.37 221.117 1751.04 223.841 1753.76C221.618 1752.41 219.263 1751.18 216.76 1750.07L215.973 1751.26C221.628 1756.49 226.435 1761.95 230.53 1767.67C222.874 1771.72 215.819 1777.09 209.497 1784L210.392 1785.12C212.285 1784.04 214.193 1783 216.11 1781.98C211.226 1786.58 206.891 1792.01 203.202 1798.38L204.279 1799.32C207.26 1796.97 210.245 1794.75 213.24 1792.65L213.288 1792.62L213.33 1792.58C214.249 1791.68 215.17 1790.77 216.092 1789.85C218.662 1787.29 221.249 1784.71 223.883 1782.5C225.968 1780.75 228.045 1779.26 230.115 1778.21C227.985 1779.84 225.73 1781.68 223.428 1783.56C222.155 1784.6 220.867 1785.65 219.578 1786.68L220.422 1787.86C225.987 1784.33 231.592 1781.19 237.259 1778.4C242.44 1787.92 246.057 1798.08 248.631 1808.91L250.062 1808.79C250.308 1804.94 250.329 1801.17 250.13 1797.49L252.146 1802.21L253.534 1801.83L252.814 1801.92C253.534 1801.83 253.534 1801.83 253.534 1801.83L253.534 1801.83L253.534 1801.83L253.533 1801.82L253.53 1801.8L253.52 1801.72C253.511 1801.65 253.497 1801.55 253.479 1801.42C253.444 1801.17 253.391 1800.79 253.324 1800.33C253.191 1799.41 252.999 1798.15 252.765 1796.76C252.76 1796.73 252.755 1796.7 252.75 1796.67C254.792 1801.82 256.633 1807.07 258.272 1812.39L259.692 1812.18C259.753 1803.71 258.753 1795.65 256.468 1788.14C258.33 1791.22 260.114 1794.35 261.817 1797.53L263.169 1797.05C261.264 1787.55 258.236 1778.88 253.826 1771.29C258.876 1769.43 263.99 1767.8 269.182 1766.38L269.021 1764.95C266.591 1764.85 264.158 1764.85 261.729 1764.94C263.476 1764.19 265.239 1763.45 266.999 1762.74L266.661 1761.35C264.817 1761.51 262.99 1761.72 261.184 1761.97C264.241 1760.93 267.321 1759.94 270.429 1758.99L273.099 1758.17L270.371 1757.58L270.37 1757.58L270.277 1757.56L270.182 1757.57C261.984 1757.97 254.091 1759.15 246.597 1761.27C241.074 1755.06 234.188 1749.97 225.725 1746.22L225.369 1746.06L225.04 1746.27L225.04 1746.27Z" fill="#5C2227" stroke="black" stroke-width="1.45238"/>
</g>
<g opacity="0.2">
<mask id="mask3_450_2902" style="mask-type:alpha" maskUnits="userSpaceOnUse" x="562" y="-102" width="503" height="215">
<rect x="562" y="-48.1802" width="488" height="162" transform="rotate(-6.33183 562 -48.1802)" fill="white"/>
</mask>
<g mask="url(#mask3_450_2902)">
<g filter="url(#filter4_d_450_2902)">
<path d="M1097.59 36.2667C1076.72 -20.444 1025.91 -23.7937 1004.34 -24.3188C788.911 14.0763 629.771 153.67 579.383 17.8053C574.639 -11.3493 583.715 -35.0743 639.518 -16.0332" stroke="black" stroke-width="10" stroke-linecap="round" stroke-linejoin="round" stroke-dasharray="20 20"/>
<path d="M1097.59 36.2667C1076.72 -20.444 1025.91 -23.7937 1004.34 -24.3188C788.911 14.0763 629.771 153.67 579.383 17.8053C574.639 -11.3493 583.715 -35.0743 639.518 -16.0332" stroke="#F2AA17" stroke-width="7" stroke-linecap="round" stroke-linejoin="round" stroke-dasharray="20 20"/>
</g>
</g>
</g>
</g>
<defs>
<filter id="filter0_d_450_2902" x="1264.45" y="-22.2968" width="314.222" height="254.688" filterUnits="userSpaceOnUse" color-interpolation-filters="sRGB">
<feFlood flood-opacity="0" result="BackgroundImageFix"/>
<feColorMatrix in="SourceAlpha" type="matrix" values="0 0 0 0 0 0 0 0 0 0 0 0 0 0 0 0 0 0 127 0" result="hardAlpha"/>
<feOffset dy="2.80241"/>
<feGaussianBlur stdDeviation="1.7515"/>
<feComposite in2="hardAlpha" operator="out"/>
<feColorMatrix type="matrix" values="0 0 0 0 0 0 0 0 0 0 0 0 0 0 0 0 0 0 0.25 0"/>
<feBlend mode="normal" in2="BackgroundImageFix" result="effect1_dropShadow_450_2902"/>
<feBlend mode="normal" in="SourceGraphic" in2="effect1_dropShadow_450_2902" result="shape"/>
</filter>
<filter id="filter1_d_450_2902" x="-300.252" y="355.7" width="2063.76" height="753.338" filterUnits="userSpaceOnUse" color-interpolation-filters="sRGB">
<feFlood flood-opacity="0" result="BackgroundImageFix"/>
<feColorMatrix in="SourceAlpha" type="matrix" values="0 0 0 0 0 0 0 0 0 0 0 0 0 0 0 0 0 0 127 0" result="hardAlpha"/>
<feOffset dy="15.8572"/>
<feGaussianBlur stdDeviation="9.91073"/>
<feComposite in2="hardAlpha" operator="out"/>
<feColorMatrix type="matrix" values="0 0 0 0 0 0 0 0 0 0 0 0 0 0 0 0 0 0 0.25 0"/>
<feBlend mode="normal" in2="BackgroundImageFix" result="effect1_dropShadow_450_2902"/>
<feBlend mode="normal" in="SourceGraphic" in2="effect1_dropShadow_450_2902" result="shape"/>
</filter>
<filter id="filter2_d_450_2902" x="-57.5214" y="-46.3223" width="354.13" height="443.283" filterUnits="userSpaceOnUse" color-interpolation-filters="sRGB">
<feFlood flood-opacity="0" result="BackgroundImageFix"/>
<feColorMatrix in="SourceAlpha" type="matrix" values="0 0 0 0 0 0 0 0 0 0 0 0 0 0 0 0 0 0 127 0" result="hardAlpha"/>
<feOffset dy="4"/>
<feGaussianBlur stdDeviation="2.5"/>
<feComposite in2="hardAlpha" operator="out"/>
<feColorMatrix type="matrix" values="0 0 0 0 0 0 0 0 0 0 0 0 0 0 0 0 0 0 0.25 0"/>
<feBlend mode="normal" in2="BackgroundImageFix" result="effect1_dropShadow_450_2902"/>
<feBlend mode="normal" in="SourceGraphic" in2="effect1_dropShadow_450_2902" result="shape"/>
</filter>
<filter id="filter3_d_450_2902" x="-242.998" y="1050.06" width="1805.29" height="739.041" filterUnits="userSpaceOnUse" color-interpolation-filters="sRGB">
<feFlood flood-opacity="0" result="BackgroundImageFix"/>
<feColorMatrix in="SourceAlpha" type="matrix" values="0 0 0 0 0 0 0 0 0 0 0 0 0 0 0 0 0 0 127 0" result="hardAlpha"/>
<feOffset dy="4"/>
<feGaussianBlur stdDeviation="2.5"/>
<feComposite in2="hardAlpha" operator="out"/>
<feColorMatrix type="matrix" values="0 0 0 0 0 0 0 0 0 0 0 0 0 0 0 0 0 0 0.25 0"/>
<feBlend mode="normal" in2="BackgroundImageFix" result="effect1_dropShadow_450_2902"/>
<feBlend mode="normal" in="SourceGraphic" in2="effect1_dropShadow_450_2902" result="shape"/>
</filter>
<filter id="filter4_d_450_2902" x="568.298" y="-30.3188" width="539.298" height="120.275" filterUnits="userSpaceOnUse" color-interpolation-filters="sRGB">
<feFlood flood-opacity="0" result="BackgroundImageFix"/>
<feColorMatrix in="SourceAlpha" type="matrix" values="0 0 0 0 0 0 0 0 0 0 0 0 0 0 0 0 0 0 127 0" result="hardAlpha"/>
<feOffset dy="4"/>
<feGaussianBlur stdDeviation="2.5"/>
<feComposite in2="hardAlpha" operator="out"/>
<feColorMatrix type="matrix" values="0 0 0 0 0 0 0 0 0 0 0 0 0 0 0 0 0 0 0.25 0"/>
<feBlend mode="normal" in2="BackgroundImageFix" result="effect1_dropShadow_450_2902"/>
<feBlend mode="normal" in="SourceGraphic" in2="effect1_dropShadow_450_2902" result="shape"/>
</filter>
<clipPath id="clip0_450_2902">
<rect width="1547" height="2037" fill="white"/>
</clipPath>
<clipPath id="clip1_450_2902">
<rect width="61" height="61" fill="white" transform="translate(1229.68 1240.31) rotate(12.2058)"/>
</clipPath>
<clipPath id="clip2_450_2902">
<rect width="61" height="61" fill="white" transform="translate(215.157 1735) rotate(12.2058)"/>
</clipPath>
</defs>
</svg>
