<svg width="32" height="32" viewBox="0 0 32 32" fill="none" xmlns="http://www.w3.org/2000/svg">
<g clip-path="url(#clip0_512_2901)">
<path d="M6.38437 4.74941L6.13617 4.99574L6.42702 5.18986C7.15993 5.67901 7.88968 6.17415 8.61367 6.67606C6.43134 5.86567 4.09382 5.25963 1.57726 4.87761L1.39248 5.40807C3.39827 6.55578 5.35155 7.76726 7.27322 9.02128C5.75516 8.45543 4.15891 7.9894 2.47384 7.63995L2.27072 8.16584C5.78949 10.2403 8.89187 12.5383 11.6505 15.0471C8.14746 17.9793 5.1042 21.5307 2.61525 25.799L3.05273 26.1558C4.08838 25.2278 5.14052 24.3238 6.20207 23.4302C4.01743 26.4704 2.2558 29.9263 0.990749 33.8525L1.48287 34.1222C2.75208 32.5875 4.03785 31.1175 5.34151 29.7081L5.3572 29.6911L5.36996 29.6719C5.74071 29.1121 6.11017 28.5414 6.48085 27.9689C7.51547 26.3708 8.55954 24.7581 9.66744 23.3281C10.7549 21.9245 11.8855 20.7225 13.0999 19.8996C12.0224 21.1297 10.8782 22.5633 9.70358 24.0351C9.16523 24.7097 8.62048 25.3923 8.0728 26.067L8.49529 26.4504C10.9822 23.9971 13.5344 21.7456 16.1586 19.6705C19.9051 24.0008 22.9091 28.8395 25.4469 34.1429L25.9872 33.9771C25.6576 31.7861 25.2015 29.6781 24.6229 27.6565L26.4974 30.3013L26.9995 30.0397L26.7305 30.1361L26.9995 30.0397L26.9994 30.0395L26.9992 30.0388L26.9982 30.0363L26.9946 30.0263L26.9807 29.9875L26.9268 29.8393C26.88 29.7109 26.8118 29.5256 26.7267 29.2976C26.5564 28.8417 26.3178 28.2146 26.0445 27.5298C25.9294 27.2412 25.8077 26.9414 25.6821 26.6391C27.4935 29.2927 29.1907 32.0333 30.7731 34.8521L31.3019 34.6538C30.3367 30.0299 28.81 25.7867 26.6004 22.024C28.0903 23.5814 29.5348 25.182 30.932 26.8237L31.4115 26.5243C29.3681 21.8371 26.835 17.7078 23.7054 14.3004C26.1208 12.7582 28.5962 11.3332 31.1369 10.0112L30.9562 9.47625C29.5319 9.72299 28.1199 10.0344 26.7244 10.4095C27.6738 9.72627 28.6384 9.05244 29.6044 8.39462L29.3582 7.88583C28.106 8.27843 26.8767 8.70497 25.6782 9.16403C27.4105 8.104 29.1688 7.08099 30.9539 6.0849L31.9131 5.54968H30.8147H30.8145H30.7769L30.7406 5.5594C26.5672 6.67621 22.6402 8.16472 19.0263 10.0949C15.5063 7.5139 11.408 5.66021 6.6437 4.67238L6.49339 4.64122L6.38443 4.74935L6.38437 4.74941Z" fill="#FF0000" stroke="black" stroke-width="0.571429"/>
</g>
<defs>
<clipPath id="clip0_512_2901">
<rect width="32" height="32" fill="white"/>
</clipPath>
</defs>
</svg>
