<svg width="224" height="97" viewBox="0 0 224 97" fill="none" xmlns="http://www.w3.org/2000/svg">
<g filter="url(#filter0_d_11_2437)">
<path d="M30.7183 66.0162L33.9791 26.8615L57.8005 43.9621L57.6014 25.9903L74.1046 25.8409L71.6652 69.2273L47.0722 54.0931L46.4499 67.3853L30.7183 66.0162Z" fill="white"/>
<path d="M30.7183 66.0162L29.5276 65.9171L29.4288 67.1034L30.6147 67.2066L30.7183 66.0162ZM33.9791 26.8615L34.6759 25.8909L32.9634 24.6615L32.7884 26.7623L33.9791 26.8615ZM57.8005 43.9621L57.1037 44.9327L59.0214 46.3094L58.9952 43.9489L57.8005 43.9621ZM57.6014 25.9903L57.5906 24.7955L56.3934 24.8064L56.4066 26.0035L57.6014 25.9903ZM74.1046 25.8409L75.2975 25.908L75.3691 24.6346L74.0938 24.6462L74.1046 25.8409ZM71.6652 69.2273L71.039 70.2449L72.7457 71.2951L72.8582 69.2944L71.6652 69.2273ZM47.0722 54.0931L47.6984 53.0755L45.9734 52.014L45.8787 54.0372L47.0722 54.0931ZM46.4499 67.3853L46.3463 68.5756L47.5852 68.6834L47.6434 67.4412L46.4499 67.3853ZM31.9089 66.1154L35.1698 26.9606L32.7884 26.7623L29.5276 65.9171L31.9089 66.1154ZM33.2823 27.8321L57.1037 44.9327L58.4973 42.9915L34.6759 25.8909L33.2823 27.8321ZM58.9952 43.9489L58.7961 25.977L56.4066 26.0035L56.6058 43.9754L58.9952 43.9489ZM57.6122 27.185L74.1154 27.0357L74.0938 24.6462L57.5906 24.7955L57.6122 27.185ZM72.9117 25.7738L70.4723 69.1602L72.8582 69.2944L75.2975 25.908L72.9117 25.7738ZM72.2914 68.2097L47.6984 53.0755L46.446 55.1107L71.039 70.2449L72.2914 68.2097ZM45.8787 54.0372L45.2564 67.3294L47.6434 67.4412L48.2657 54.149L45.8787 54.0372ZM46.5535 66.195L30.8218 64.8259L30.6147 67.2066L46.3463 68.5756L46.5535 66.195Z" fill="black"/>
</g>
<g filter="url(#filter1_d_11_2437)">
<path d="M93.1466 24.8701L94.0178 50.8323C93.8353 54.9809 92.5824 58.5321 90.2592 61.4859C88.4006 63.859 85.9114 65.7922 82.7917 67.2857C79.2238 68.995 75.6809 69.9491 72.1629 70.1483L69.3501 58.3745C74.1127 57.1133 77.274 54.8481 78.8339 51.579C79.5972 49.9528 79.8959 48.451 79.73 47.0736L78.5352 26.3388L93.1466 24.8701Z" fill="white"/>
<path d="M93.1466 24.8701L94.3408 24.8301L94.2979 23.5536L93.0271 23.6813L93.1466 24.8701ZM94.0178 50.8323L95.2115 50.8848L95.2135 50.8385L95.212 50.7922L94.0178 50.8323ZM90.2592 61.4859L89.3201 60.7473L89.3186 60.7492L90.2592 61.4859ZM82.7917 67.2857L82.2757 66.208L82.2754 66.2082L82.7917 67.2857ZM72.1629 70.1483L71.0008 70.4259L71.2329 71.3976L72.2304 71.3412L72.1629 70.1483ZM69.3501 58.3745L69.0442 57.2195L67.9171 57.518L68.188 58.6521L69.3501 58.3745ZM78.8339 51.579L79.9122 52.0936L79.9154 52.0867L78.8339 51.579ZM79.73 47.0736L78.5371 47.1423L78.5393 47.1795L78.5437 47.2165L79.73 47.0736ZM78.5352 26.3388L78.4157 25.1499L77.2765 25.2644L77.3423 26.4075L78.5352 26.3388ZM91.9525 24.9102L92.8237 50.8723L95.212 50.7922L94.3408 24.8301L91.9525 24.9102ZM92.8242 50.7797C92.6514 54.7062 91.4726 58.0105 89.3201 60.7473L91.1983 62.2246C93.6923 59.0537 95.0192 55.2556 95.2115 50.8848L92.8242 50.7797ZM89.3186 60.7492C87.5891 62.9574 85.2541 64.7822 82.2757 66.208L83.3076 68.3634C86.5687 66.8022 89.2121 64.7605 91.1998 62.2227L89.3186 60.7492ZM82.2754 66.2082C78.831 67.8583 75.4397 68.7661 72.0953 68.9554L72.2304 71.3412C75.9221 71.1322 79.6167 70.1316 83.3079 68.3633L82.2754 66.2082ZM73.325 69.8707L70.5122 58.0968L68.188 58.6521L71.0008 70.4259L73.325 69.8707ZM69.656 59.5295C74.629 58.2126 78.1521 55.7823 79.9122 52.0936L77.7555 51.0645C76.3959 53.914 73.5965 56.014 69.0442 57.2195L69.656 59.5295ZM79.9154 52.0867C80.7464 50.3165 81.1158 48.5872 80.9162 46.9307L78.5437 47.2165C78.6761 48.3147 78.4481 49.589 77.7523 51.0713L79.9154 52.0867ZM80.9228 47.0049L79.728 26.27L77.3423 26.4075L78.5371 47.1423L80.9228 47.0049ZM78.6547 27.5276L93.2661 26.059L93.0271 23.6813L78.4157 25.1499L78.6547 27.5276Z" fill="black"/>
</g>
<g filter="url(#filter2_d_11_2437)">
<path d="M108.58 54.2175L114.379 53.7944L111.841 47.5217L108.58 54.2175ZM120.901 69.7251L118.163 63.0541L103.875 63.8507L100.54 70.7208L89.2637 63.9004L112.537 22.6797L135.413 64.3983L120.901 69.7251Z" fill="white"/>
<path d="M108.58 54.2175L107.505 53.6944L106.597 55.5602L108.667 55.4092L108.58 54.2175ZM114.379 53.7944L114.466 54.986L116.102 54.8667L115.487 53.3461L114.379 53.7944ZM111.841 47.5217L112.948 47.0734L111.941 44.5859L110.766 46.9985L111.841 47.5217ZM120.901 69.7251L119.796 70.1788L120.233 71.2432L121.313 70.8467L120.901 69.7251ZM118.163 63.0541L119.268 62.6004L118.945 61.8138L118.097 61.8612L118.163 63.0541ZM103.875 63.8507L103.809 62.6577L103.107 62.6968L102.8 63.3288L103.875 63.8507ZM100.54 70.7208L99.9213 71.7431L101.042 72.4212L101.614 71.2426L100.54 70.7208ZM89.2637 63.9004L88.2232 63.313L87.6532 64.3227L88.6453 64.9228L89.2637 63.9004ZM112.537 22.6797L113.585 22.1052L112.553 20.2225L111.497 22.0922L112.537 22.6797ZM135.413 64.3983L135.825 65.5199L137.128 65.0414L136.461 63.8238L135.413 64.3983ZM108.667 55.4092L114.466 54.986L114.293 52.6027L108.493 53.0259L108.667 55.4092ZM115.487 53.3461L112.948 47.0734L110.733 47.9699L113.272 54.2427L115.487 53.3461ZM110.766 46.9985L107.505 53.6944L109.654 54.7407L112.915 48.0448L110.766 46.9985ZM122.006 69.2714L119.268 62.6004L117.058 63.5078L119.796 70.1788L122.006 69.2714ZM118.097 61.8612L103.809 62.6577L103.942 65.0436L118.23 64.2471L118.097 61.8612ZM102.8 63.3288L99.4648 70.199L101.614 71.2426L104.95 64.3725L102.8 63.3288ZM101.158 69.6984L89.882 62.8781L88.6453 64.9228L99.9213 71.7431L101.158 69.6984ZM90.3041 64.4879L113.578 23.2671L111.497 22.0922L88.2232 63.313L90.3041 64.4879ZM111.49 23.2541L134.365 64.9727L136.461 63.8238L113.585 22.1052L111.49 23.2541ZM135.001 63.2767L120.489 68.6035L121.313 70.8467L135.825 65.5199L135.001 63.2767Z" fill="black"/>
</g>
<g filter="url(#filter3_d_11_2437)">
<path d="M156.741 23.4662L158.269 35.5922L148.535 36.5929L152.109 66.7506L137.958 68.5337L135.035 37.9678L122.998 39.2085L121.523 27.5024L156.741 23.4662Z" fill="white"/>
<path d="M157.334 23.3916L157.26 22.8055L156.673 22.8727L121.455 26.9089L120.855 26.9776L120.931 27.5771L122.406 39.2832L122.479 39.8626L123.06 39.8028L134.498 38.6238L137.364 68.5906L137.422 69.2034L138.033 69.1264L152.184 67.3434L152.772 67.2692L152.703 66.6803L149.2 37.1251L158.33 36.1865L158.938 36.124L158.862 35.5175L157.334 23.3916Z" stroke="black" stroke-width="1.19481"/>
</g>
<g filter="url(#filter4_d_11_2437)">
<path d="M181.47 26.7686L196.558 28.22L192.369 69.3559L178.736 68.2617L179.768 52.4591L171.745 52.4865L171.411 66.4237L156.272 65.618L158.773 24.3398L172.427 24.8867L172.001 41.7349L180.507 41.4778L181.47 26.7686Z" fill="white"/>
<path d="M181.47 26.7686L181.584 25.5793L180.358 25.4613L180.277 26.6905L181.47 26.7686ZM196.558 28.22L197.746 28.341L197.868 27.1457L196.672 27.0307L196.558 28.22ZM192.369 69.3558L192.273 70.5468L193.439 70.6404L193.558 69.4769L192.369 69.3558ZM178.736 68.2617L177.544 68.1839L177.467 69.3585L178.641 69.4527L178.736 68.2617ZM179.768 52.4592L180.96 52.537L181.043 51.26L179.764 51.2644L179.768 52.4592ZM171.745 52.4865L171.741 51.2917L170.579 51.2957L170.551 52.4579L171.745 52.4865ZM171.411 66.4237L171.348 67.6168L172.576 67.6822L172.606 66.4524L171.411 66.4237ZM156.272 65.618L155.079 65.5458L155.007 66.7471L156.209 66.8111L156.272 65.618ZM158.773 24.3398L158.82 23.1459L157.651 23.0991L157.58 24.2675L158.773 24.3398ZM172.427 24.8867L173.622 24.9169L173.651 23.74L172.475 23.6929L172.427 24.8867ZM172.001 41.7349L170.807 41.7048L170.775 42.9674L172.038 42.9292L172.001 41.7349ZM180.507 41.4778L180.543 42.672L181.628 42.6392L181.699 41.5558L180.507 41.4778ZM181.355 27.9579L196.443 29.4093L196.672 27.0307L181.584 25.5793L181.355 27.9579ZM195.369 28.0989L191.18 69.2348L193.558 69.4769L197.746 28.341L195.369 28.0989ZM192.465 68.1649L178.832 67.0707L178.641 69.4527L192.273 70.5468L192.465 68.1649ZM179.928 68.3395L180.96 52.537L178.576 52.3813L177.544 68.1839L179.928 68.3395ZM179.764 51.2644L171.741 51.2917L171.749 53.6813L179.772 53.6539L179.764 51.2644ZM170.551 52.4579L170.217 66.3951L172.606 66.4524L172.94 52.5152L170.551 52.4579ZM171.475 65.2306L156.336 64.4249L156.209 66.8111L171.348 67.6168L171.475 65.2306ZM157.465 65.6902L159.965 24.412L157.58 24.2675L155.079 65.5458L157.465 65.6902ZM158.725 25.5336L172.379 26.0806L172.475 23.6929L158.82 23.1459L158.725 25.5336ZM171.233 24.8566L170.807 41.7048L173.196 41.7651L173.622 24.9169L171.233 24.8566ZM172.038 42.9292L180.543 42.672L180.471 40.2835L171.965 40.5407L172.038 42.9292ZM181.699 41.5558L182.662 26.8466L180.277 26.6905L179.314 41.3997L181.699 41.5558Z" fill="black"/>
</g>
<mask id="mask0_11_2437" style="mask-type:alpha" maskUnits="userSpaceOnUse" x="0" y="34" width="195" height="65">
<rect x="0.0512695" y="34.2511" width="194.355" height="64.5195" fill="white"/>
</mask>
<g mask="url(#mask0_11_2437)">
<g filter="url(#filter5_d_11_2437)">
<path d="M208.351 91.2036C202.581 67.8386 182.613 64.2807 174.1 63.1256C87.1372 68.8613 18.0118 117.128 4.03408 61.1342C3.43669 49.3853 8.07149 40.3926 29.3241 50.3809" stroke="black" stroke-width="3.98268" stroke-linecap="round" stroke-linejoin="round" stroke-dasharray="7.97 7.97"/>
<path d="M208.351 91.2036C202.581 67.8386 182.613 64.2807 174.1 63.1256C87.1372 68.8613 18.0118 117.128 4.03408 61.1342C3.43669 49.3853 8.07149 40.3926 29.3241 50.3809" stroke="#F2AA17" stroke-width="2.78788" stroke-linecap="round" stroke-linejoin="round" stroke-dasharray="7.97 7.97"/>
</g>
</g>
<g clip-path="url(#clip0_11_2437)">
<path d="M203.583 62.2994L203.332 62.5487L203.626 62.745C204.028 63.0134 204.429 63.2842 204.828 63.5576C203.318 63.0341 201.711 62.6368 199.995 62.3763L199.808 62.9133C201.148 63.6801 202.458 64.4845 203.747 65.3155C202.768 64.9785 201.747 64.6956 200.68 64.4742L200.474 65.0065C203.115 66.5637 205.447 68.2868 207.522 70.1664C204.883 72.3875 202.589 75.073 200.71 78.2949L201.153 78.656C201.799 78.0771 202.454 77.5105 203.114 76.9503C201.6 79.1517 200.37 81.6315 199.47 84.4234L199.968 84.6964C200.931 83.5322 201.907 82.4172 202.895 81.3482L202.911 81.331L202.924 81.3115C203.207 80.8851 203.488 80.4509 203.769 80.0157C204.554 78.8032 205.345 77.5827 206.184 76.4997C206.848 75.6424 207.531 74.888 208.248 74.304C207.556 75.1192 206.833 76.0251 206.095 76.9496C205.687 77.4611 205.274 77.9784 204.86 78.4892L205.287 78.8774C207.156 77.0336 209.074 75.3402 211.045 73.7783C213.863 77.0467 216.127 80.6969 218.041 84.6972L218.588 84.5294C218.359 83.0075 218.05 81.5382 217.663 80.1233L218.845 81.7913L219.353 81.5265L219.081 81.624L219.353 81.5265L219.353 81.5263L219.353 81.5258L219.352 81.5238L219.349 81.5162L219.339 81.4867L219.298 81.374C219.262 81.2763 219.21 81.1355 219.146 80.9622C219.016 80.6157 218.835 80.1391 218.627 79.6185C218.622 79.6069 218.618 79.5953 218.613 79.5837C219.842 81.4171 221 83.3042 222.087 85.2398L222.622 85.0391C221.932 81.734 220.865 78.6829 219.342 75.9496C220.327 76.9937 221.285 78.0629 222.215 79.1561L222.701 78.8531C221.16 75.318 219.251 72.198 216.896 69.6163C218.705 68.4644 220.558 67.3989 222.459 66.4094L222.277 65.8679C221.322 66.0332 220.375 66.2368 219.437 66.478C220.054 66.0378 220.678 65.6034 221.303 65.1777L221.054 64.6627C220.351 64.8832 219.657 65.1178 218.975 65.3661C220.077 64.7028 221.192 64.0581 222.322 63.4275L223.293 62.8858H222.181H222.181H222.143L222.107 62.8956C218.949 63.7406 215.976 64.8657 213.238 66.3236C210.565 64.3719 207.456 62.9698 203.846 62.2212L203.693 62.1896L203.583 62.2994L203.583 62.2994Z" fill="#CD2D2D" stroke="black" stroke-width="0.578437"/>
</g>
<defs>
<filter id="filter0_d_11_2437" x="27.9304" y="24.6461" width="48.962" height="48.9621" filterUnits="userSpaceOnUse" color-interpolation-filters="sRGB">
<feFlood flood-opacity="0" result="BackgroundImageFix"/>
<feColorMatrix in="SourceAlpha" type="matrix" values="0 0 0 0 0 0 0 0 0 0 0 0 0 0 0 0 0 0 127 0" result="hardAlpha"/>
<feOffset dy="1.59307"/>
<feGaussianBlur stdDeviation="1.39394"/>
<feComposite in2="hardAlpha" operator="out"/>
<feColorMatrix type="matrix" values="0 0 0 0 0 0 0 0 0 0 0 0 0 0 0 0 0 0 1 0"/>
<feBlend mode="normal" in2="BackgroundImageFix" result="effect1_dropShadow_11_2437"/>
<feBlend mode="normal" in="SourceGraphic" in2="effect1_dropShadow_11_2437" result="shape"/>
</filter>
<filter id="filter1_d_11_2437" x="66.5622" y="23.6753" width="30.2437" height="50.8539" filterUnits="userSpaceOnUse" color-interpolation-filters="sRGB">
<feFlood flood-opacity="0" result="BackgroundImageFix"/>
<feColorMatrix in="SourceAlpha" type="matrix" values="0 0 0 0 0 0 0 0 0 0 0 0 0 0 0 0 0 0 127 0" result="hardAlpha"/>
<feOffset dy="1.59307"/>
<feGaussianBlur stdDeviation="1.39394"/>
<feComposite in2="hardAlpha" operator="out"/>
<feColorMatrix type="matrix" values="0 0 0 0 0 0 0 0 0 0 0 0 0 0 0 0 0 0 1 0"/>
<feBlend mode="normal" in2="BackgroundImageFix" result="effect1_dropShadow_11_2437"/>
<feBlend mode="normal" in="SourceGraphic" in2="effect1_dropShadow_11_2437" result="shape"/>
</filter>
<filter id="filter2_d_11_2437" x="86.4758" y="21.4849" width="51.7252" height="53.6169" filterUnits="userSpaceOnUse" color-interpolation-filters="sRGB">
<feFlood flood-opacity="0" result="BackgroundImageFix"/>
<feColorMatrix in="SourceAlpha" type="matrix" values="0 0 0 0 0 0 0 0 0 0 0 0 0 0 0 0 0 0 127 0" result="hardAlpha"/>
<feOffset dy="1.59307"/>
<feGaussianBlur stdDeviation="1.39394"/>
<feComposite in2="hardAlpha" operator="out"/>
<feColorMatrix type="matrix" values="0 0 0 0 0 0 0 0 0 0 0 0 0 0 0 0 0 0 1 0"/>
<feBlend mode="normal" in2="BackgroundImageFix" result="effect1_dropShadow_11_2437"/>
<feBlend mode="normal" in="SourceGraphic" in2="effect1_dropShadow_11_2437" result="shape"/>
</filter>
<filter id="filter3_d_11_2437" x="117.399" y="20.9499" width="44.9962" height="53.3042" filterUnits="userSpaceOnUse" color-interpolation-filters="sRGB">
<feFlood flood-opacity="0" result="BackgroundImageFix"/>
<feColorMatrix in="SourceAlpha" type="matrix" values="0 0 0 0 0 0 0 0 0 0 0 0 0 0 0 0 0 0 127 0" result="hardAlpha"/>
<feOffset dy="1.59307"/>
<feGaussianBlur stdDeviation="1.39394"/>
<feComposite in2="hardAlpha" operator="out"/>
<feColorMatrix type="matrix" values="0 0 0 0 0 0 0 0 0 0 0 0 0 0 0 0 0 0 1 0"/>
<feBlend mode="normal" in2="BackgroundImageFix" result="effect1_dropShadow_11_2437"/>
<feBlend mode="normal" in="SourceGraphic" in2="effect1_dropShadow_11_2437" result="shape"/>
</filter>
<filter id="filter4_d_11_2437" x="153.392" y="23.1111" width="46.0479" height="50.7273" filterUnits="userSpaceOnUse" color-interpolation-filters="sRGB">
<feFlood flood-opacity="0" result="BackgroundImageFix"/>
<feColorMatrix in="SourceAlpha" type="matrix" values="0 0 0 0 0 0 0 0 0 0 0 0 0 0 0 0 0 0 127 0" result="hardAlpha"/>
<feOffset dy="1.59307"/>
<feGaussianBlur stdDeviation="1.39394"/>
<feComposite in2="hardAlpha" operator="out"/>
<feColorMatrix type="matrix" values="0 0 0 0 0 0 0 0 0 0 0 0 0 0 0 0 0 0 1 0"/>
<feBlend mode="normal" in2="BackgroundImageFix" result="effect1_dropShadow_11_2437"/>
<feBlend mode="normal" in="SourceGraphic" in2="effect1_dropShadow_11_2437" result="shape"/>
</filter>
<filter id="filter5_d_11_2437" x="0.00231028" y="43.689" width="212.332" height="53.0909" filterUnits="userSpaceOnUse" color-interpolation-filters="sRGB">
<feFlood flood-opacity="0" result="BackgroundImageFix"/>
<feColorMatrix in="SourceAlpha" type="matrix" values="0 0 0 0 0 0 0 0 0 0 0 0 0 0 0 0 0 0 127 0" result="hardAlpha"/>
<feOffset dy="1.59307"/>
<feGaussianBlur stdDeviation="0.995671"/>
<feComposite in2="hardAlpha" operator="out"/>
<feColorMatrix type="matrix" values="0 0 0 0 0 0 0 0 0 0 0 0 0 0 0 0 0 0 0.25 0"/>
<feBlend mode="normal" in2="BackgroundImageFix" result="effect1_dropShadow_11_2437"/>
<feBlend mode="normal" in="SourceGraphic" in2="effect1_dropShadow_11_2437" result="shape"/>
</filter>
<clipPath id="clip0_11_2437">
<rect width="24.2944" height="24.2944" fill="white" transform="translate(198.787 58.7446)"/>
</clipPath>
</defs>
</svg>
