<svg width="116" height="42" viewBox="0 0 116 42" fill="none" xmlns="http://www.w3.org/2000/svg">
<path d="M13.3514 7.84719C13.3514 7.95269 13.3098 8.08319 13.2265 8.23867L13.0932 8.45524L13.0099 8.8967L12.4435 10.1128L12.2186 10.9624L12.052 11.1707C12.052 11.3261 12.0326 11.44 11.9937 11.5122C11.9604 11.5844 11.8826 11.6815 11.7605 11.8037L11.5533 12.0624C11.5533 12.4678 11.419 12.7782 11.319 12.9448L10.9942 13.5029L10.686 14.5274C10.5138 14.9217 10.462 15.1133 10.462 15.1855C10.462 15.1688 10.4731 15.2105 10.4953 15.3104L10.3611 15.5353L10.1945 15.9934L10.0529 16.2183L9.95297 16.7098L9.78638 17.1096L9.80305 17.4261L9.49485 17.8593C9.45044 17.9314 9.42822 18.0397 9.42822 18.1841L8.87264 18.6422C8.60584 18.8117 7.77975 19.0609 7.79849 19.0627C7.79849 19.0627 6.85833 18.6764 6.75695 18.7005L6.58203 18.3757L6.19055 17.3012L6.02396 16.6515V16.6348V16.4099L5.95731 16.2267L5.88235 16.2433L5.63246 15.5436L5.71576 15.3521C5.6269 15.3243 5.56305 15.2938 5.52418 15.2604C5.49087 15.2271 5.452 15.1661 5.40758 15.0772C5.452 14.9439 5.4742 14.8662 5.4742 14.844C5.4742 14.7995 5.46865 14.7524 5.45753 14.7024C5.41311 14.6468 5.36871 14.5969 5.32428 14.5525L5.06606 14.4025C5.02163 14.3859 4.99943 14.2998 4.99943 14.1443L5.01608 13.9361L4.93278 13.8028L4.85782 13.5279L4.60793 13.303L4.3164 12.5367L4.18314 12.3201L4.19979 12.0952L3.99155 11.8037L4.24977 11.5871L4.09151 11.4289H3.94156C3.88605 11.4289 3.83885 11.4233 3.79998 11.4122L3.29187 10.421C3.35852 10.3211 3.39183 10.2433 3.39183 10.1878L3.34185 9.99621L3.06698 9.89625L2.8171 9.42148H2.68084L1.70605 7.2434C1.70605 7.2434 2.55312 6.97256 2.68084 6.75601C2.64197 6.75601 2.75858 6.70603 2.68084 6.75601C2.69196 6.75601 3.34531 6.85563 3.41194 6.87786L3.82496 6.66757L3.89933 7.36525C3.89933 7.40968 3.99374 7.50343 3.89933 7.60895V7.7308L4.14303 7.55565C4.15414 7.58897 4.9078 8.18315 4.9078 8.23867C4.9078 8.35527 5.06606 8.44176 4.87412 8.58374L4.95778 8.59683L4.9911 8.82174C4.9911 8.9217 5.01608 8.98277 5.06606 9.005L5.24929 9.1799L5.42422 9.78795L5.72409 10.2877L5.79905 10.7625L6.01562 11.1373L5.91566 11.4122V11.6288C5.91566 11.762 5.924 11.8453 5.94066 11.8787C5.96286 11.912 6.01563 11.937 6.09892 11.9536C6.16555 11.8759 6.22387 11.837 6.27382 11.837C6.28494 11.837 6.29605 11.8426 6.30716 11.8537C6.32936 11.8759 6.34603 11.887 6.35712 11.887L6.63201 12.7283L7.00684 13.6279C7.02904 13.6945 7.04015 13.7584 7.04015 13.8194L7.00684 14.1443C7.09014 14.2276 7.14009 14.322 7.15676 14.4275C7.2345 14.3942 7.29282 14.3775 7.33169 14.3775C7.39276 14.3775 7.43163 14.4053 7.4483 14.4608L7.58989 14.9106L7.92034 15.8947L8.30624 15.3021L8.53114 14.9106C8.54779 14.794 8.57277 14.719 8.6061 14.6857C8.64497 14.6524 8.72827 14.6357 8.85599 14.6357V14.4192C8.85599 14.247 8.88375 14.0749 8.93929 13.9027L8.87264 13.7695L9.07254 13.328L9.26414 12.7283L9.52233 12.57C9.57787 12.5145 9.60563 12.4701 9.60563 12.4367V12.4201L9.52233 12.0286L9.94715 10.9041V10.7792V10.5793L10.0804 10.4543L9.96382 9.94623L10.0304 9.84626L9.94715 9.72132L10.0971 9.47146L10.0471 9.36316L10.1471 9.26322C10.1582 9.16325 10.1665 9.10494 10.172 9.08829C10.1776 9.07162 10.2081 9.00777 10.2637 8.8967C10.3248 8.78009 10.383 8.65792 10.4386 8.5302L10.5552 8.25533C10.4775 8.14984 10.4386 8.08319 10.4386 8.05543C10.4386 7.97213 10.4858 7.8583 10.5802 7.71391C10.6024 7.66948 10.6302 7.64728 10.6635 7.64728L11.3321 7.14371L12.4435 6.88929L13.0932 7.50567C13.2653 7.52234 13.3514 7.63617 13.3514 7.84719Z" fill="white"/>
<path d="M28.6645 17.0346L28.5563 17.3928L28.373 17.3761C28.3063 17.3761 28.5068 18.3504 28.4791 18.3838L28.2017 18.6796L27.9768 18.8378L27.91 18.9211L27.602 18.8878L27.2438 19.0627H27.2272L26.819 18.9378L26.769 18.9211L25.8279 18.9544L25.5613 18.9211L25.4696 18.7878C25.1309 18.8545 24.9393 18.8878 24.8948 18.8878L24.5867 18.8711L24.3784 18.9045L24.3118 18.7379H24.2118L24.1285 18.7545L23.837 18.9045L22.1961 18.9211L21.9545 19.0377C21.7713 18.9156 21.6297 18.8545 21.5297 18.8545L21.4464 18.8711L21.0216 18.9878L20.5385 18.8878L19.2522 18.5463L18.0492 18.9378C17.9992 18.9378 17.7909 18.8711 17.4244 18.7379L17.5077 18.5463L17.7077 18.0715L17.6527 17.2262L17.7443 16.8181V16.1934L17.7943 15.9518L17.7609 14.0194L17.7943 13.5279L17.7776 13.3447L17.7276 13.1531L18.0692 13.1364C18.0081 13.0031 17.9553 12.9088 17.9109 12.8532C17.8665 12.7977 17.7887 12.7283 17.6777 12.645L17.636 12.5034L17.6777 11.887L17.6027 10.8291L17.6777 10.421L17.711 10.2544L17.5361 10.2044L17.4694 10.0295L17.4361 9.4881L17.3362 9.31317L17.3195 9.22987L17.3362 9.02163L17.4028 8.92169L17.8609 9.0383L17.7276 8.92169C17.6443 8.8606 17.6027 8.80508 17.6027 8.7551C17.6027 8.72735 17.6138 8.68014 17.636 8.61349L17.5027 8.56353L17.3362 8.61349C17.3195 8.3414 17.3001 8.16092 17.2778 8.07209C17.2612 7.98324 17.2279 7.93048 17.1779 7.91381L16.853 7.78056L17.1779 7.2434L17.0779 6.55919C17.1168 6.51477 17.2084 6.46479 17.3528 6.40925L17.5111 6.35926C17.7832 6.23157 17.8893 6.18436 18.0337 6.18436C18.0392 6.18436 18.1469 6.16769 18.1524 6.16769C18.158 6.16769 18.6318 6.37935 18.6429 6.39046L20.4252 6.3926L20.9916 6.44256L21.3082 6.54253C21.5136 6.46479 21.6525 6.42592 21.7246 6.42592C21.758 6.42592 21.7802 6.43147 21.7913 6.44256L23.049 6.57584L24.1569 6.50921L24.5899 6.63416L24.8399 6.57584V6.4759C25.223 6.43703 25.5035 6.38705 25.6812 6.32595C25.9256 6.23157 26.0725 6.18436 26.1225 6.18436L26.2892 6.21768C26.2614 6.3454 26.2253 6.43703 26.181 6.49254C26.142 6.54253 25.9117 7.64728 25.7728 7.71391C25.7616 7.81387 25.7423 7.88328 25.7146 7.92214C25.6868 7.96101 25.6061 8.01655 25.4728 8.08874C25.1843 8.22201 24.9454 8.28864 24.7566 8.28864H24.6649L24.2235 8.25533L23.8487 8.30531L23.0824 8.22201L22.9074 8.20535C22.7519 8.10541 22.5992 8.05542 22.4493 8.05542C22.3327 8.1887 22.1161 8.25533 21.7996 8.25533L21.5497 8.23868L21.5081 8.08874L21.3415 8.13872L21.0999 8.23868L19.9588 8.13872L19.7755 8.41359L19.8422 8.48024V8.54686L19.8755 8.98832L19.8089 9.63802L19.8422 9.8796L19.8588 10.0628L20.0254 10.1128L21.1666 10.2211C21.2443 10.2211 21.3581 10.2766 21.5081 10.3877L21.7663 10.3377C21.9218 10.2822 22.0356 10.2544 22.1078 10.2544H22.1244L23.0157 10.3044L23.5405 10.3211H24.0152C24.1152 10.3211 24.1985 10.3127 24.2651 10.2961C24.3373 10.2794 24.4152 10.2489 24.4983 10.2044L25.1314 10.3211L25.2813 10.2877L25.6395 10.2044L26.2892 10.1878L26.9723 10.0961C27.05 10.1184 27.1278 10.16 27.2055 10.2211L27.3805 10.1128C27.4913 10.024 27.5942 9.97954 27.6885 9.97954L27.8718 9.9962L28.0633 9.97954V10.2378L27.7151 11.3822L27.1387 11.8037C27.0778 11.8537 27.0196 11.8787 26.964 11.8787H26.9306L26.3725 11.8037L25.6561 11.8287L25.2647 11.7371L23.8653 11.8287L23.6071 11.8037C23.546 11.6926 23.4766 11.6371 23.3989 11.6371C23.3544 11.6371 23.3211 11.6426 23.2989 11.6538L22.9241 11.8037L21.8329 11.6871L21.2998 11.8787L20.925 11.7704L20.6168 11.962L19.9768 12.0619H19.7922L19.9088 12.2119L19.7922 12.57C19.8755 12.7255 19.9255 12.8393 19.9421 12.9115L19.9088 13.1864L19.9755 13.9527V13.9694C19.9755 14.0416 19.9144 14.1554 19.7922 14.3109C19.9366 14.4941 20.0088 14.6441 20.0088 14.7607C20.0088 14.794 19.9977 14.8329 19.9755 14.8773L19.7505 15.3521L19.9921 15.7769L20.0435 16.868L20.3017 16.918L21.4262 17.3095L21.801 17.2595C21.8898 17.2595 22.0148 17.3039 22.1758 17.3928C22.2869 17.2928 22.3674 17.2429 22.4174 17.2429H22.4507L23.217 17.3928L23.6835 17.3428L24.0916 17.4261L25.0829 17.3595L25.3661 17.4095L25.8491 17.4261L26.0158 17.4844L25.9658 17.3595L26.1573 17.3262L26.9403 17.3095L27.1068 17.2429L28.0813 17.0679C28.1091 17.0624 28.173 17.0485 28.2731 17.0263C28.373 16.9985 28.434 16.9846 28.4561 16.9846C28.4895 16.9846 28.559 17.0013 28.6645 17.0346Z" fill="white"/>
<path d="M45.2886 18.1862V18.309L45.0803 18.459L44.772 18.5423L44.1808 18.7505C44.0141 18.7949 43.8365 18.8172 43.6476 18.8172L42.8909 18.819C42.7076 18.5469 42.2817 18.7116 42.2483 18.7005H41.9783L41.7784 18.5339L41.6702 18.409C41.5257 18.2313 41.4536 18.1397 41.4536 18.1341L41.3785 17.6593L41.0622 17.5427L40.7873 17.1346L40.4625 17.0096L40.2707 16.7431L40.1376 16.7014L40.0209 16.5682L39.746 16.3433L39.5878 16.16L39.3546 16.0268L39.0629 15.6853L38.8882 15.5103C38.916 15.4381 38.9298 15.377 38.9298 15.3271C38.9298 15.1994 38.8826 15.1244 38.788 15.1022L38.3801 15.0189L38.2633 14.8773L37.7803 14.5191L37.5471 14.1609L37.4077 13.6612L37.164 13.378L36.9203 13.3358L36.7985 13.1031L36.6842 13.0698L36.5843 13.1031L36.5674 13.4946C36.6452 13.539 36.6842 13.5945 36.6842 13.6612C36.6842 13.7223 36.6786 13.7639 36.6676 13.7861L36.6008 13.986L36.5674 14.4692L36.5343 14.844L36.5674 15.0772L36.5009 15.2854L36.6176 15.4937L36.6008 15.6603L36.5509 16.1017L36.5674 16.3766L36.7424 17.726V17.776C36.7424 17.8815 36.7064 17.9675 36.6342 18.0342L36.4675 18.1841L36.3259 18.309H36.0428C35.9485 18.309 35.5356 18.372 35.4579 18.4497L34.449 18.7838C34.4268 18.806 34.3742 18.8172 34.2908 18.8172C34.1797 18.8172 34.1241 18.7838 34.1241 18.7172C34.1241 18.6783 34.1909 18.5117 34.3242 18.2174C34.3851 18.1119 34.4158 17.9703 34.4158 17.7926L34.4324 17.2262L34.5323 16.943L34.4824 16.3266L34.5657 16.1767L34.699 16.1934C34.7711 16.1934 34.8211 16.1711 34.8489 16.1267C34.8767 16.0767 34.699 16.0279 34.699 15.8947L34.7738 15.7435C34.6461 15.6492 34.5823 15.5409 34.5823 15.4187L34.6322 15.0938L34.5491 14.9939L34.5323 14.719L34.5491 14.3442L34.6157 13.7028L34.5491 12.8949L34.5991 12.5034L34.4989 12.2868C34.5158 12.2091 34.6184 12.1396 34.8072 12.0786V11.7704C34.7295 11.6704 34.6544 11.6205 34.5823 11.6205L34.5657 11.2456L34.5323 10.5959L34.5823 10.2711C34.5102 10.1378 34.4602 10.024 34.4324 9.92956C34.4102 9.83517 34.399 9.69912 34.399 9.52141V9.47145V9.14658L34.3408 9.09662L34.399 8.48024C34.399 8.3192 34.3464 8.16092 34.2409 8.00544L33.916 7.81387V7.24031L34.091 7.19032L34.2075 7.14034C34.5628 6.99597 35.793 6.60725 36.1427 6.59061L36.7424 6.55727L37.0007 6.52396C37.1119 6.62948 37.195 6.68221 37.2505 6.68221H37.2673L38.1086 6.52396L38.2918 6.63226C38.3084 6.63226 38.3196 6.63503 38.325 6.64057C38.3362 6.64057 38.3472 6.64334 38.3584 6.6489L38.5667 6.63226L39.1497 6.6489H40.324L41.2072 6.79885L41.7736 6.83216L42.4398 7.10108L42.7981 7.8805C42.9869 7.93604 43.1285 8.04431 43.2228 8.20535C43.3227 8.36085 43.3727 8.54964 43.3727 8.77177C43.3727 8.97168 43.3727 9.45201 43.2728 9.72965L42.9314 9.43811C42.9479 9.57695 43.0478 9.91291 43.1312 9.96289L43.0478 10.1545L42.9733 10.6495L42.8651 10.7911C42.8429 10.8133 42.754 10.8244 42.5985 10.8244C42.5763 10.8577 42.5651 10.8966 42.5651 10.941L42.6319 11.0826L42.5234 11.2159L42.3402 11.3158L41.9653 11.749L41.6905 11.8489L41.4156 12.0322L41.2491 12.0488C41.1992 12.1987 41.1185 12.3015 41.0076 12.357L40.8075 12.4403L40.5495 12.5319H40.3411L39.9329 12.6652L39.8164 12.6819L39.5878 12.695H39.4752C39.4253 12.6616 39.3573 12.7266 39.3573 12.7266L39.2973 12.8782C39.3639 12.806 39.3495 12.8893 39.4497 12.8782L39.6244 13.0698L39.5413 13.1364C39.5579 13.3086 39.6134 13.3946 39.7077 13.3946L39.8744 13.378L40.0494 13.5945L40.5241 14.1276L40.849 14.4192L41.2072 14.844L41.157 15.0605L41.5152 15.2521C41.5596 15.3576 41.593 15.4243 41.6152 15.452C41.6429 15.4742 41.729 15.5381 41.8735 15.6436L42.2483 16.0517L42.5066 16.3433L42.6397 16.4932V16.6015C42.6397 16.707 42.6674 16.7959 42.723 16.868L43.0647 16.9763L43.2228 17.0929L43.5143 17.3678L44.3641 17.8926L44.5388 18.0675C44.5612 18.0675 44.5751 18.0703 44.5805 18.0758C44.5917 18.0758 44.6 18.0786 44.6056 18.0841L45.1302 18.0008H45.1471C45.2248 18.0008 45.1497 18.064 45.2886 18.1862ZM41.7901 9.06328C41.7901 8.81895 41.7207 8.64683 41.582 8.54686L41.3154 8.33863L41.0239 8.12205L40.749 8.10541L40.3574 7.96379L40.2741 7.94715H40.1325L40.0494 7.86385L39.8576 7.78056L39.6912 7.8805L38.5165 7.78056L38.4083 7.86385L38.275 7.84719L37.1172 7.98046H36.9425L36.8092 8.13872C36.6925 8.13872 36.612 8.18593 36.5674 8.28033C36.5231 8.36916 36.5009 8.56076 36.5009 8.85507L36.5175 9.39647L36.5343 9.75465V9.97954C36.3732 10.1073 36.2928 10.2155 36.2928 10.3044C36.2928 10.4377 36.3954 10.5293 36.6008 10.5793L36.6676 10.7625L36.6342 11.0374V11.2789L36.5674 11.6704C36.5843 11.8037 36.7037 11.9175 36.9257 12.0119L36.9091 12.0786L37.6587 12.0619L37.7669 12.1619L37.917 12.1286L38.1917 12.0952L38.7332 11.887L38.9247 11.962L39.108 11.8703L39.8576 11.6038L40.1325 11.4122L40.6991 11.1707L41.107 10.496L41.5652 9.99621L41.5986 9.72132L41.7567 9.29653L41.7901 9.06328Z" fill="white"/>
<path d="M63.806 12.2535L63.7227 12.6117L63.756 13.0198C63.7392 13.2308 63.6754 13.3891 63.5645 13.4946L63.4312 13.6695L63.0895 13.7528C63.0564 13.7861 63.023 13.8666 62.9896 13.9944L63.023 14.0277H63.1063L63.0564 13.9194L63.2228 14.0443L63.1395 14.1609L63.0895 14.3692L62.9565 14.5858L62.7647 14.8606L62.4815 15.6269L62.1567 16.1434L61.8735 16.3433L61.168 16.8695C61.0237 16.9972 60.6864 17.5345 60.5809 17.5623L59.9646 17.7705L59.8147 17.8371C59.8147 17.9426 59.7869 18.0231 59.7314 18.0787L59.5564 18.1453L58.5819 18.6201L57.9904 19.0033C57.7962 19.1254 57.6073 19.1865 57.424 19.1865C57.3575 19.1865 57.2712 19.1587 57.1657 19.1032C57.0605 19.1698 56.8465 19.2559 56.5246 19.3614L56.0413 19.5114L55.7165 19.578L55.0334 19.628L54.8501 19.6613L54.4088 19.4947C54.1868 19.6169 53.9757 19.6835 53.7757 19.6946L53.7257 19.628C53.5758 19.628 53.4508 19.5835 53.3509 19.4947L53.0426 19.4614V19.6613C52.854 19.7668 52.6595 19.8196 52.0932 19.4614C51.9655 19.4614 51.0168 19.4281 50.8835 19.3947C50.417 19.267 50.1504 19.2032 50.0839 19.2032C49.9562 19.2032 49.8921 19.1809 49.8921 19.1365V19.0866L50.0171 18.9449L50.2169 18.895C50.4114 18.8395 50.5252 18.8117 50.5586 18.8117L50.6251 18.8283L50.8252 17.9842C50.9251 17.8731 50.9751 17.7982 50.9751 17.7593V17.5011L51.075 17.1429L51.0916 16.9763V16.8764L51.2 16.8014C51.1167 16.7126 51.075 16.6098 51.075 16.4932L51.1167 16.0018L51.1332 15.7769L51.3165 15.5936C51.25 15.4937 51.2166 15.4187 51.2166 15.3687L51.2 15.1022L51.0916 14.8939L51.1167 14.4192V13.8361L51.25 13.5612C51.2722 13.4724 51.2831 13.4113 51.2831 13.378C51.2831 13.2836 51.2193 13.192 51.0916 13.1031L51.075 12.7783V12.6283C51.075 12.5617 51.1332 12.4867 51.25 12.4034L51.2665 11.9453H51.0584L51.0085 11.7704L51.0416 11.3289L50.9583 10.6792L51.025 10.496L50.9083 10.2544L50.8917 9.43812L50.6668 9.17992L50.8584 8.80509L50.8752 8.68014L50.8252 8.20535L50.8084 7.42237C50.6863 7.40573 50.5725 7.37242 50.467 7.32243L50.242 7.23914V6.99758L50.5335 6.88097H51.1832L52.3598 6.73936C52.4653 6.69494 52.6125 6.67274 52.8011 6.67274L53.3509 6.65607L53.6509 6.75603L53.859 6.68938L54.0089 6.78101H54.2838L54.6086 6.79768L54.9169 6.83099H54.9335L55.2084 6.78101L55.7664 6.96427L56.4329 6.98091L56.6576 7.08088L57.5907 7.18916L58.1571 7.35575L58.8234 7.47236L59.2815 7.63061L59.4731 7.69726L59.4397 7.87217L59.5398 7.97213L59.4731 8.07209L59.5064 8.10541L59.4565 8.17204L59.5064 8.15539L59.7979 8.05543L60.0311 7.9888L60.2395 8.05543L60.5475 8.13872L60.7308 8.26367L60.7476 8.4469L60.8224 8.46357L61.139 8.4469C61.2445 8.4469 61.3639 8.54409 61.4972 8.73844H61.6222C61.7665 8.73844 61.9831 9.34926 62.2719 9.55473C62.5829 9.76574 62.8439 10.0156 63.0547 10.3044L62.9299 10.421L62.9548 10.5459L63.0547 10.7125L63.2214 10.8291C63.2769 10.8958 63.3296 11.0235 63.3795 11.2123C63.2743 11.2567 63.3612 11.3196 63.3612 11.3863C63.35 11.3751 63.3612 11.4196 63.3612 11.3863L63.4797 11.8037C63.5019 11.8481 63.806 12.2035 63.806 12.2535ZM61.997 11.7704C61.8915 11.7259 61.8247 11.6843 61.797 11.6454C61.7692 11.601 61.7499 11.5233 61.7387 11.4122L61.6722 11.3956V11.2956C61.6722 11.2401 61.6388 11.154 61.572 11.0374L61.4139 10.7792L61.4304 10.6959L61.264 10.5459L60.8558 10.2378C60.8114 10.21 60.7668 10.1739 60.7225 10.1295C60.6781 10.0851 60.6253 10.0267 60.5643 9.95456C60.5088 9.87682 60.4449 9.79353 60.3728 9.70467H60.1895C60.0506 9.70467 59.9368 9.69356 59.8479 9.67136L59.0483 9.24655L58.6901 9.17992L58.4651 9.07995L58.2736 9.03831L58.2404 8.85507C58.0903 8.82173 58.0016 8.80509 57.9738 8.80509C57.9183 8.80509 57.8488 8.8384 57.7655 8.90503C57.5878 8.81064 57.4462 8.75511 57.3407 8.73844C57.2242 8.71624 57.1409 8.70234 57.0909 8.69679C57.0466 8.6857 57.0102 8.67181 56.9825 8.65514C56.9603 8.63294 56.9298 8.6024 56.8911 8.56354L56.7578 8.43026C56.6354 8.49688 56.516 8.5302 56.3995 8.5302C56.255 8.5302 56.1412 8.49688 56.0581 8.43026L55.858 8.28864L55.3417 8.20535L54.1505 8.05543L53.5675 8.10541L53.4508 8.03876L53.3677 8.10541L53.2761 8.272L53.0928 8.1887L53.0594 8.43026C53.0482 8.66903 53.0178 8.84951 52.9678 8.97168L53.0095 9.14658C53.0872 9.41314 53.126 9.56584 53.126 9.60471L53.1094 9.75466L53.0095 9.688H52.9512C52.9622 9.91013 53.0095 10.0878 53.0928 10.2211V10.4543L52.9844 10.4377C52.9288 10.4876 52.8788 10.5126 52.8345 10.5126H52.7512L52.7178 10.6792L52.8345 10.8291C52.9512 10.8736 53.029 10.9152 53.0677 10.9541C53.1067 10.9874 53.126 11.0429 53.126 11.1207C53.0095 11.1707 52.9512 11.229 52.9512 11.2956C52.9512 11.34 52.9566 11.3678 52.9678 11.3789L53.1428 11.787L53.0928 13.2697L53.1593 13.4779L53.076 13.9027L53.1428 13.9694L53.1094 14.2776L53.1428 14.7357C53.1428 14.8523 53.1233 14.9328 53.0843 14.9772C53.0455 15.0217 52.9566 15.0855 52.8179 15.1688L52.8511 15.4187L53.1428 15.5936V15.7935L53.1094 16.8014C53.1206 16.8514 53.1372 16.9264 53.1593 17.0263C53.1871 17.1263 53.2149 17.2234 53.2427 17.3178C53.2761 17.3845 53.2926 17.4456 53.2926 17.5011C53.2926 17.5288 53.2705 17.5872 53.2259 17.676H53.076C52.9649 17.676 52.8735 17.7676 52.8011 17.9509C53.1676 18.0175 53.4398 18.0508 53.6175 18.0508L54.7253 18.0342L55.1167 18.0675L56.3662 17.7093L56.5577 17.6927L57.4906 17.3345L58.1237 17.0763L58.382 16.9763L58.5653 16.8181L59.1816 16.5848L59.6563 16.1184L59.8479 16.0351L59.9478 15.9185L60.0479 15.6103L60.3894 15.4187L60.5809 15.1355L60.9391 14.719L61.0057 14.5191C61.178 14.5191 61.2888 14.508 61.3388 14.4858C61.389 14.4636 61.4139 14.4219 61.4139 14.3609C61.4139 14.2831 61.3417 14.2276 61.1972 14.1943C61.3751 14.0166 61.5055 13.8111 61.5888 13.5779C61.6775 13.3391 61.7443 13.0226 61.7887 12.6283C61.8221 12.3285 61.8915 12.0425 61.997 11.7704Z" fill="white"/>
<path d="M82.0292 18.1508C82.0292 18.173 82.018 18.2063 81.9958 18.2507L81.5798 18.5256L81.273 18.9004H80.2131L80.0467 18.9338L80.0299 18.7838L79.93 18.5756L79.9468 18.409L79.93 18.2507C79.8466 18.0952 79.7996 17.9592 79.7884 17.8426H79.6551L79.5886 17.6593L79.2971 17.0929L79.2469 16.8014L78.8221 16.0684C78.7722 15.9684 78.7473 15.8546 78.7473 15.7269C78.7529 15.7047 78.7556 15.6852 78.7556 15.6686C78.7612 15.6519 78.7639 15.6269 78.7639 15.5936C78.664 15.5436 78.5862 15.4742 78.5307 15.3854C78.3308 15.0522 78.2784 15.2799 78.2397 15.0689C78.1897 15.3187 77.8337 15.3037 77.6894 15.3037H77.656L76.7897 15.1454L76.4817 15.1621L76.2567 15.1288L75.0655 15.287L74.3659 15.2537L73.9911 15.3536L73.6996 15.2537L73.4747 15.1954C73.4025 15.2898 73.3414 15.3509 73.2914 15.3786C73.2414 15.4064 73.1776 15.4203 73.0999 15.4203H73.0499L72.3169 15.3703L72.042 15.4369L71.8906 15.3076C71.7685 15.3353 71.7505 15.2883 71.6006 15.6381L71.4505 15.963L71.3589 15.9963C71.198 16.4239 70.9897 16.8265 70.7343 17.2041L70.7175 17.379L70.5927 17.5622L70.1346 18.5868C70.1012 18.6867 69.914 18.6693 69.6974 18.7193L69.3516 18.8338C69.1941 18.9338 68.5444 18.9338 68.4277 18.9338C68.2666 18.9338 68.0473 18.716 67.8696 18.5938L68.1945 18.0274L68.4277 17.7359L68.6192 17.4277L68.736 17.2444L68.8525 17.0862V17.0195C69.0801 16.9862 69.1941 16.8835 69.1941 16.7114V16.5115L69.4522 16.2032L69.8104 15.4203L70.0186 15.1288L70.2518 14.6123L70.5267 14.0876L70.8515 13.5378L71.1932 13.213C71.2154 13.1908 71.2263 13.163 71.2263 13.1297C71.2263 13.0852 71.1985 13.0353 71.1432 12.9797C71.2431 12.9076 71.3153 12.8492 71.3596 12.8048C71.4042 12.7548 71.4456 12.6882 71.4846 12.6049L71.3847 12.4466L71.4846 12.2801L71.6179 11.8886C71.6345 11.8552 71.704 11.7858 71.8261 11.6803L71.8095 11.597L72.1843 10.6391L72.4758 9.85617C72.5313 9.7118 72.6563 9.5341 72.8506 9.32308L72.784 9.13985L72.834 8.91494C72.8674 8.7539 72.8978 8.64285 72.9256 8.58175C72.959 8.52068 73.0116 8.47626 73.0838 8.44848C73.1615 8.42072 73.2588 8.39574 73.3755 8.37351L73.4254 8.24857L73.3421 7.99868C73.3199 7.93206 73.3087 7.88485 73.3087 7.8571C73.3087 7.77936 73.8753 7.38072 73.9418 7.3474L74.815 6.99969L75.4243 7.36524L75.6321 7.24746C75.7486 7.10307 75.9041 7.02255 76.0986 7.00591L76.1985 7.3474H76.2984L76.265 7.43903L76.3817 7.68892L76.6232 7.9971L76.9315 8.56353L77.098 9.02163L77.3063 9.39646L77.098 9.46311C77.098 9.52418 77.0319 9.57694 77.0819 9.62137C77.3729 9.73798 77.4728 9.84625 77.4728 9.94622L77.4562 10.0961L77.6477 10.3044L77.8727 10.6792L77.9892 10.8791L78.006 10.9458L77.9392 11.104L77.9726 11.2706L78.0893 11.4289L78.3308 11.6288L78.6223 12.2118L78.7722 12.47V12.6699C78.9888 12.8588 79.097 13.0031 79.097 13.1031C79.097 13.1142 79.086 13.1531 79.0639 13.2197L79.2303 13.3863L79.6051 14.0194C79.6385 14.0693 79.6634 14.1137 79.6802 14.1526C79.7024 14.1859 79.7357 14.2442 79.7801 14.3275C79.8301 14.4053 79.8634 14.4608 79.88 14.4941C79.9746 14.6385 79.869 14.7662 79.88 14.8106C79.8968 14.8551 80.066 14.8995 80.0716 15.0105C80.266 15.1049 80.3633 15.2132 80.3633 15.3354C80.3633 15.3465 80.3547 15.3576 80.3382 15.3687L80.2136 15.7269C80.2136 15.7158 80.2248 15.7546 80.247 15.8435L80.6796 16.0184L80.788 16.1683L80.838 16.3266C80.8602 16.4099 80.9518 16.4932 81.1129 16.5765V16.7681L81.3961 17.0596L81.6709 17.5177L81.8125 17.6843C81.8791 17.7676 81.9319 17.8565 81.9707 17.9509C82.0097 18.0453 82.0292 18.1119 82.0292 18.1508ZM77.7645 13.7528L77.6894 13.6862L77.7228 13.6279L77.6894 13.5446H77.5227C77.4562 13.4668 77.4033 13.2558 77.3646 12.9115L77.348 12.7449L77.0314 12.6616L76.6315 11.8703H76.515L76.0069 10.8708L76.0735 10.6792L76.0235 10.471L75.6321 10.2711L75.0324 9.07994C75.01 9.01887 75.0538 9.16578 74.815 8.97143L74.7906 9.22987L74.7241 9.24654C74.6573 9.47975 74.6074 9.62415 74.5742 9.67966C74.5408 9.7352 74.4714 9.81294 74.3659 9.9129C74.2216 10.0406 74.1409 10.1711 74.1244 10.3044L74.091 10.5043L73.7162 11.3289C73.6774 11.4289 73.6414 11.5149 73.608 11.5871C73.5746 11.6593 73.5524 11.7065 73.5412 11.7287C73.5302 11.7509 73.5107 11.7815 73.483 11.8203C73.4552 11.8592 73.4247 11.8925 73.3913 11.9203L73.3248 12.0952C73.2802 12.2063 73.2441 12.2757 73.2164 12.3035C73.1886 12.3257 73.1276 12.3395 73.0331 12.3451L73.0165 12.5367C72.9943 12.8199 72.9471 13.0281 72.8749 13.1614C72.8084 13.2947 72.6917 13.4168 72.525 13.5279L72.6751 13.7611C72.6083 13.7667 72.5584 13.7861 72.525 13.8194C72.4918 13.8528 72.4641 13.9083 72.4419 13.986V14.1609V14.1776L72.6583 14.1443L72.8498 14.2109L72.8832 14.1443L73.0331 14.1276L74.1078 14.1943L74.7906 14.1443L75.0655 14.2609C75.1045 14.222 75.1323 14.1998 75.1489 14.1943C75.171 14.1832 75.2322 14.1748 75.3321 14.1693C75.4321 14.1582 75.5875 14.1387 75.7986 14.111L76.0235 14.0776L75.9901 14.1609L76.0569 14.1943C76.1068 14.1943 76.1678 14.1498 76.2401 14.061L76.4648 14.0443C76.7592 14.0166 76.9815 13.9971 77.1314 13.986C77.2812 13.9694 77.3729 13.9583 77.4062 13.9527C77.4396 13.9416 77.4896 13.9194 77.5561 13.8861C77.6282 13.8472 77.6977 13.8028 77.7645 13.7528Z" fill="white"/>
<path d="M96.7501 10.7292C96.7279 10.7847 96.6668 10.8375 96.5669 10.8874C96.6446 11.0596 96.6833 11.1623 96.6833 11.1956L96.6502 11.8787L96.6833 12.4201L96.5834 12.8116L96.6168 13.3613L96.5669 14.1276L96.6168 14.5691L96.5669 14.8606L96.6002 15.6436L96.5834 15.8685L96.5335 15.7852C96.4391 15.8574 96.4618 15.9609 96.4618 16.022C96.4618 16.1331 96.4723 16.2044 96.6334 16.31C96.678 16.5099 96.7002 16.6626 96.7002 16.7681C96.7002 16.9902 96.6556 17.2012 96.5669 17.4011C96.4835 17.5955 96.553 17.8113 96.3253 18.1667L95.0481 18.5089L94.7233 18.7005L94.6567 18.5089L94.2651 17.9092L93.7653 17.2845L93.3905 16.6348L93.2572 16.4599L93.2906 16.2766C93.2906 16.1434 93.1933 16.0018 92.9991 15.8518C92.7269 15.6241 92.5744 15.4853 92.541 15.4354L92.0828 14.6191L91.8413 14.3275L91.6914 13.9027C91.5969 13.6751 91.4192 13.5612 91.1582 13.5612L91.0583 13.3613L90.5751 12.57L90.442 12.1286L90.1671 11.8203L90.1172 11.887L89.9839 11.8037C89.6005 11.154 89.2369 10.7403 88.8926 10.5626C88.9369 10.4238 88.9593 10.321 88.9593 10.2544C88.9593 10.1156 88.9065 10.0462 88.8009 10.0462L88.6177 10.1128C88.529 10.024 88.4539 9.97953 88.3927 9.97953L88.2263 10.0628L88.4096 10.4543L88.2095 10.5293L88.2597 10.6625L88.1929 11.0207L88.2263 11.7371L88.1763 11.9786L88.0348 12.0453L88.0513 12.2452L88.1929 12.7283C88.2041 12.7394 88.2095 12.7477 88.2095 12.7532C88.2095 12.7532 88.2095 12.756 88.2095 12.7616C88.2095 12.8504 88.1403 12.9865 88.0014 13.1697L88.0679 13.5112L88.143 13.7028V16.1517L88.2429 16.868C88.2429 16.8736 88.2429 16.8791 88.2429 16.8847C88.2429 16.8903 88.2373 16.9041 88.2263 16.9263L88.1264 17.4011L88.143 17.5011C88.2429 17.5566 88.2928 17.6205 88.2928 17.6927C88.2928 17.7648 88.1568 17.9981 87.8846 18.3923L87.7847 18.5423L86.5848 18.7081C86.4792 18.8358 86.3932 18.8997 86.3264 18.8997H86.3099L86.1266 18.883L85.985 18.9164L86.0016 18.7081C86.0184 18.5526 86.0433 18.4499 86.0766 18.3999L86.2599 18.1667L86.4015 17.9585L86.2099 17.7919L86.2599 17.6003L86.3598 17.3587C86.3043 17.1921 86.2765 17.0977 86.2765 17.0755C86.2821 17.0644 86.2848 17.0561 86.2848 17.0505C86.2904 17.0394 86.2933 17.0283 86.2933 17.0172L86.4181 16.5758L86.3764 15.6179C86.4266 15.5346 86.5126 15.4791 86.6347 15.4513V15.368L86.4515 15.1431L86.4848 14.9598L86.4515 14.7849L86.5014 14.3101C86.5014 14.3046 86.4987 14.299 86.4931 14.2935C86.4931 14.2879 86.4904 14.2824 86.4848 14.2768L86.3764 13.9187L86.4349 13.4356L86.4015 13.094C86.4015 12.983 86.4792 12.8747 86.6347 12.7692L86.6181 12.5693L86.5014 12.2944C86.5014 12.2389 86.518 12.1584 86.5514 12.0528C86.4515 11.9695 86.4015 11.8807 86.4015 11.7863C86.4015 11.6863 86.4349 11.5142 86.5014 11.2699L86.4181 11.1533L86.4015 10.9117L86.3264 10.337C86.3264 10.2981 86.3515 10.2176 86.4015 10.0954V9.90384C86.4015 9.5651 86.371 9.35686 86.3099 9.27912L85.9351 8.81266L86.0016 8.62942L86.2099 8.50448C86.3489 8.42674 86.4458 8.36287 86.5014 8.31288C86.557 8.26293 86.6013 8.19072 86.6347 8.09633L87.7847 7.83051L88.8926 7.0468C88.9148 7.0246 88.9481 7.01349 88.9925 7.01349C89.1202 7.01349 89.2174 7.09123 89.2842 7.24671L89.659 7.97973L89.8089 8.1713L89.9505 8.42952L89.9005 8.47948C90.0338 8.61275 90.2088 8.86264 90.4252 9.22914L90.8499 9.94549C90.9445 10.1121 90.9915 10.2092 90.9915 10.237C90.9915 10.3036 90.9667 10.3647 90.9167 10.4203L91.2581 10.6118L91.2082 10.7618L91.3498 10.9367L91.6914 11.4281L91.9412 11.6697L92.0329 11.9446L92.7825 12.7442L92.6243 12.8275C92.6521 12.9386 92.6882 13.0135 92.7325 13.0524C92.7769 13.0857 92.8658 13.1135 92.9991 13.1357L93.3905 13.6771L93.274 13.6937L93.4989 13.852C93.6544 13.9631 93.7543 14.0519 93.7987 14.1186C93.843 14.1852 93.8738 14.2907 93.8903 14.4351L94.0068 14.5517L93.9902 14.6683C93.9902 14.7905 94.0292 14.921 94.107 15.0598L94.2985 15.1847C94.5373 15.2902 94.5437 15.5124 94.5549 15.5291L94.7413 15.9349L94.8066 15.3687L94.9816 14.9606C94.8649 14.8384 94.8066 14.7301 94.8066 14.6357C94.8066 14.5802 94.8122 14.5413 94.8232 14.5191L94.9314 14.1776L94.9816 12.9865L95.1147 12.7283L95.0147 12.47L95.0815 12.0786V12.0619C95.0815 11.9897 95.0147 11.9259 94.8814 11.8703L94.8398 9.70466C94.9175 9.69911 94.9677 9.67966 94.9899 9.64635C95.0177 9.60748 95.0369 9.53252 95.0481 9.42146L94.7898 9.22987L94.7567 8.93833C94.7289 8.694 94.6928 8.53297 94.6482 8.45523C94.6095 8.37749 94.5261 8.33862 94.3984 8.33862C94.3763 8.24977 94.365 8.18314 94.365 8.13871C94.365 7.93325 94.6039 7.76944 95.0815 7.64727C95.1593 7.53066 95.2258 7.45015 95.2813 7.40572C95.3425 7.36129 96.4058 7.19748 96.6002 7.11418C96.6668 7.22524 96.7002 7.32798 96.7002 7.42236L96.6668 7.66394L96.7167 7.84718L96.7002 8.17203L96.7167 8.87171C96.7167 9.01054 96.7001 9.12993 96.6668 9.22987L96.6002 9.57139V9.58806L96.7333 10.1378L96.7002 10.5459L96.7501 10.7292Z" fill="white"/>
<path d="M113.247 6.72196L112.832 7.60895L112.947 8.15539L112.281 8.41359L111.973 8.61349C111.906 8.64683 111.84 8.66348 111.773 8.66348H111.756L111.273 8.58018L110.149 8.54687L109.366 8.46357L108.616 8.51355L108.699 9.03831L108.741 9.24655L108.758 9.51308V9.58806L108.666 9.97954L108.683 10.2794L108.649 10.5376L108.699 10.7292C108.566 10.7403 108.48 10.7625 108.441 10.7958C108.408 10.8291 108.388 10.9097 108.383 11.0374C108.566 11.0652 108.666 11.1151 108.683 11.1873L108.649 11.787V12.1785C108.649 12.3451 108.541 12.5256 108.324 12.7199C108.352 12.7699 108.377 12.8116 108.4 12.8449C108.422 12.8726 108.455 12.8949 108.499 12.9115C108.549 12.9282 108.599 12.9393 108.649 12.9448L108.699 13.0448C108.627 13.0892 108.577 13.1336 108.549 13.1781C108.527 13.2225 108.51 13.2975 108.499 13.403L108.699 13.6279V14.036V14.3942C108.699 14.483 108.661 14.5691 108.583 14.6524L108.666 14.8523L108.633 15.0772L108.699 15.3854L108.666 15.6269L108.683 15.8268L108.699 16.1684C108.488 16.2572 108.383 16.3822 108.383 16.5432C108.383 16.6765 108.483 16.7959 108.683 16.9014L108.807 18.3007L108.683 18.4007L108.533 18.4756L107.133 18.3757L106.975 18.3923H106.858L106.758 18.509C106.692 18.4645 106.639 18.4423 106.6 18.4423C106.6 18.4423 106.567 18.4534 106.5 18.4756L106.4 18.2507C106.411 18.2174 106.417 18.1897 106.417 18.1674C106.423 18.1508 106.428 18.1341 106.434 18.1175L106.5 17.7426L106.434 17.3012L106.5 16.6515L106.55 15.6936L106.634 14.9772V14.7857L106.792 14.5858L106.583 13.8194L106.667 13.2863L106.617 12.5867L106.583 12.1119L106.567 12.0952C106.567 12.0064 106.62 11.812 106.725 11.5122L106.667 11.3289C106.545 11.0235 106.484 10.8125 106.484 10.6959V10.6792L106.5 10.4377L106.4 10.0129L106.417 9.7713L106.309 9.16325L106.275 8.95501L106.496 8.70559C106.612 8.63894 106.739 8.64481 106.739 8.58374C106.739 8.5282 106.75 8.4952 106.739 8.46189L106.6 8.33863H106.45L106.275 8.32198L105.901 8.17204L105.151 8.23869L104.01 8.12205L102.777 8.1887L102.577 8.15539C102.438 8.31643 102.313 8.39694 102.202 8.39694H102.152L101.911 8.36361L101.669 8.32198C101.675 8.15539 101.344 7.67557 101.378 7.60895C101.417 7.53676 101.775 6.86635 101.869 6.78861L102.485 6.30548C102.658 6.22774 102.899 6.18887 103.21 6.18887H103.435C103.502 6.34991 103.593 6.43043 103.71 6.43043C103.821 6.43043 103.952 6.36658 104.101 6.23886L104.476 6.27217L105.209 6.51372L105.826 6.48041L106.309 6.59702L107.275 6.647L107.683 6.87191L107.875 6.88855L107.891 6.82193L108.1 6.83857C108.449 6.86635 108.666 6.88855 108.749 6.90522C108.838 6.92187 108.844 6.56926 108.932 6.647L109.176 6.87191L109.457 7.00516L109.732 6.98852L110.09 6.83857L110.707 6.85524L111.115 6.77194C111.287 6.82748 111.429 6.85524 111.54 6.85524C112.078 6.85524 112.597 6.7303 113.097 6.48041L113.197 6.53039L113.247 6.72196Z" fill="white"/>
<path d="M53.8571 23.7835C53.8405 24.0666 53.7766 24.2777 53.6655 24.4166L53.3073 24.9079L52.949 25.591L52.6742 25.7742L52.391 26.5238L52.2662 26.6488L52.0829 26.9237L51.8746 27.0568C51.7968 27.1345 51.7581 27.204 51.7581 27.2652V27.4818L51.5332 27.8232L51.3165 28.2314L51.1749 28.3396L50.8335 28.9976C50.7889 29.0975 50.6364 29.242 50.3754 29.4309V29.5403L50.3254 29.8057L50.2004 29.9721L49.9669 30.4169L49.6087 30.5719L49.4754 30.6886L49.4588 31.0135C49.4476 31.1799 49.4254 31.2966 49.392 31.3632C49.3643 31.4299 49.2948 31.5133 49.1839 31.6132C49.2117 31.7241 49.2422 31.8018 49.2755 31.8464C49.3087 31.8908 49.3699 31.9381 49.4588 31.988L49.4088 32.821L49.3004 32.7876L49.1839 32.8792L49.2339 33.3208L49.3672 33.3374L49.4088 34.1036L49.2339 34.1538V34.2953C49.395 34.4118 49.4754 34.52 49.4754 34.6202C49.4754 34.6368 49.4588 34.6867 49.4254 34.7701H49.2504L48.9831 35.1532L48.6176 35.478C48.512 35.5058 48.3134 35.2309 48.1302 35.2865C47.9525 35.342 47.2494 34.9782 47.1939 34.9782C47.0774 34.9782 46.969 34.909 46.869 34.7701L46.9024 34.5702L47.0023 33.9537L47.0606 33.5455V33.4872L47.0189 32.8626C47.0189 32.8237 47.0606 32.7432 47.1439 32.6209L47.1939 32.4878L47.1439 32.4379L46.9358 32.4128L46.969 32.2129L47.1105 32.0214L47.1439 31.8381L47.1274 31.5133L47.1439 31.255H47.2772C47.2772 31.1385 47.266 31.0578 47.2438 31.0135C47.2273 30.9635 47.1829 30.9079 47.1105 30.8468L47.2107 30.7802L47.1274 30.5887L46.7192 30.2639L46.3444 29.7889C46.2444 29.7336 46.136 29.7002 46.0195 29.689C46.0195 29.4501 45.9834 29.2947 45.9113 29.2225L45.3199 28.6813L45.303 28.2063C45.303 28.1398 45.2753 28.0815 45.2199 28.0316C45.17 27.976 45.1171 27.9482 45.0615 27.9482C45.045 27.9482 44.9755 27.9592 44.8534 27.9814C44.8478 27.8371 44.8227 27.7343 44.7784 27.6734C44.734 27.6122 44.6285 27.54 44.4618 27.4567L44.3453 27.5067L44.1204 27.2486L43.4039 26.4987L43.1293 26.1239L42.9791 25.9492C43.1402 25.9324 43.2206 25.8768 43.2206 25.7825C43.2206 25.7269 43.1958 25.6797 43.1458 25.6409C43.1015 25.5966 43.0459 25.5741 42.9791 25.5741C42.9626 25.5741 42.8931 25.5854 42.771 25.6075C42.4211 25.1633 42.2461 24.8106 42.2461 24.5496C42.2461 24.4497 42.2712 24.3471 42.3212 24.2416C42.3711 24.1361 42.8295 23.4196 42.8907 23.3918L43.6698 23.625L44.078 23.4086L44.1862 23.3918L44.3027 23.4252L44.436 23.4086L44.5276 23.5086L44.4028 23.8834L44.436 24.0167V24.1583L44.7776 24.5496L44.8108 24.7163L44.7942 25.0078L45.0691 25.2327L45.0026 25.4828C44.9692 25.5715 44.9524 25.6465 44.9524 25.7074C44.9524 25.7464 44.9857 25.8047 45.0525 25.8824L45.3939 25.8242C45.6272 25.8242 45.78 25.888 45.8521 26.0157L46.0936 26.4405L46.2603 26.7154L46.3185 26.8821L46.1935 26.9737C46.3212 27.1623 46.4296 27.2569 46.5184 27.2569C46.5405 27.2513 46.56 27.2486 46.5766 27.2486C46.5934 27.243 46.6212 27.2401 46.6599 27.2401C46.8654 27.5179 47.0321 27.726 47.1598 27.8649C47.2875 28.0038 47.4707 28.1676 47.7095 28.3562L47.5928 28.423C47.6596 28.595 47.7622 28.72 47.9011 28.7978L47.9844 28.7144L48.4674 29.1891L48.6176 29.1762C48.6232 29.1706 48.544 29.1087 48.6773 28.9976L48.6512 28.8143L49.1676 28.0981L49.3674 27.8732L49.809 27.0736L50.2421 26.4904L50.3754 26.0657L50.5669 25.7074L50.6836 25.2161L51.0251 24.6998L51.075 24.5331L51.4998 24.583C51.4942 24.4609 51.472 24.3803 51.4332 24.3415C51.3943 24.3025 51.3138 24.2747 51.1915 24.2582L51.2666 24.0917C51.3665 23.8473 51.4554 23.6974 51.5332 23.6419L51.8746 23.4252C52.0444 23.3138 52.8823 23.3275 52.8823 23.3275C53.3024 23.442 53.6509 23.7588 53.732 23.7501C53.7267 23.7501 53.7681 23.7613 53.8571 23.7835Z" fill="white"/>
<path d="M66.2177 30.9967C66.2177 31.13 66.1899 31.2884 66.1344 31.4716L65.7929 31.4548L65.6762 31.5048L65.7096 31.7297C65.8317 31.7965 65.8929 31.8991 65.8929 32.038C65.8929 32.2656 65.8707 32.4128 65.8261 32.4793L65.3701 33.1875L65.2203 33.4373L64.7372 33.7621L64.3456 34.5035L64.1709 34.5951L63.7559 35.025L62.7713 35.4532L62.1216 35.6613C61.9662 35.7281 61.8468 35.7612 61.7637 35.7612C61.7412 35.7612 61.683 35.7446 61.5887 35.7112C61.4276 35.8002 61.2416 35.8445 61.0306 35.8445L60.639 35.828H59.8811L59.6145 35.7612L58.6234 35.6947L58.0736 35.3864L57.8404 35.4363L57.9403 35.5197L57.6988 35.4863L57.4656 35.4532L56.6409 34.745L56.1996 34.6867L55.7331 34.4036C55.5386 34.2647 55.4414 34.1677 55.4414 34.1121C55.4414 34.001 55.6276 33.5818 55.7163 33.4207C55.8052 33.254 55.6775 32.5961 55.7996 32.4628C55.9551 32.2795 56.1301 32.174 56.3243 32.1462L56.4493 32.771C56.5661 32.8266 56.6409 32.8736 56.6743 32.9126C56.7077 32.9514 56.7535 33.0959 56.7813 33.2124L56.9575 33.1125L57.1241 33.2207L57.2657 33.4207L57.8238 33.5789L58.3901 33.8289L59.5311 34.0704C59.7256 34.1925 59.8394 34.2537 59.8728 34.2537C59.9505 34.2537 59.9978 34.1981 60.0144 34.087L60.1309 34.0704L61.1722 34.137L61.497 33.9705L61.6803 34.037L61.9883 33.9705L62.3466 33.8455C62.5467 33.7787 62.6882 33.69 62.7713 33.5789L63.0131 33.254L63.2392 33.0976C63.2836 33.0198 63.4366 33.0198 63.481 32.8366C63.6976 32.8366 63.8058 32.7671 63.8058 32.6282L63.7724 32.4618L63.7559 32.2534L63.8892 32.1035L64.2625 31.4049H64.3456L64.3125 30.9136L64.1292 30.6029L64.0624 30.4113L63.8209 30.3947L63.2546 30.1805L62.6049 30.2639L62.4382 30.0806L62.1967 29.939L62.0217 30.0307L61.9718 30.1138L60.8308 30.0638L60.5725 29.7558L60.3726 30.0138L60.1808 29.9722L59.7061 29.8722C59.3895 29.8113 59.0786 29.9807 58.9065 29.9305C58.7399 29.8752 58.5983 29.8057 58.4818 29.7224L58.066 29.331L57.9664 29.1221C57.972 29.1221 57.8738 29.0171 57.7738 29.0393C57.5738 28.8894 56.877 28.3314 56.8159 28.248C56.7603 28.1593 56.6938 27.987 56.616 27.7316L56.6826 27.715L56.3828 27.1153L56.3577 26.8487L56.3243 26.5738V26.4905L56.4328 26.149L56.5327 25.9575L56.7077 25.3161L56.9823 25.1162C57.1102 25.0217 57.1741 24.8606 57.1741 24.633L57.324 24.5165L58.4235 23.8668L58.8149 23.6336L59.4563 23.3087L60.8322 22.9451L61.0404 22.8786L61.257 22.8452L61.7734 22.787L62.0232 22.6871L62.8647 22.787L63.2395 22.7704L63.4727 22.862L63.8892 22.962C64.1724 23.0341 64.4872 23.8973 64.4872 24.0084C64.4872 24.0528 64.4819 24.0917 64.4706 24.1249C64.3595 24.1639 64.3013 24.1861 64.2957 24.1917L64.0793 24.3832C63.946 24.4775 63.7237 24.5665 63.4128 24.6498L63.2378 24.5497L62.7964 24.2248L62.5549 24.1917L61.8719 24.0584L61.4805 24.0749L61.0223 24.0917L60.2059 24.5165L59.6228 24.808L59.2314 25.1162L59.0398 25.3327L58.6816 25.9658L58.3568 26.1907L58.2902 26.3905L58.5152 26.5156C58.4927 26.5711 58.4818 26.632 58.4818 26.6988C58.4818 26.7544 58.5096 26.846 58.5651 26.9737L58.2403 27.1402L58.3234 27.3317L58.4983 27.3985L58.8066 27.4484L59.1315 27.7233L59.8146 28.0316L59.9978 28.198L60.5807 28.1481L61.0889 28.198L61.1222 28.3062L61.3304 28.2731L61.6221 28.2397C61.6774 28.2397 61.7164 28.2453 61.7385 28.2563L62.1801 28.3562L62.4048 28.4064C62.4438 28.6674 62.5245 28.711 62.63 28.711L63.0545 28.5395L63.4961 28.5729L63.8209 28.5563C63.9986 28.5563 64.3264 28.6423 64.4872 28.7812L64.9122 29.156C64.9176 29.156 64.9232 29.156 64.9288 29.156C64.9398 29.156 64.9622 29.156 64.9953 29.156C65.0343 29.1504 65.0648 29.1448 65.087 29.1392H65.1038C65.1815 29.1392 65.6567 29.4336 65.9677 29.8223L66.101 29.989L66.1344 30.2139L66.2177 30.9967Z" fill="white"/>
<path d="M40.7325 28.7313L40.6494 29.0893L40.6826 29.4975C40.666 29.7085 40.6021 29.8667 40.491 29.9722L40.3577 30.1472L40.0163 30.2305C39.9829 30.2639 39.9495 30.3443 39.9164 30.472L39.9495 30.5054H40.0329L39.9829 30.3972L40.1496 30.522L40.0662 30.6387L40.0163 30.8468L39.883 31.0635L39.6914 31.3384L39.4083 32.1045L39.0834 32.6209L38.8002 32.821L38.0945 33.3472C37.9502 33.4748 37.6132 34.0122 37.5077 34.04L36.8911 34.2481L36.7412 34.3149C36.7412 34.4204 36.7135 34.5008 36.6579 34.5564L36.4829 34.6229L35.5084 35.0979L34.9172 35.481C34.7227 35.6031 34.5338 35.6642 34.3506 35.6642C34.284 35.6642 34.198 35.6364 34.0925 35.5809C33.987 35.6474 33.7732 35.7337 33.4511 35.8392L32.9681 35.9891L32.6432 36.0556L31.9601 36.1056L31.7769 36.1389L31.3353 35.9723C31.1133 36.0946 30.9022 36.1611 30.7024 36.1723L30.6525 36.1056C30.5023 36.1056 30.3776 36.0612 30.2776 35.9723L29.9694 35.9391V36.1389C29.7805 36.2445 29.5863 36.2971 29.0197 35.9391C28.892 35.9391 27.9433 35.9057 27.81 35.8723C27.3435 35.7446 27.0769 35.6808 27.0104 35.6808C26.8827 35.6808 26.8188 35.6586 26.8188 35.6143V35.5643L26.9439 35.4227L27.1437 35.3728C27.3379 35.3172 27.452 35.2894 27.4851 35.2894L27.5519 35.306L27.7517 34.4618C27.8516 34.3507 27.9016 34.2759 27.9016 34.2369V33.9788L28.0015 33.6206L28.0183 33.4539V33.354L28.1265 33.2792C28.0432 33.1902 28.0015 33.0876 28.0015 32.9709L28.0432 32.4793L28.06 32.2547L28.2433 32.0714C28.1765 31.9712 28.1431 31.8964 28.1431 31.8465L28.1265 31.5799L28.0183 31.3717L28.0432 30.8968V30.3138L28.1765 30.039C28.1987 29.95 28.2099 29.8891 28.2099 29.8557C28.2099 29.7611 28.146 29.6695 28.0183 29.5808L28.0015 29.256V29.1061C28.0015 29.0393 28.06 28.9645 28.1765 28.8812L28.1933 28.423H27.9849L27.935 28.248L27.9684 27.8067L27.885 27.157L27.9516 26.9737L27.8351 26.732L27.8183 25.9158L27.5936 25.6575L27.7851 25.2827L27.8017 25.1579L27.7517 24.683L27.7351 23.9C27.6128 23.8834 27.499 23.85 27.3935 23.8001L27.1686 23.7167V23.4752L27.4603 23.3587H28.11L29.2863 23.2171C29.3918 23.1725 29.539 23.1504 29.7279 23.1504L30.2776 23.1338L30.5774 23.2337L30.7858 23.1672L30.9356 23.2588H31.2105L31.5354 23.2754L31.8434 23.3088H31.8602L32.1351 23.2588L32.6932 23.4418L33.3594 23.4586L33.5844 23.5586L34.5172 23.6668L35.0836 23.8334L35.7501 23.9499L36.2083 24.1083L36.3998 24.1749L36.3664 24.3498L36.4663 24.4498L36.3998 24.5497L36.433 24.5831L36.383 24.6498L36.433 24.633L36.7247 24.5331L36.9579 24.4666L37.166 24.5331L37.4743 24.6164L37.6575 24.7415L37.6741 24.9245L37.7492 24.9413L38.0657 24.9245C38.1713 24.9245 38.2904 25.0217 38.4237 25.2162H38.5487C38.693 25.2162 38.9097 25.8269 39.1984 26.0323C39.5094 26.2434 39.7704 26.4934 39.9814 26.7822L39.8564 26.8987L39.8815 27.0237L39.9814 27.1901L40.1481 27.3069C40.2034 27.3734 40.2563 27.5011 40.3063 27.69C40.2008 27.7343 40.2878 27.7972 40.2878 27.864C40.2768 27.8527 40.2878 27.8973 40.2878 27.864L40.4062 28.2814C40.4284 28.3258 40.7325 28.6813 40.7325 28.7313ZM38.9235 28.248C38.818 28.2037 38.7515 28.162 38.7237 28.123C38.6959 28.0787 38.6764 28.0009 38.6655 27.8898L38.5987 27.8732V27.7733C38.5987 27.7177 38.5653 27.6317 38.4988 27.515L38.3406 27.2569L38.3572 27.1736L38.1905 27.0237L37.7823 26.7154C37.738 26.6876 37.6936 26.6516 37.6493 26.6072C37.6047 26.5626 37.552 26.5044 37.4908 26.4322C37.4353 26.3545 37.3714 26.2712 37.2993 26.1824H37.116C36.9771 26.1824 36.8633 26.1712 36.7746 26.1491L35.975 25.7243L35.6168 25.6575L35.3919 25.5576L35.2003 25.5159L35.1669 25.3327C35.0171 25.2995 34.9281 25.2827 34.9003 25.2827C34.8448 25.2827 34.7756 25.3161 34.6922 25.3826C34.5146 25.2883 34.373 25.2328 34.2675 25.2162C34.1507 25.194 34.0674 25.1801 34.0174 25.1745C33.9731 25.1633 33.937 25.1494 33.9092 25.1328C33.887 25.1107 33.8563 25.08 33.8176 25.0412L33.6843 24.9079C33.5622 24.9747 33.4428 25.0078 33.3261 25.0078C33.1818 25.0078 33.068 24.9747 32.9846 24.9079L32.7848 24.7663L32.2684 24.683L31.0772 24.5331L30.494 24.5831L30.3776 24.5165L30.2942 24.5831L30.2026 24.7497L30.0193 24.6664L29.9859 24.9079C29.975 25.1467 29.9443 25.3271 29.8943 25.4494L29.936 25.6244C30.0137 25.8907 30.0527 26.0435 30.0527 26.0823L30.0359 26.2324L29.936 26.1656H29.8777C29.8889 26.3879 29.936 26.5655 30.0193 26.6988V26.9321L29.9111 26.9152C29.8556 26.9652 29.8056 26.9903 29.761 26.9903H29.6779L29.6445 27.157L29.761 27.3069C29.8777 27.3512 29.9555 27.3929 29.9942 27.4319C30.0332 27.465 30.0527 27.5206 30.0527 27.5983C29.936 27.6483 29.8777 27.7065 29.8777 27.7733C29.8777 27.8177 29.8833 27.8454 29.8943 27.8566L30.0693 28.2648L30.0193 29.7475L30.0859 29.9556L30.0028 30.3804L30.0693 30.4472L30.0359 30.7552L30.0693 31.2133C30.0693 31.3301 30.0498 31.4105 30.011 31.4548C29.972 31.4994 29.8833 31.5633 29.7444 31.6464L29.7778 31.8964L30.0693 32.0714V32.2712L30.0359 33.2792C30.0471 33.3291 30.0637 33.4039 30.0859 33.5041C30.1136 33.604 30.1414 33.701 30.1692 33.7956C30.2026 33.8621 30.2192 33.9233 30.2192 33.9788C30.2192 34.0066 30.197 34.0648 30.1526 34.1538H30.0028C29.8916 34.1538 29.8 34.2454 29.7279 34.4284C30.0944 34.4952 30.3664 34.5286 30.544 34.5286L31.6519 34.5118L32.0435 34.5452L33.2929 34.1869L33.4845 34.1704L34.4173 33.8121L35.0505 33.5541L35.3085 33.4539L35.4918 33.2957L36.1081 33.0625L36.5831 32.5961L36.7746 32.5127L36.8745 32.3962L36.9745 32.088L37.3159 31.8964L37.5077 31.6132L37.8657 31.1968L37.9324 30.9967C38.1045 30.9967 38.2156 30.9857 38.2656 30.9635C38.3155 30.9414 38.3406 30.8997 38.3406 30.8385C38.3406 30.7608 38.2682 30.7052 38.124 30.6718C38.3016 30.4942 38.4323 30.2887 38.5154 30.0555C38.6043 29.8167 38.6708 29.5004 38.7154 29.1061C38.7486 28.8061 38.818 28.5202 38.9235 28.248Z" fill="white"/>
<path d="M94.2647 33.961L94.1565 34.319L93.9732 34.3024C93.9064 34.3024 94.107 35.2767 94.0792 35.3101L93.8019 35.606L93.5769 35.7641L93.5104 35.8475L93.2021 35.8141L92.8439 35.9891H92.8273L92.4191 35.864L92.3692 35.8475L91.428 35.8806L91.1614 35.8475L91.0698 35.7142C90.731 35.7807 90.5395 35.8141 90.4949 35.8141L90.1869 35.7975L89.9785 35.8307L89.912 35.6642H89.8121L89.7287 35.6808L89.4373 35.8307L87.7962 35.8475L87.5547 35.964C87.3714 35.8419 87.2298 35.7807 87.1299 35.7807L87.0466 35.7975L86.6218 35.914L86.1388 35.8141L84.8523 35.4727L83.6494 35.864C83.5992 35.864 83.3911 35.7975 83.0246 35.6642L83.1079 35.4727L83.3078 34.9977L83.2529 34.1526L83.3446 33.7444V33.1198L83.3945 32.878L83.3611 30.9457L83.3945 30.4542L83.3777 30.2709L83.3278 30.0794L83.6694 30.0628C83.6083 29.9295 83.5554 29.835 83.511 29.7794C83.4667 29.7241 83.3889 29.6546 83.2778 29.5713L83.2361 29.4297L83.2778 28.8134L83.2027 27.7555L83.2778 27.3473L83.3112 27.1806L83.1362 27.1307L83.0697 26.9559L83.0363 26.4144L82.9364 26.2395L82.9196 26.1561L82.9364 25.948L83.0029 25.8481L83.4611 25.9646L83.3278 25.8481C83.2444 25.7869 83.2027 25.7313 83.2027 25.6814C83.2027 25.6536 83.214 25.6063 83.2361 25.5398L83.1028 25.4898L82.9364 25.5398C82.9196 25.2676 82.9003 25.0873 82.8781 24.9983C82.8613 24.9096 82.8279 24.8567 82.778 24.8401L82.4531 24.7068L82.778 24.1697L82.6781 23.4854C82.7171 23.4411 82.8087 23.3911 82.953 23.3356L83.1114 23.2856C83.3833 23.1579 83.4896 23.1106 83.6338 23.1106C83.6394 23.1106 83.7472 23.0941 83.7525 23.0941C83.7581 23.0941 84.2321 23.3056 84.2431 23.3168L86.0255 23.319L86.5918 23.3689L86.9084 23.4689C87.1138 23.3911 87.2525 23.3521 87.3249 23.3521C87.358 23.3521 87.3804 23.3577 87.3914 23.3689L88.6491 23.5022L89.757 23.4355L90.19 23.5605L90.4401 23.5022V23.4021C90.8232 23.3633 91.1037 23.3134 91.2813 23.2522C91.5257 23.1579 91.6727 23.1106 91.7229 23.1106L91.8893 23.144C91.8616 23.2717 91.8255 23.3633 91.7811 23.4189C91.7421 23.4689 91.5119 24.5735 91.3729 24.6403C91.3617 24.7402 91.3425 24.8097 91.3147 24.8484C91.2869 24.8874 91.2063 24.9427 91.0732 25.0151C90.7844 25.1484 90.5456 25.215 90.3567 25.215H90.2651L89.8238 25.1816L89.4487 25.2315L88.6825 25.1484L88.5076 25.1316C88.3521 25.0317 88.1995 24.9817 88.0494 24.9817C87.9329 25.115 87.7163 25.1816 87.3997 25.1816L87.1499 25.165L87.1082 25.0151L86.9415 25.0651L86.7 25.165L85.5591 25.0651L85.3758 25.34L85.4423 25.4065V25.4733L85.4757 25.9146L85.4089 26.5643L85.4423 26.8058L85.4589 26.9891L85.6256 27.039L86.7668 27.1475C86.8446 27.1475 86.9584 27.203 87.1082 27.3139L87.3666 27.264C87.522 27.2084 87.6358 27.1806 87.708 27.1806H87.7245L88.616 27.2306L89.1407 27.2474H89.6154C89.7153 27.2474 89.7987 27.2391 89.8652 27.2223C89.9376 27.2057 90.0153 27.1753 90.0986 27.1307L90.7315 27.2474L90.8814 27.214L91.2396 27.1307L91.8893 27.1141L92.5724 27.0225C92.6502 27.0446 92.7279 27.0863 92.8056 27.1475L92.9806 27.039C93.0915 26.9503 93.1943 26.9057 93.2886 26.9057L93.4719 26.9225L93.6635 26.9057V27.164L93.3152 28.3085L92.7389 28.73C92.6779 28.78 92.6197 28.8049 92.5641 28.8049H92.5308L91.9727 28.73L91.2562 28.7549L90.8648 28.6633L89.4655 28.7549L89.2072 28.73C89.1463 28.6189 89.0768 28.5634 88.9991 28.5634C88.9547 28.5634 88.9213 28.569 88.8992 28.5802L88.5244 28.73L87.4331 28.6133L86.9001 28.8049L86.5251 28.6967L86.217 28.8882L85.5771 28.9881H85.3924L85.5091 29.1382L85.3924 29.4962C85.4757 29.6517 85.5257 29.7655 85.5422 29.8379L85.5091 30.1128L85.5756 30.879V30.8958C85.5756 30.9679 85.5145 31.0817 85.3924 31.2372C85.5366 31.4205 85.609 31.5703 85.609 31.6871C85.609 31.7202 85.5978 31.7592 85.5756 31.8036L85.3507 32.2783L85.5922 32.7033L85.6436 33.7943L85.9019 33.8443L87.0264 34.2359L87.4012 34.1859C87.4901 34.1859 87.6149 34.2303 87.776 34.319C87.8871 34.2191 87.9675 34.1691 88.0175 34.1691H88.0509L88.8173 34.319L89.2837 34.269L89.6917 34.3524L90.683 34.2859L90.9662 34.3358L91.4492 34.3524L91.6159 34.4106L91.566 34.2859L91.7575 34.2525L92.5405 34.2359L92.7069 34.1691L93.6815 33.9942C93.7093 33.9888 93.7731 33.9749 93.8733 33.9525C93.9732 33.9249 94.0341 33.9111 94.0565 33.9111C94.0897 33.9111 94.1591 33.9276 94.2647 33.961Z" fill="white"/>
<path d="M108.072 23.7669C108.056 24.0501 107.992 24.2609 107.881 24.3998L107.523 24.8913L107.164 25.5742L106.889 25.7574L106.606 26.5073L106.482 26.6321L106.298 26.907L106.09 27.0403C106.012 27.118 105.973 27.1875 105.973 27.2486V27.465L105.748 27.8067L105.532 28.2146L105.39 28.3231L105.049 28.9811C105.004 29.081 104.852 29.2255 104.591 29.4141V29.5235L104.541 29.7889L104.416 29.9556L104.182 30.4001L103.824 30.5554L103.691 30.6718L103.674 30.9967C103.663 31.1634 103.641 31.2801 103.607 31.3466C103.58 31.4132 103.51 31.4965 103.399 31.5964C103.427 31.7076 103.457 31.7853 103.491 31.8296C103.524 31.8742 103.585 31.9213 103.674 31.9712L103.624 32.8042L103.516 32.7711L103.399 32.8627L103.449 33.304L103.583 33.3208L103.624 34.087L103.449 34.137V34.2786C103.61 34.3953 103.691 34.5035 103.691 34.6034C103.691 34.6202 103.674 34.6702 103.641 34.7533H103.466H103.299L103.084 35.2687C102.978 35.2965 102.414 35.335 102.231 35.3906C102.053 35.4461 101.465 34.9616 101.409 34.9616C101.293 34.9616 101.184 34.8922 101.084 34.7533L101.118 34.5535L101.218 33.9371L101.276 33.529V33.4707L101.234 32.8459C101.234 32.8071 101.276 32.7265 101.359 32.6044L101.409 32.4711L101.359 32.4211L101.151 32.3962L101.184 32.1962L101.326 32.0046L101.359 31.8214L101.343 31.4965L101.359 31.2384H101.493C101.493 31.1217 101.481 31.0413 101.459 30.9967C101.443 30.9467 101.398 30.8914 101.326 30.8302L101.426 30.7635L101.343 30.5719L100.934 30.2471L100.56 29.7724C100.46 29.7168 100.351 29.6834 100.235 29.6724C100.235 29.4336 100.199 29.2781 100.127 29.206L99.5352 28.6645L99.5184 28.1898C99.5184 28.123 99.4906 28.0648 99.4353 28.0148C99.3853 27.9592 99.3324 27.9315 99.2769 27.9315C99.2603 27.9315 99.1908 27.9427 99.0687 27.9648C99.0631 27.8206 99.038 27.7177 98.9937 27.6566C98.9493 27.5956 98.8438 27.5235 98.6771 27.4402L98.5606 27.4901L98.3357 27.2318L97.6192 26.4822L97.3446 26.1074L97.1945 25.9324C97.3556 25.9158 97.436 25.8603 97.436 25.766C97.436 25.7104 97.4111 25.6631 97.3612 25.6244C97.3168 25.5798 97.2612 25.5576 97.1945 25.5576C97.1779 25.5576 97.1084 25.5688 96.9863 25.591C96.6364 25.1467 96.4614 24.7941 96.4614 24.5331C96.4614 24.4332 96.4865 24.3303 96.5365 24.2248C96.5864 24.1193 97.0448 23.4031 97.106 23.3753L97.8851 23.6085L98.2933 23.3919L98.4015 23.3753L98.518 23.4087L98.6513 23.3919L98.7429 23.492L98.6181 23.8668L98.6513 24.0001V24.1417L98.993 24.5331L99.0261 24.6998L99.0095 24.9913L99.2844 25.2162L99.2176 25.466C99.1845 25.5549 99.1677 25.6297 99.1677 25.6909C99.1677 25.7299 99.2011 25.7881 99.2678 25.8659L99.6093 25.8076C99.8425 25.8076 99.9953 25.8715 100.067 25.9992L100.309 26.424L100.476 26.6988L100.534 26.8653L100.409 26.9569C100.537 27.1458 100.645 27.2401 100.734 27.2401C100.756 27.2347 100.775 27.2318 100.792 27.2318C100.809 27.2262 100.837 27.2235 100.875 27.2235C101.081 27.5011 101.247 27.7095 101.375 27.8484C101.503 27.987 101.686 28.1508 101.925 28.3397L101.808 28.4064C101.875 28.5785 101.978 28.7035 102.116 28.7812L102.2 28.6979L102.683 29.1726L102.833 29.1595C102.838 29.1541 102.759 29.0922 102.893 28.9811L102.867 28.7978L103.383 28.0816L103.583 27.8566L104.024 27.0568L104.457 26.4739L104.591 26.0491L104.782 25.6909L104.899 25.1994L105.24 24.683L105.29 24.5165L105.715 24.5665C105.709 24.4442 105.687 24.3637 105.649 24.325C105.61 24.286 105.529 24.2582 105.407 24.2416L105.482 24.075C105.582 23.8308 105.671 23.6806 105.748 23.6251L106.09 23.4087C106.26 23.2973 107.098 23.3107 107.098 23.3107C107.518 23.4253 107.866 23.7421 107.947 23.7335C107.942 23.7335 107.983 23.7445 108.072 23.7669Z" fill="white"/>
<path d="M79.5119 31.255C79.5119 31.3883 79.4841 31.5465 79.4286 31.7297L79.0871 31.7132L78.9704 31.7631L79.0038 31.988C79.1259 32.0546 79.1871 32.1574 79.1871 32.2961C79.1871 32.5239 79.1649 32.6711 79.1205 32.7377L78.6646 33.4456L78.5147 33.6956L78.0314 34.0205L77.6401 34.7618L77.4651 34.8534L77.0501 35.2831L76.0658 35.7113L75.4161 35.9196C75.2606 35.9861 75.1412 36.0195 75.0578 36.0195C75.0357 36.0195 74.9774 36.0027 74.8829 35.9696C74.7218 36.0583 74.5358 36.1029 74.3248 36.1029L73.9334 36.0861H73.1753L72.9089 36.0195L71.9176 35.9528L71.3678 35.6447L71.1346 35.6947L71.2347 35.778L70.993 35.7446L70.7597 35.7113L69.9353 35.0033L69.4937 34.9451L69.0273 34.6619C68.8328 34.523 68.7358 34.4257 68.7358 34.3702C68.7358 34.2593 68.9218 33.8399 69.0107 33.6788C69.0994 33.5124 68.9717 32.8544 69.0938 32.7211C69.2493 32.5378 69.4243 32.4323 69.6188 32.4045L69.7435 33.0291C69.8603 33.0847 69.9353 33.132 69.9685 33.1707C70.0019 33.2097 70.0479 33.354 70.0754 33.4707L70.2516 33.3708L70.4183 33.479L70.5599 33.6788L71.118 33.8372L71.6843 34.087L72.8256 34.3285C73.0198 34.4508 73.1339 34.5118 73.167 34.5118C73.2447 34.5118 73.292 34.4562 73.3086 34.3453L73.4253 34.3285L74.4664 34.3953L74.7912 34.2286L74.9745 34.2954L75.2828 34.2286L75.641 34.1036C75.8408 34.0371 75.9824 33.9481 76.0658 33.8372L76.3073 33.5124L76.5334 33.3557C76.578 33.2779 76.7308 33.2782 76.7752 33.0949C76.9918 33.0949 77.1 33.0255 77.1 32.8866L77.0669 32.7199L77.0501 32.5117L77.1834 32.3619L77.5567 31.6632H77.6401L77.6067 31.1717L77.4234 30.8612L77.3569 30.6696L77.1151 30.6528L76.5488 30.4386L75.8991 30.522L75.7326 30.3387L75.4909 30.1971L75.3162 30.2887L75.2662 30.3721L74.125 30.3221L73.8667 30.0138L73.6668 30.2722L73.4753 30.2305L73.0005 30.1306C72.684 30.0694 72.373 30.2388 72.2007 30.1888C72.0343 30.1333 71.8927 30.0638 71.776 29.9807L71.3602 29.5891L71.2608 29.3805C71.2664 29.3805 71.1679 29.2754 71.068 29.2976C70.8682 29.1477 70.1712 28.5897 70.1101 28.5063C70.0545 28.4174 69.988 28.2453 69.9102 27.9899L69.9768 27.9731L69.677 27.3734L69.6519 27.107L69.6188 26.8321V26.7488L69.727 26.4071L69.8269 26.2156L70.0019 25.5742L70.2767 25.3743C70.4044 25.28 70.4683 25.1189 70.4683 24.8913L70.6182 24.7746L71.7177 24.1249L72.1091 23.8917L72.7505 23.5668L74.1264 23.2035L74.3348 23.1367L74.5512 23.1036L75.0676 23.0451L75.3176 22.9452L76.1589 23.0451L76.5337 23.0285L76.7669 23.1201L77.1834 23.2201C77.4665 23.2922 77.7817 24.1556 77.7817 24.2665C77.7817 24.3111 77.776 24.3498 77.7648 24.3832C77.654 24.422 77.5955 24.4441 77.5901 24.4497L77.3735 24.6413C77.2402 24.7358 77.0181 24.8246 76.7072 24.9079L76.5322 24.808L76.0906 24.4831L75.8491 24.4497L75.166 24.3164L74.7747 24.3333L74.3165 24.3498L73.5001 24.7746L72.9172 25.0663L72.5256 25.3743L72.334 25.591L71.976 26.2241L71.6512 26.4488L71.5844 26.6489L71.8094 26.7736C71.7872 26.8292 71.776 26.8904 71.776 26.9569C71.776 27.0125 71.8038 27.1041 71.8593 27.2318L71.5345 27.3985L71.6178 27.59L71.7928 27.6566L72.1008 27.7065L72.4257 27.9814L73.1087 28.2897L73.292 28.4564L73.8752 28.4064L74.3833 28.4564L74.4164 28.5646L74.6248 28.5312L74.9162 28.4981C74.9718 28.4981 75.0106 28.5034 75.033 28.5146L75.4743 28.6145L75.6993 28.6645C75.738 28.9255 75.8187 28.9691 75.9242 28.9691L76.349 28.7978L76.7903 28.8312L77.1151 28.8144C77.293 28.8144 77.6206 28.9006 77.7817 29.0393L78.2064 29.4141C78.212 29.4141 78.2176 29.4141 78.223 29.4141C78.2342 29.4141 78.2564 29.4141 78.2898 29.4141C78.3285 29.4087 78.3592 29.4031 78.3814 29.3975H78.398C78.4757 29.3975 78.9512 29.6919 79.2621 30.0806L79.3954 30.2471L79.4286 30.472L79.5119 31.255Z" fill="white"/>
<path d="M17.495 24.7349C14.6013 24.7349 12.2555 27.0544 12.2555 29.9159C12.2555 32.7771 14.6013 35.0969 17.495 35.0969C18.059 35.0969 18.6021 34.946 19.1112 34.7828V35.0969L19.2689 35.2146C18.7566 35.3647 18.0565 35.5287 17.495 35.5287C14.3602 35.5287 11.8188 33.0157 11.8188 29.9159C11.8188 26.816 14.3602 24.303 17.495 24.303C20.6299 24.303 23.1712 26.816 23.1712 29.9159C23.1712 31.6966 22.3901 33.4015 21.0821 34.4296L21.1215 33.7624C22.2075 32.8132 22.7346 31.4619 22.7346 29.9159C22.7346 27.0544 20.3888 24.7349 17.495 24.7349Z" fill="white"/>
<path fill-rule="evenodd" clip-rule="evenodd" d="M11.0127 29.9159C11.0127 26.77 14.3158 23.6672 17.495 23.6672C20.6742 23.6672 23.8707 26.77 23.8707 29.9159C23.8707 31.7192 22.3951 33.751 21.0655 34.7962L21.0677 34.8946L21.0418 33.7234L21.0677 33.7008C22.1328 32.7698 22.6528 31.4426 22.6528 29.9159C22.6528 27.1004 20.3444 24.8165 17.495 24.8165C14.6456 24.8165 12.3372 27.1004 12.3372 29.9159C12.3372 32.7313 14.6456 35.015 17.495 35.015C18.0454 35.015 18.5781 34.8678 19.0862 34.705L19.1929 34.6709V35.0559L19.2097 35.5609C18.696 35.7115 18.0687 36.0432 17.495 36.0432C14.3158 36.0432 11.0127 33.0618 11.0127 29.9159ZM17.495 24.3849C14.4044 24.3849 11.9006 26.8621 11.9006 29.9159C11.9006 32.9697 14.4044 35.4468 17.495 35.4468C17.9893 35.4468 18.5983 35.3165 19.0875 35.1812L19.0294 35.1378V34.8946C18.5492 35.0447 18.0325 35.1785 17.495 35.1785C14.557 35.1785 12.1737 32.8232 12.1737 29.9159C12.1737 27.0083 14.557 24.653 17.495 24.653C20.433 24.653 22.8163 27.0083 22.8163 29.9159C22.8163 31.4687 22.2904 32.8349 21.2011 33.8012L21.1747 34.2483C22.375 33.2272 23.0894 31.6076 23.0894 29.9159C23.0894 26.8621 20.5856 24.3849 17.495 24.3849Z" fill="white" stroke="white" stroke-width="0.243697"/>
<path fill-rule="evenodd" clip-rule="evenodd" d="M21.5643 30.6216C21.5643 29.2279 21.2736 28.114 20.769 27.0003L20.9661 26.961C21.4835 28.103 21.7939 29.1999 21.7939 30.6216C21.7939 31.2772 21.6828 32.0775 21.5643 32.685L21.321 32.7566C21.4918 32.4157 21.5643 31.264 21.5643 30.6216Z" fill="white"/>
<path fill-rule="evenodd" clip-rule="evenodd" d="M12.6763 32.2315C14.1469 32.7437 15.8131 33.033 17.5791 33.033C19.1829 33.033 20.8043 32.9021 22.1632 32.4791L22.2254 32.6889C20.8368 33.121 19.1908 33.2521 17.5791 33.2521C15.7906 33.2521 14.101 32.9592 12.6074 32.4391L12.6763 32.2315Z" fill="white"/>
<path fill-rule="evenodd" clip-rule="evenodd" d="M18.546 30.201L18.4409 27.2077L18.5986 27.2861L18.7563 30.1971V33.0952H18.546V30.201Z" fill="white"/>
<path fill-rule="evenodd" clip-rule="evenodd" d="M13.2687 29.4704C13.3746 28.5024 13.7642 27.7714 14.4103 27.0025L14.2513 26.8611C13.5863 27.6527 13.1657 28.4279 13.0571 29.4724C13.0531 29.5111 13.0628 29.5467 13.0712 29.5708C13.0802 29.5966 13.0874 29.6122 13.098 29.6334C13.099 29.6356 13.1001 29.6378 13.1011 29.6398C13.1038 29.6451 13.1062 29.6498 13.1079 29.6532C13.1089 29.6554 13.1108 29.659 13.1128 29.6624C13.1135 29.6637 13.1165 29.6688 13.1208 29.6746C13.1221 29.6763 13.1302 29.6873 13.1434 29.6968C13.1491 29.7012 13.1699 29.7158 13.2009 29.7168C13.2437 29.7183 13.2773 29.6934 13.2942 29.6644C13.3068 29.643 13.3085 29.623 13.309 29.6169C13.3096 29.6086 13.3091 29.6018 13.3088 29.5984C13.3082 29.5915 13.307 29.5862 13.3066 29.5842C13.3056 29.5796 13.3094 29.5854 13.309 29.5842C13.308 29.5808 13.3068 29.5774 13.306 29.575C13.305 29.572 13.3036 29.5681 13.302 29.5635C13.3009 29.5606 13.2998 29.5574 13.2987 29.5542L13.2687 29.4704Z" fill="white"/>
<path fill-rule="evenodd" clip-rule="evenodd" d="M13.1802 29.4448C14.6498 29.7689 15.8044 29.9739 17.5133 29.9739V30.1513C15.8357 30.1513 14.6258 30.0316 13.1802 29.7209C13.1802 29.583 13.1802 29.8589 13.1802 29.7209V29.4448Z" fill="white"/>
<path fill-rule="evenodd" clip-rule="evenodd" d="M14.284 26.8231C15.3797 27.1097 15.9811 27.1889 17.2401 27.2065L17.2371 27.4431C15.9616 27.4253 15.259 27.39 14.146 27.099L14.284 26.8231ZM18.4623 27.1765C19.4408 27.1146 20.0418 27.1874 20.9074 26.9611L21.0454 27.099C20.162 27.33 19.4621 27.3502 18.4757 27.4126L18.4623 27.1765Z" fill="white"/>
<path fill-rule="evenodd" clip-rule="evenodd" d="M17.0947 27.2077H17.4218V28.6552L17.5004 30.0243L17.1738 30.0428L17.0947 28.6645V27.2077Z" fill="white"/>
<path d="M10.5221 31.1348L10.193 27.7587C9.67364 27.7587 9.01661 28.2904 8.89476 27.3156C8.71633 27.4521 8.36669 27.7587 8.12399 27.7587C7.54024 27.7587 7.28641 27.0663 7.28641 26.4868C7.28641 26.1037 7.43258 25.4879 7.43258 25.4879C7.11358 25.2176 6.57963 25.7316 6.33594 24.8786C6.33594 24.2806 6.82055 23.6572 7.43258 23.4165C7.17384 23.2317 7.28641 22.6171 7.28641 22.2394C7.91997 21.4669 8.1507 21.7106 8.65106 21.7106C8.76026 21.7106 8.91967 20.9266 9.01661 20.9675C9.42982 20.5594 9.58355 20.7358 10.2351 20.7358C10.7428 20.7358 10.4788 20.2479 11.6973 20.2484C13.1232 21.0107 12.4454 21.345 12.6721 21.345C13.2558 21.345 13.6469 21.6185 13.6469 22.198C13.6469 22.4519 13.58 22.7475 13.4287 22.9291C14.0202 23.1511 13.9223 23.1728 13.9223 23.6996C13.9223 24.0674 13.7491 24.3374 13.4287 24.5808C13.7491 24.8784 13.4287 25.0219 13.4287 25.4716C12.9351 26.0706 12.7158 25.7789 12.0577 26.9769C11.6764 26.9769 11.7677 27.3407 11.4759 27.1574L11.2948 27.3278V29.754L11.6189 32.0955L10.906 31.7338L10.5221 31.1348Z" fill="white"/>
<path fill-rule="evenodd" clip-rule="evenodd" d="M19.2379 33.099C19.272 33.099 19.3047 33.0717 19.3288 33.099C19.3529 33.1263 19.3665 33.1634 19.3665 33.2445V33.39H20.9089V33.0581C20.9089 33.0196 20.8848 32.9399 20.9089 32.9126C20.933 32.8853 21.0033 32.9126 21.0374 32.9126C21.0715 32.9126 21.1042 32.928 21.1283 32.9553C21.1524 32.9826 21.166 33.0196 21.166 33.0581V35.1888V36.1682C21.166 36.2067 21.1524 36.2437 21.1283 36.271C21.1042 36.2983 21.0374 36.3137 21.0374 36.3137C21.166 36.1682 20.9706 36.2983 20.9465 36.271C20.9465 36.271 20.9089 36.2067 20.9089 36.1682V35.3703H19.3665V36.1682C19.3665 36.2067 19.3529 36.2437 19.3288 36.271C19.3047 36.2983 19.272 36.3137 19.2379 36.3137C19.2038 36.3137 19.1711 36.2983 19.147 36.271C19.1229 36.2437 19.1094 36.2067 19.1094 36.1682V33.2445C19.1094 33.1634 19.1229 33.1263 19.147 33.099C19.1711 33.0717 19.2038 33.099 19.2379 33.099ZM19.3665 35.1364H20.9089V34.5542H19.3665V35.1364ZM19.3665 34.2632H20.9089V33.681H19.3665V34.2632Z" fill="white"/>
<path d="M17.2851 36.338C16.9078 36.338 16.1888 36.2749 15.1283 36.1484C15.0307 36.0851 14.9526 35.9615 14.8941 35.7775C14.7834 35.835 14.6208 35.8867 14.4061 35.9328C14.354 35.9099 14.2272 35.8494 14.0255 35.7517C13.8303 35.6484 13.6937 35.5765 13.6156 35.5363C13.544 35.4958 13.4334 35.4356 13.2838 35.355C13.1406 35.2689 13.0763 34.9297 12.9657 34.8549C12.8616 34.7745 12.6949 34.947 12.5908 34.8549C11.4067 33.826 10.8146 32.6129 10.8146 31.216C10.8146 31.0608 11.0644 30.6255 10.9668 30.2405C10.9798 30.1428 10.704 30.026 10.7366 29.5606C10.7626 28.9913 10.8569 28.3935 11.0196 27.767C11.1887 27.1346 11.4262 26.6372 11.732 26.275C11.8231 26.16 11.976 26.0825 12.1907 26.0423C12.2232 25.8008 12.2688 25.637 12.3273 25.5508C12.6527 25.0736 13.0918 24.6742 13.6448 24.3523C14.2044 24.0245 14.7834 23.7944 15.382 23.6624C15.9871 23.5244 16.6215 23.4525 17.2851 23.4467L17.2266 23.3777C17.2916 23.3663 17.3925 23.3607 17.5291 23.3607C17.8219 23.3607 18.2611 23.3721 18.8466 23.395C18.9767 23.4584 19.0776 23.5761 19.1491 23.7486C19.3443 23.6967 19.5363 23.6624 19.7249 23.6451C19.8225 23.6911 20.0015 23.7745 20.2617 23.8951C20.522 24.016 20.6233 24.4039 20.7599 24.4729C20.8965 24.5419 21.1563 24.3464 21.345 24.4729C21.5402 24.5935 21.7061 24.7173 21.8428 24.8438C22.1681 25.1599 22.4381 25.4387 22.6528 25.6802C22.8675 25.9158 22.9304 26.3849 23.1516 26.7069C23.3728 27.0229 23.6873 27.1633 23.7849 27.5081C23.889 27.8474 23.9345 28.201 23.9215 28.5687C23.9475 28.6608 23.9605 28.7269 23.9605 28.7671C23.9605 28.9223 23.9215 29.0517 23.8434 29.1551L24.1264 29.3449C24.1004 29.5116 24.0711 29.8966 24.0386 30.5003C24.0061 31.0983 23.9345 31.5552 23.8239 31.8713L23.4042 32.0265L23.6678 32.3285C23.5051 32.7998 23.3034 33.1763 23.0627 33.458C23.0432 33.4809 23.0106 33.5155 22.9651 33.5616C22.9195 33.6074 22.7249 33.5214 22.6989 33.5616C22.6793 33.596 22.8219 33.7656 22.8089 33.8116C22.5877 33.961 22.3079 34.2369 21.9696 34.6395C21.6313 35.0418 21.3515 35.3206 21.1303 35.4758C21.0717 35.516 21.0099 35.5506 20.9449 35.5792C20.8863 35.6079 21.049 34.3977 20.9449 34.4321C20.8408 34.4608 20.9839 34.4206 20.9449 34.4321C20.6129 34.5622 19.6475 34.4672 19.3343 34.5525C19.2673 34.5705 19.2004 36.1116 19.1336 36.1277C18.5452 36.271 17.9576 36.338 17.2851 36.338ZM17.7722 35.033C17.9153 35.033 18.3626 34.976 18.7335 34.9129C19.1043 34.8439 19.2141 34.501 19.2141 34.4321C19.6761 34.3 20.6327 34.8293 21.0166 34.3119C21.1213 34.1694 20.9322 33.0099 21.0166 32.87C21.2415 32.4976 22.1378 32.9809 22.2182 32.6297L22.5787 31.428C22.5787 31.458 22.6112 31.5087 22.5787 31.428C22.5462 31.3476 22.5787 31.4799 22.5787 31.428C22.5787 31.273 22.6208 30.7715 22.6989 30.4669C22.6989 30.6163 22.7769 30.1623 22.6989 30.4669C22.6989 30.3289 22.7444 29.9246 22.6989 29.6256C22.6598 29.3269 22.6242 28.6362 22.5787 28.5441C22.5787 28.4868 22.6893 28.665 22.5787 28.5441C22.5202 28.2107 21.4881 26.7695 21.3841 26.5165C21.28 26.2577 20.7985 26.0218 20.7009 25.8839C20.7009 25.3322 20.3984 25.6256 20.2617 25.3955C20.1316 25.1657 19.8225 25.5968 19.7249 25.3439L19.3199 24.9817C19.2028 24.8955 19.0249 25.0544 18.7191 24.9566C18.4198 24.8589 18.3556 25.0544 18.2385 24.9566C18.1539 24.9335 17.9951 24.8479 17.878 24.8365C17.7674 24.825 17.7236 24.8192 17.652 24.8192C17.587 24.8133 17.4268 24.8306 17.2772 24.8365C17.1275 24.8365 16.9701 24.8192 16.9311 24.8192C16.8465 24.8192 16.7298 24.8077 16.6907 24.8192L16.3159 24.9566C15.6327 25.0197 15.6422 25.1847 15.369 25.2998C15.1022 25.4148 14.5577 25.5839 14.1673 26.0209L14.0472 26.141L13.4464 26.5014C12.9714 27.2374 12.5306 27.9751 12.485 28.5441C12.4785 28.6477 12.4169 28.9662 12.3649 29.2652C12.3193 29.5584 12.2447 29.9395 12.2447 30.1064C12.2057 29.9281 12.2447 30.2042 12.2447 30.1064C12.2447 30.0202 12.2837 30.2846 12.2447 30.1064C12.2447 30.2212 12.4951 31.2362 12.404 31.449C12.5927 31.5467 12.8876 32.5493 12.9657 32.6297C13.0112 32.9343 13.514 33.2514 13.8068 33.7112C14.1061 34.1711 14.8098 34.1672 15.1286 34.5522C15.1937 34.5983 15.8752 34.6719 16.0899 34.7928C15.9923 34.7121 16.3111 34.9134 16.0899 34.7928C16.181 34.7928 17.5315 34.9526 17.7722 35.033C17.9023 35.0272 17.5315 35.0216 17.7722 35.033C18.0129 35.0386 17.6941 35.033 17.7722 35.033Z" fill="white"/>
<path d="M19.7394 30.3619C19.7394 30.5636 19.5757 30.7274 19.3738 30.7274C19.172 30.7274 19.0083 30.5636 19.0083 30.3619C19.0083 30.1601 19.172 29.9963 19.3738 29.9963C19.5757 29.9963 19.7394 30.1601 19.7394 30.3619Z" fill="white"/>
</svg>
